G04 #@! TF.GenerationSoftware,KiCad,Pcbnew,(5.1.5)-3*
G04 #@! TF.CreationDate,2020-02-22T21:26:02+01:00*
G04 #@! TF.ProjectId,SchluesselbrettV2,5363686c-7565-4737-9365-6c6272657474,rev?*
G04 #@! TF.SameCoordinates,Original*
G04 #@! TF.FileFunction,Legend,Top*
G04 #@! TF.FilePolarity,Positive*
%FSLAX46Y46*%
G04 Gerber Fmt 4.6, Leading zero omitted, Abs format (unit mm)*
G04 Created by KiCad (PCBNEW (5.1.5)-3) date 2020-02-22 21:26:02*
%MOMM*%
%LPD*%
G04 APERTURE LIST*
%ADD10C,0.125000*%
%ADD11C,0.300000*%
%ADD12C,0.127000*%
%ADD13C,0.190500*%
%ADD14C,0.254000*%
%ADD15C,0.120000*%
%ADD16C,0.150000*%
G04 APERTURE END LIST*
D10*
X88939266Y-76618266D02*
X88939266Y-75918266D01*
X89239266Y-76618266D02*
X89239266Y-76251600D01*
X89205933Y-76184933D01*
X89139266Y-76151600D01*
X89039266Y-76151600D01*
X88972600Y-76184933D01*
X88939266Y-76218266D01*
X89472600Y-76151600D02*
X89739266Y-76151600D01*
X89572600Y-75918266D02*
X89572600Y-76518266D01*
X89605933Y-76584933D01*
X89672600Y-76618266D01*
X89739266Y-76618266D01*
X89872600Y-76151600D02*
X90139266Y-76151600D01*
X89972600Y-75918266D02*
X89972600Y-76518266D01*
X90005933Y-76584933D01*
X90072600Y-76618266D01*
X90139266Y-76618266D01*
X90372600Y-76151600D02*
X90372600Y-76851600D01*
X90372600Y-76184933D02*
X90439266Y-76151600D01*
X90572600Y-76151600D01*
X90639266Y-76184933D01*
X90672600Y-76218266D01*
X90705933Y-76284933D01*
X90705933Y-76484933D01*
X90672600Y-76551600D01*
X90639266Y-76584933D01*
X90572600Y-76618266D01*
X90439266Y-76618266D01*
X90372600Y-76584933D01*
X90972600Y-76584933D02*
X91039266Y-76618266D01*
X91172600Y-76618266D01*
X91239266Y-76584933D01*
X91272600Y-76518266D01*
X91272600Y-76484933D01*
X91239266Y-76418266D01*
X91172600Y-76384933D01*
X91072600Y-76384933D01*
X91005933Y-76351600D01*
X90972600Y-76284933D01*
X90972600Y-76251600D01*
X91005933Y-76184933D01*
X91072600Y-76151600D01*
X91172600Y-76151600D01*
X91239266Y-76184933D01*
X91572600Y-76551600D02*
X91605933Y-76584933D01*
X91572600Y-76618266D01*
X91539266Y-76584933D01*
X91572600Y-76551600D01*
X91572600Y-76618266D01*
X91572600Y-76184933D02*
X91605933Y-76218266D01*
X91572600Y-76251600D01*
X91539266Y-76218266D01*
X91572600Y-76184933D01*
X91572600Y-76251600D01*
X92405933Y-75884933D02*
X91805933Y-76784933D01*
X93139266Y-75884933D02*
X92539266Y-76784933D01*
X93672600Y-76151600D02*
X93672600Y-76618266D01*
X93372600Y-76151600D02*
X93372600Y-76518266D01*
X93405933Y-76584933D01*
X93472600Y-76618266D01*
X93572600Y-76618266D01*
X93639266Y-76584933D01*
X93672600Y-76551600D01*
X94005933Y-76151600D02*
X94005933Y-76618266D01*
X94005933Y-76218266D02*
X94039266Y-76184933D01*
X94105933Y-76151600D01*
X94205933Y-76151600D01*
X94272600Y-76184933D01*
X94305933Y-76251600D01*
X94305933Y-76618266D01*
X94605933Y-76584933D02*
X94672600Y-76618266D01*
X94805933Y-76618266D01*
X94872600Y-76584933D01*
X94905933Y-76518266D01*
X94905933Y-76484933D01*
X94872600Y-76418266D01*
X94805933Y-76384933D01*
X94705933Y-76384933D01*
X94639266Y-76351600D01*
X94605933Y-76284933D01*
X94605933Y-76251600D01*
X94639266Y-76184933D01*
X94705933Y-76151600D01*
X94805933Y-76151600D01*
X94872600Y-76184933D01*
X95472600Y-76584933D02*
X95405933Y-76618266D01*
X95272600Y-76618266D01*
X95205933Y-76584933D01*
X95172600Y-76518266D01*
X95172600Y-76251600D01*
X95205933Y-76184933D01*
X95272600Y-76151600D01*
X95405933Y-76151600D01*
X95472600Y-76184933D01*
X95505933Y-76251600D01*
X95505933Y-76318266D01*
X95172600Y-76384933D01*
X95805933Y-76618266D02*
X95805933Y-76151600D01*
X95805933Y-76284933D02*
X95839266Y-76218266D01*
X95872600Y-76184933D01*
X95939266Y-76151600D01*
X96005933Y-76151600D01*
X96239266Y-76351600D02*
X96772600Y-76351600D01*
X97072600Y-76584933D02*
X97139266Y-76618266D01*
X97272600Y-76618266D01*
X97339266Y-76584933D01*
X97372600Y-76518266D01*
X97372600Y-76484933D01*
X97339266Y-76418266D01*
X97272600Y-76384933D01*
X97172600Y-76384933D01*
X97105933Y-76351600D01*
X97072600Y-76284933D01*
X97072600Y-76251600D01*
X97105933Y-76184933D01*
X97172600Y-76151600D01*
X97272600Y-76151600D01*
X97339266Y-76184933D01*
X97672600Y-76618266D02*
X97672600Y-76151600D01*
X97672600Y-76218266D02*
X97705933Y-76184933D01*
X97772600Y-76151600D01*
X97872600Y-76151600D01*
X97939266Y-76184933D01*
X97972600Y-76251600D01*
X97972600Y-76618266D01*
X97972600Y-76251600D02*
X98005933Y-76184933D01*
X98072600Y-76151600D01*
X98172600Y-76151600D01*
X98239266Y-76184933D01*
X98272600Y-76251600D01*
X98272600Y-76618266D01*
X98905933Y-76618266D02*
X98905933Y-76251600D01*
X98872600Y-76184933D01*
X98805933Y-76151600D01*
X98672600Y-76151600D01*
X98605933Y-76184933D01*
X98905933Y-76584933D02*
X98839266Y-76618266D01*
X98672600Y-76618266D01*
X98605933Y-76584933D01*
X98572600Y-76518266D01*
X98572600Y-76451600D01*
X98605933Y-76384933D01*
X98672600Y-76351600D01*
X98839266Y-76351600D01*
X98905933Y-76318266D01*
X99239266Y-76618266D02*
X99239266Y-76151600D01*
X99239266Y-76284933D02*
X99272600Y-76218266D01*
X99305933Y-76184933D01*
X99372600Y-76151600D01*
X99439266Y-76151600D01*
X99572600Y-76151600D02*
X99839266Y-76151600D01*
X99672600Y-75918266D02*
X99672600Y-76518266D01*
X99705933Y-76584933D01*
X99772600Y-76618266D01*
X99839266Y-76618266D01*
X100339266Y-76584933D02*
X100272600Y-76618266D01*
X100139266Y-76618266D01*
X100072600Y-76584933D01*
X100039266Y-76518266D01*
X100039266Y-76251600D01*
X100072600Y-76184933D01*
X100139266Y-76151600D01*
X100272600Y-76151600D01*
X100339266Y-76184933D01*
X100372600Y-76251600D01*
X100372600Y-76318266D01*
X100039266Y-76384933D01*
X100639266Y-76584933D02*
X100705933Y-76618266D01*
X100839266Y-76618266D01*
X100905933Y-76584933D01*
X100939266Y-76518266D01*
X100939266Y-76484933D01*
X100905933Y-76418266D01*
X100839266Y-76384933D01*
X100739266Y-76384933D01*
X100672600Y-76351600D01*
X100639266Y-76284933D01*
X100639266Y-76251600D01*
X100672600Y-76184933D01*
X100739266Y-76151600D01*
X100839266Y-76151600D01*
X100905933Y-76184933D01*
X101239266Y-76351600D02*
X101772600Y-76351600D01*
X102039266Y-76151600D02*
X102405933Y-76151600D01*
X102039266Y-76618266D01*
X102405933Y-76618266D01*
X102972600Y-76151600D02*
X102972600Y-76618266D01*
X102672600Y-76151600D02*
X102672600Y-76518266D01*
X102705933Y-76584933D01*
X102772600Y-76618266D01*
X102872600Y-76618266D01*
X102939266Y-76584933D01*
X102972600Y-76551600D01*
X103305933Y-76618266D02*
X103305933Y-75918266D01*
X103605933Y-76618266D02*
X103605933Y-76251600D01*
X103572600Y-76184933D01*
X103505933Y-76151600D01*
X103405933Y-76151600D01*
X103339266Y-76184933D01*
X103305933Y-76218266D01*
X104239266Y-76618266D02*
X104239266Y-76251600D01*
X104205933Y-76184933D01*
X104139266Y-76151600D01*
X104005933Y-76151600D01*
X103939266Y-76184933D01*
X104239266Y-76584933D02*
X104172600Y-76618266D01*
X104005933Y-76618266D01*
X103939266Y-76584933D01*
X103905933Y-76518266D01*
X103905933Y-76451600D01*
X103939266Y-76384933D01*
X104005933Y-76351600D01*
X104172600Y-76351600D01*
X104239266Y-76318266D01*
X104872600Y-76151600D02*
X104872600Y-76618266D01*
X104572600Y-76151600D02*
X104572600Y-76518266D01*
X104605933Y-76584933D01*
X104672600Y-76618266D01*
X104772600Y-76618266D01*
X104839266Y-76584933D01*
X104872600Y-76551600D01*
X105172600Y-76584933D02*
X105239266Y-76618266D01*
X105372600Y-76618266D01*
X105439266Y-76584933D01*
X105472600Y-76518266D01*
X105472600Y-76484933D01*
X105439266Y-76418266D01*
X105372600Y-76384933D01*
X105272600Y-76384933D01*
X105205933Y-76351600D01*
X105172600Y-76284933D01*
X105172600Y-76251600D01*
X105205933Y-76184933D01*
X105272600Y-76151600D01*
X105372600Y-76151600D01*
X105439266Y-76184933D01*
X106039266Y-76584933D02*
X105972600Y-76618266D01*
X105839266Y-76618266D01*
X105772600Y-76584933D01*
X105739266Y-76518266D01*
X105739266Y-76251600D01*
X105772600Y-76184933D01*
X105839266Y-76151600D01*
X105972600Y-76151600D01*
X106039266Y-76184933D01*
X106072600Y-76251600D01*
X106072600Y-76318266D01*
X105739266Y-76384933D01*
X106372600Y-76551600D02*
X106405933Y-76584933D01*
X106372600Y-76618266D01*
X106339266Y-76584933D01*
X106372600Y-76551600D01*
X106372600Y-76618266D01*
X107005933Y-76618266D02*
X107005933Y-75918266D01*
X107005933Y-76584933D02*
X106939266Y-76618266D01*
X106805933Y-76618266D01*
X106739266Y-76584933D01*
X106705933Y-76551600D01*
X106672600Y-76484933D01*
X106672600Y-76284933D01*
X106705933Y-76218266D01*
X106739266Y-76184933D01*
X106805933Y-76151600D01*
X106939266Y-76151600D01*
X107005933Y-76184933D01*
X107605933Y-76584933D02*
X107539266Y-76618266D01*
X107405933Y-76618266D01*
X107339266Y-76584933D01*
X107305933Y-76518266D01*
X107305933Y-76251600D01*
X107339266Y-76184933D01*
X107405933Y-76151600D01*
X107539266Y-76151600D01*
X107605933Y-76184933D01*
X107639266Y-76251600D01*
X107639266Y-76318266D01*
X107305933Y-76384933D01*
D11*
X91006742Y-75473571D02*
X90649600Y-75473571D01*
X90649600Y-73330714D01*
X91006742Y-73330714D01*
X92292457Y-74973571D02*
X91578171Y-74973571D01*
X91578171Y-73473571D01*
X93078171Y-73473571D02*
X93363885Y-73473571D01*
X93506742Y-73545000D01*
X93649600Y-73687857D01*
X93721028Y-73973571D01*
X93721028Y-74473571D01*
X93649600Y-74759285D01*
X93506742Y-74902142D01*
X93363885Y-74973571D01*
X93078171Y-74973571D01*
X92935314Y-74902142D01*
X92792457Y-74759285D01*
X92721028Y-74473571D01*
X92721028Y-73973571D01*
X92792457Y-73687857D01*
X92935314Y-73545000D01*
X93078171Y-73473571D01*
X94221028Y-73473571D02*
X95221028Y-74973571D01*
X95221028Y-73473571D02*
X94221028Y-74973571D01*
X95792457Y-74973571D02*
X95792457Y-73473571D01*
X95935314Y-74402142D02*
X96363885Y-74973571D01*
X96363885Y-73973571D02*
X95792457Y-74545000D01*
X97578171Y-74902142D02*
X97435314Y-74973571D01*
X97149600Y-74973571D01*
X97006742Y-74902142D01*
X96935314Y-74759285D01*
X96935314Y-74187857D01*
X97006742Y-74045000D01*
X97149600Y-73973571D01*
X97435314Y-73973571D01*
X97578171Y-74045000D01*
X97649600Y-74187857D01*
X97649600Y-74330714D01*
X96935314Y-74473571D01*
X98149600Y-73973571D02*
X98506742Y-74973571D01*
X98863885Y-73973571D02*
X98506742Y-74973571D01*
X98363885Y-75330714D01*
X98292457Y-75402142D01*
X98149600Y-75473571D01*
X99363885Y-74902142D02*
X99506742Y-74973571D01*
X99792457Y-74973571D01*
X99935314Y-74902142D01*
X100006742Y-74759285D01*
X100006742Y-74687857D01*
X99935314Y-74545000D01*
X99792457Y-74473571D01*
X99578171Y-74473571D01*
X99435314Y-74402142D01*
X99363885Y-74259285D01*
X99363885Y-74187857D01*
X99435314Y-74045000D01*
X99578171Y-73973571D01*
X99792457Y-73973571D01*
X99935314Y-74045000D01*
X100649600Y-74830714D02*
X100721028Y-74902142D01*
X100649600Y-74973571D01*
X100578171Y-74902142D01*
X100649600Y-74830714D01*
X100649600Y-74973571D01*
X100649600Y-74402142D02*
X100578171Y-73545000D01*
X100649600Y-73473571D01*
X100721028Y-73545000D01*
X100649600Y-74402142D01*
X100649600Y-73473571D01*
X101221028Y-75473571D02*
X101578171Y-75473571D01*
X101578171Y-73330714D01*
X101221028Y-73330714D01*
X103292457Y-73473571D02*
X103792457Y-74973571D01*
X104292457Y-73473571D01*
X104792457Y-74830714D02*
X104863885Y-74902142D01*
X104792457Y-74973571D01*
X104721028Y-74902142D01*
X104792457Y-74830714D01*
X104792457Y-74973571D01*
X105435314Y-73616428D02*
X105506742Y-73545000D01*
X105649600Y-73473571D01*
X106006742Y-73473571D01*
X106149600Y-73545000D01*
X106221028Y-73616428D01*
X106292457Y-73759285D01*
X106292457Y-73902142D01*
X106221028Y-74116428D01*
X105363885Y-74973571D01*
X106292457Y-74973571D01*
D12*
X115824000Y-61480095D02*
X115848190Y-61431714D01*
X115848190Y-61359142D01*
X115824000Y-61286571D01*
X115775619Y-61238190D01*
X115727238Y-61214000D01*
X115630476Y-61189809D01*
X115557904Y-61189809D01*
X115461142Y-61214000D01*
X115412761Y-61238190D01*
X115364380Y-61286571D01*
X115340190Y-61359142D01*
X115340190Y-61407523D01*
X115364380Y-61480095D01*
X115388571Y-61504285D01*
X115557904Y-61504285D01*
X115557904Y-61407523D01*
X115340190Y-61722000D02*
X115848190Y-61722000D01*
X115848190Y-61915523D01*
X115824000Y-61963904D01*
X115799809Y-61988095D01*
X115751428Y-62012285D01*
X115678857Y-62012285D01*
X115630476Y-61988095D01*
X115606285Y-61963904D01*
X115582095Y-61915523D01*
X115582095Y-61722000D01*
X115340190Y-62230000D02*
X115848190Y-62230000D01*
X115848190Y-62568666D02*
X115848190Y-62665428D01*
X115824000Y-62713809D01*
X115775619Y-62762190D01*
X115678857Y-62786380D01*
X115509523Y-62786380D01*
X115412761Y-62762190D01*
X115364380Y-62713809D01*
X115340190Y-62665428D01*
X115340190Y-62568666D01*
X115364380Y-62520285D01*
X115412761Y-62471904D01*
X115509523Y-62447714D01*
X115678857Y-62447714D01*
X115775619Y-62471904D01*
X115824000Y-62520285D01*
X115848190Y-62568666D01*
X115678857Y-63221809D02*
X115340190Y-63221809D01*
X115872380Y-63100857D02*
X115509523Y-62979904D01*
X115509523Y-63294380D01*
X133250214Y-61334952D02*
X133250214Y-61722000D01*
X133056690Y-61528476D02*
X133443738Y-61528476D01*
X133564690Y-61915523D02*
X133564690Y-62230000D01*
X133371166Y-62060666D01*
X133371166Y-62133238D01*
X133346976Y-62181619D01*
X133322785Y-62205809D01*
X133274404Y-62230000D01*
X133153452Y-62230000D01*
X133105071Y-62205809D01*
X133080880Y-62181619D01*
X133056690Y-62133238D01*
X133056690Y-61988095D01*
X133080880Y-61939714D01*
X133105071Y-61915523D01*
X133564690Y-62375142D02*
X133056690Y-62544476D01*
X133564690Y-62713809D01*
X133564690Y-62834761D02*
X133564690Y-63149238D01*
X133371166Y-62979904D01*
X133371166Y-63052476D01*
X133346976Y-63100857D01*
X133322785Y-63125047D01*
X133274404Y-63149238D01*
X133153452Y-63149238D01*
X133105071Y-63125047D01*
X133080880Y-63100857D01*
X133056690Y-63052476D01*
X133056690Y-62907333D01*
X133080880Y-62858952D01*
X133105071Y-62834761D01*
X131000500Y-61842952D02*
X131024690Y-61794571D01*
X131024690Y-61722000D01*
X131000500Y-61649428D01*
X130952119Y-61601047D01*
X130903738Y-61576857D01*
X130806976Y-61552666D01*
X130734404Y-61552666D01*
X130637642Y-61576857D01*
X130589261Y-61601047D01*
X130540880Y-61649428D01*
X130516690Y-61722000D01*
X130516690Y-61770380D01*
X130540880Y-61842952D01*
X130565071Y-61867142D01*
X130734404Y-61867142D01*
X130734404Y-61770380D01*
X130516690Y-62084857D02*
X131024690Y-62084857D01*
X130516690Y-62375142D01*
X131024690Y-62375142D01*
X130516690Y-62617047D02*
X131024690Y-62617047D01*
X131024690Y-62738000D01*
X131000500Y-62810571D01*
X130952119Y-62858952D01*
X130903738Y-62883142D01*
X130806976Y-62907333D01*
X130734404Y-62907333D01*
X130637642Y-62883142D01*
X130589261Y-62858952D01*
X130540880Y-62810571D01*
X130516690Y-62738000D01*
X130516690Y-62617047D01*
D13*
X136089571Y-61250285D02*
X136089571Y-61830857D01*
X135799285Y-61540571D02*
X136379857Y-61540571D01*
X136561285Y-62556571D02*
X136561285Y-62193714D01*
X136198428Y-62157428D01*
X136234714Y-62193714D01*
X136271000Y-62266285D01*
X136271000Y-62447714D01*
X136234714Y-62520285D01*
X136198428Y-62556571D01*
X136125857Y-62592857D01*
X135944428Y-62592857D01*
X135871857Y-62556571D01*
X135835571Y-62520285D01*
X135799285Y-62447714D01*
X135799285Y-62266285D01*
X135835571Y-62193714D01*
X135871857Y-62157428D01*
X136561285Y-62810571D02*
X135799285Y-63064571D01*
X136561285Y-63318571D01*
D12*
X120840500Y-61480095D02*
X120864690Y-61431714D01*
X120864690Y-61359142D01*
X120840500Y-61286571D01*
X120792119Y-61238190D01*
X120743738Y-61214000D01*
X120646976Y-61189809D01*
X120574404Y-61189809D01*
X120477642Y-61214000D01*
X120429261Y-61238190D01*
X120380880Y-61286571D01*
X120356690Y-61359142D01*
X120356690Y-61407523D01*
X120380880Y-61480095D01*
X120405071Y-61504285D01*
X120574404Y-61504285D01*
X120574404Y-61407523D01*
X120356690Y-61722000D02*
X120864690Y-61722000D01*
X120864690Y-61915523D01*
X120840500Y-61963904D01*
X120816309Y-61988095D01*
X120767928Y-62012285D01*
X120695357Y-62012285D01*
X120646976Y-61988095D01*
X120622785Y-61963904D01*
X120598595Y-61915523D01*
X120598595Y-61722000D01*
X120356690Y-62230000D02*
X120864690Y-62230000D01*
X120864690Y-62568666D02*
X120864690Y-62665428D01*
X120840500Y-62713809D01*
X120792119Y-62762190D01*
X120695357Y-62786380D01*
X120526023Y-62786380D01*
X120429261Y-62762190D01*
X120380880Y-62713809D01*
X120356690Y-62665428D01*
X120356690Y-62568666D01*
X120380880Y-62520285D01*
X120429261Y-62471904D01*
X120526023Y-62447714D01*
X120695357Y-62447714D01*
X120792119Y-62471904D01*
X120840500Y-62520285D01*
X120864690Y-62568666D01*
X120816309Y-62979904D02*
X120840500Y-63004095D01*
X120864690Y-63052476D01*
X120864690Y-63173428D01*
X120840500Y-63221809D01*
X120816309Y-63246000D01*
X120767928Y-63270190D01*
X120719547Y-63270190D01*
X120646976Y-63246000D01*
X120356690Y-62955714D01*
X120356690Y-63270190D01*
X123380500Y-61480095D02*
X123404690Y-61431714D01*
X123404690Y-61359142D01*
X123380500Y-61286571D01*
X123332119Y-61238190D01*
X123283738Y-61214000D01*
X123186976Y-61189809D01*
X123114404Y-61189809D01*
X123017642Y-61214000D01*
X122969261Y-61238190D01*
X122920880Y-61286571D01*
X122896690Y-61359142D01*
X122896690Y-61407523D01*
X122920880Y-61480095D01*
X122945071Y-61504285D01*
X123114404Y-61504285D01*
X123114404Y-61407523D01*
X122896690Y-61722000D02*
X123404690Y-61722000D01*
X123404690Y-61915523D01*
X123380500Y-61963904D01*
X123356309Y-61988095D01*
X123307928Y-62012285D01*
X123235357Y-62012285D01*
X123186976Y-61988095D01*
X123162785Y-61963904D01*
X123138595Y-61915523D01*
X123138595Y-61722000D01*
X122896690Y-62230000D02*
X123404690Y-62230000D01*
X123404690Y-62568666D02*
X123404690Y-62665428D01*
X123380500Y-62713809D01*
X123332119Y-62762190D01*
X123235357Y-62786380D01*
X123066023Y-62786380D01*
X122969261Y-62762190D01*
X122920880Y-62713809D01*
X122896690Y-62665428D01*
X122896690Y-62568666D01*
X122920880Y-62520285D01*
X122969261Y-62471904D01*
X123066023Y-62447714D01*
X123235357Y-62447714D01*
X123332119Y-62471904D01*
X123380500Y-62520285D01*
X123404690Y-62568666D01*
X122896690Y-63270190D02*
X122896690Y-62979904D01*
X122896690Y-63125047D02*
X123404690Y-63125047D01*
X123332119Y-63076666D01*
X123283738Y-63028285D01*
X123259547Y-62979904D01*
X118300500Y-61480095D02*
X118324690Y-61431714D01*
X118324690Y-61359142D01*
X118300500Y-61286571D01*
X118252119Y-61238190D01*
X118203738Y-61214000D01*
X118106976Y-61189809D01*
X118034404Y-61189809D01*
X117937642Y-61214000D01*
X117889261Y-61238190D01*
X117840880Y-61286571D01*
X117816690Y-61359142D01*
X117816690Y-61407523D01*
X117840880Y-61480095D01*
X117865071Y-61504285D01*
X118034404Y-61504285D01*
X118034404Y-61407523D01*
X117816690Y-61722000D02*
X118324690Y-61722000D01*
X118324690Y-61915523D01*
X118300500Y-61963904D01*
X118276309Y-61988095D01*
X118227928Y-62012285D01*
X118155357Y-62012285D01*
X118106976Y-61988095D01*
X118082785Y-61963904D01*
X118058595Y-61915523D01*
X118058595Y-61722000D01*
X117816690Y-62230000D02*
X118324690Y-62230000D01*
X118324690Y-62568666D02*
X118324690Y-62665428D01*
X118300500Y-62713809D01*
X118252119Y-62762190D01*
X118155357Y-62786380D01*
X117986023Y-62786380D01*
X117889261Y-62762190D01*
X117840880Y-62713809D01*
X117816690Y-62665428D01*
X117816690Y-62568666D01*
X117840880Y-62520285D01*
X117889261Y-62471904D01*
X117986023Y-62447714D01*
X118155357Y-62447714D01*
X118252119Y-62471904D01*
X118300500Y-62520285D01*
X118324690Y-62568666D01*
X118324690Y-62955714D02*
X118324690Y-63270190D01*
X118131166Y-63100857D01*
X118131166Y-63173428D01*
X118106976Y-63221809D01*
X118082785Y-63246000D01*
X118034404Y-63270190D01*
X117913452Y-63270190D01*
X117865071Y-63246000D01*
X117840880Y-63221809D01*
X117816690Y-63173428D01*
X117816690Y-63028285D01*
X117840880Y-62979904D01*
X117865071Y-62955714D01*
D14*
X133918476Y-64243857D02*
X133918476Y-63518142D01*
X133918476Y-63881000D02*
X135188476Y-63881000D01*
X135007047Y-63760047D01*
X134886095Y-63639095D01*
X134825619Y-63518142D01*
D12*
X125920500Y-61480095D02*
X125944690Y-61431714D01*
X125944690Y-61359142D01*
X125920500Y-61286571D01*
X125872119Y-61238190D01*
X125823738Y-61214000D01*
X125726976Y-61189809D01*
X125654404Y-61189809D01*
X125557642Y-61214000D01*
X125509261Y-61238190D01*
X125460880Y-61286571D01*
X125436690Y-61359142D01*
X125436690Y-61407523D01*
X125460880Y-61480095D01*
X125485071Y-61504285D01*
X125654404Y-61504285D01*
X125654404Y-61407523D01*
X125436690Y-61722000D02*
X125944690Y-61722000D01*
X125944690Y-61915523D01*
X125920500Y-61963904D01*
X125896309Y-61988095D01*
X125847928Y-62012285D01*
X125775357Y-62012285D01*
X125726976Y-61988095D01*
X125702785Y-61963904D01*
X125678595Y-61915523D01*
X125678595Y-61722000D01*
X125436690Y-62230000D02*
X125944690Y-62230000D01*
X125944690Y-62568666D02*
X125944690Y-62665428D01*
X125920500Y-62713809D01*
X125872119Y-62762190D01*
X125775357Y-62786380D01*
X125606023Y-62786380D01*
X125509261Y-62762190D01*
X125460880Y-62713809D01*
X125436690Y-62665428D01*
X125436690Y-62568666D01*
X125460880Y-62520285D01*
X125509261Y-62471904D01*
X125606023Y-62447714D01*
X125775357Y-62447714D01*
X125872119Y-62471904D01*
X125920500Y-62520285D01*
X125944690Y-62568666D01*
X125944690Y-63100857D02*
X125944690Y-63149238D01*
X125920500Y-63197619D01*
X125896309Y-63221809D01*
X125847928Y-63246000D01*
X125751166Y-63270190D01*
X125630214Y-63270190D01*
X125533452Y-63246000D01*
X125485071Y-63221809D01*
X125460880Y-63197619D01*
X125436690Y-63149238D01*
X125436690Y-63100857D01*
X125460880Y-63052476D01*
X125485071Y-63028285D01*
X125533452Y-63004095D01*
X125630214Y-62979904D01*
X125751166Y-62979904D01*
X125847928Y-63004095D01*
X125896309Y-63028285D01*
X125920500Y-63052476D01*
X125944690Y-63100857D01*
X113220500Y-61480095D02*
X113244690Y-61431714D01*
X113244690Y-61359142D01*
X113220500Y-61286571D01*
X113172119Y-61238190D01*
X113123738Y-61214000D01*
X113026976Y-61189809D01*
X112954404Y-61189809D01*
X112857642Y-61214000D01*
X112809261Y-61238190D01*
X112760880Y-61286571D01*
X112736690Y-61359142D01*
X112736690Y-61407523D01*
X112760880Y-61480095D01*
X112785071Y-61504285D01*
X112954404Y-61504285D01*
X112954404Y-61407523D01*
X112736690Y-61722000D02*
X113244690Y-61722000D01*
X113244690Y-61915523D01*
X113220500Y-61963904D01*
X113196309Y-61988095D01*
X113147928Y-62012285D01*
X113075357Y-62012285D01*
X113026976Y-61988095D01*
X113002785Y-61963904D01*
X112978595Y-61915523D01*
X112978595Y-61722000D01*
X112736690Y-62230000D02*
X113244690Y-62230000D01*
X113244690Y-62568666D02*
X113244690Y-62665428D01*
X113220500Y-62713809D01*
X113172119Y-62762190D01*
X113075357Y-62786380D01*
X112906023Y-62786380D01*
X112809261Y-62762190D01*
X112760880Y-62713809D01*
X112736690Y-62665428D01*
X112736690Y-62568666D01*
X112760880Y-62520285D01*
X112809261Y-62471904D01*
X112906023Y-62447714D01*
X113075357Y-62447714D01*
X113172119Y-62471904D01*
X113220500Y-62520285D01*
X113244690Y-62568666D01*
X113244690Y-63246000D02*
X113244690Y-63004095D01*
X113002785Y-62979904D01*
X113026976Y-63004095D01*
X113051166Y-63052476D01*
X113051166Y-63173428D01*
X113026976Y-63221809D01*
X113002785Y-63246000D01*
X112954404Y-63270190D01*
X112833452Y-63270190D01*
X112785071Y-63246000D01*
X112760880Y-63221809D01*
X112736690Y-63173428D01*
X112736690Y-63052476D01*
X112760880Y-63004095D01*
X112785071Y-62979904D01*
X128242785Y-61189809D02*
X128242785Y-61359142D01*
X127976690Y-61431714D02*
X127976690Y-61189809D01*
X128484690Y-61189809D01*
X128484690Y-61431714D01*
X128000880Y-61625238D02*
X127976690Y-61697809D01*
X127976690Y-61818761D01*
X128000880Y-61867142D01*
X128025071Y-61891333D01*
X128073452Y-61915523D01*
X128121833Y-61915523D01*
X128170214Y-61891333D01*
X128194404Y-61867142D01*
X128218595Y-61818761D01*
X128242785Y-61722000D01*
X128266976Y-61673619D01*
X128291166Y-61649428D01*
X128339547Y-61625238D01*
X128387928Y-61625238D01*
X128436309Y-61649428D01*
X128460500Y-61673619D01*
X128484690Y-61722000D01*
X128484690Y-61842952D01*
X128460500Y-61915523D01*
X127976690Y-62133238D02*
X128484690Y-62133238D01*
X128484690Y-62326761D01*
X128460500Y-62375142D01*
X128436309Y-62399333D01*
X128387928Y-62423523D01*
X128315357Y-62423523D01*
X128266976Y-62399333D01*
X128242785Y-62375142D01*
X128218595Y-62326761D01*
X128218595Y-62133238D01*
X127928309Y-62520285D02*
X127928309Y-62907333D01*
X128242785Y-63028285D02*
X128242785Y-63197619D01*
X127976690Y-63270190D02*
X127976690Y-63028285D01*
X128484690Y-63028285D01*
X128484690Y-63270190D01*
X127976690Y-63487904D02*
X128484690Y-63487904D01*
X127976690Y-63778190D01*
X128484690Y-63778190D01*
X133540500Y-86904285D02*
X133564690Y-86855904D01*
X133564690Y-86783333D01*
X133540500Y-86710761D01*
X133492119Y-86662380D01*
X133443738Y-86638190D01*
X133346976Y-86614000D01*
X133274404Y-86614000D01*
X133177642Y-86638190D01*
X133129261Y-86662380D01*
X133080880Y-86710761D01*
X133056690Y-86783333D01*
X133056690Y-86831714D01*
X133080880Y-86904285D01*
X133105071Y-86928476D01*
X133274404Y-86928476D01*
X133274404Y-86831714D01*
X133056690Y-87146190D02*
X133564690Y-87146190D01*
X133564690Y-87339714D01*
X133540500Y-87388095D01*
X133516309Y-87412285D01*
X133467928Y-87436476D01*
X133395357Y-87436476D01*
X133346976Y-87412285D01*
X133322785Y-87388095D01*
X133298595Y-87339714D01*
X133298595Y-87146190D01*
X133056690Y-87654190D02*
X133564690Y-87654190D01*
X133564690Y-87847714D02*
X133564690Y-88162190D01*
X133371166Y-87992857D01*
X133371166Y-88065428D01*
X133346976Y-88113809D01*
X133322785Y-88138000D01*
X133274404Y-88162190D01*
X133153452Y-88162190D01*
X133105071Y-88138000D01*
X133080880Y-88113809D01*
X133056690Y-88065428D01*
X133056690Y-87920285D01*
X133080880Y-87871904D01*
X133105071Y-87847714D01*
X133564690Y-88597619D02*
X133564690Y-88500857D01*
X133540500Y-88452476D01*
X133516309Y-88428285D01*
X133443738Y-88379904D01*
X133346976Y-88355714D01*
X133153452Y-88355714D01*
X133105071Y-88379904D01*
X133080880Y-88404095D01*
X133056690Y-88452476D01*
X133056690Y-88549238D01*
X133080880Y-88597619D01*
X133105071Y-88621809D01*
X133153452Y-88646000D01*
X133274404Y-88646000D01*
X133322785Y-88621809D01*
X133346976Y-88597619D01*
X133371166Y-88549238D01*
X133371166Y-88452476D01*
X133346976Y-88404095D01*
X133322785Y-88379904D01*
X133274404Y-88355714D01*
D14*
X133918476Y-86341857D02*
X133918476Y-85616142D01*
X133918476Y-85979000D02*
X135188476Y-85979000D01*
X135007047Y-85858047D01*
X134886095Y-85737095D01*
X134825619Y-85616142D01*
D12*
X128460500Y-86904285D02*
X128484690Y-86855904D01*
X128484690Y-86783333D01*
X128460500Y-86710761D01*
X128412119Y-86662380D01*
X128363738Y-86638190D01*
X128266976Y-86614000D01*
X128194404Y-86614000D01*
X128097642Y-86638190D01*
X128049261Y-86662380D01*
X128000880Y-86710761D01*
X127976690Y-86783333D01*
X127976690Y-86831714D01*
X128000880Y-86904285D01*
X128025071Y-86928476D01*
X128194404Y-86928476D01*
X128194404Y-86831714D01*
X127976690Y-87146190D02*
X128484690Y-87146190D01*
X128484690Y-87339714D01*
X128460500Y-87388095D01*
X128436309Y-87412285D01*
X128387928Y-87436476D01*
X128315357Y-87436476D01*
X128266976Y-87412285D01*
X128242785Y-87388095D01*
X128218595Y-87339714D01*
X128218595Y-87146190D01*
X127976690Y-87654190D02*
X128484690Y-87654190D01*
X128484690Y-87847714D02*
X128484690Y-88162190D01*
X128291166Y-87992857D01*
X128291166Y-88065428D01*
X128266976Y-88113809D01*
X128242785Y-88138000D01*
X128194404Y-88162190D01*
X128073452Y-88162190D01*
X128025071Y-88138000D01*
X128000880Y-88113809D01*
X127976690Y-88065428D01*
X127976690Y-87920285D01*
X128000880Y-87871904D01*
X128025071Y-87847714D01*
X128315357Y-88597619D02*
X127976690Y-88597619D01*
X128508880Y-88476666D02*
X128146023Y-88355714D01*
X128146023Y-88670190D01*
X113220500Y-86447690D02*
X113244690Y-86399309D01*
X113244690Y-86326738D01*
X113220500Y-86254166D01*
X113172119Y-86205785D01*
X113123738Y-86181595D01*
X113026976Y-86157404D01*
X112954404Y-86157404D01*
X112857642Y-86181595D01*
X112809261Y-86205785D01*
X112760880Y-86254166D01*
X112736690Y-86326738D01*
X112736690Y-86375119D01*
X112760880Y-86447690D01*
X112785071Y-86471880D01*
X112954404Y-86471880D01*
X112954404Y-86375119D01*
X112736690Y-86689595D02*
X113244690Y-86689595D01*
X113244690Y-86883119D01*
X113220500Y-86931500D01*
X113196309Y-86955690D01*
X113147928Y-86979880D01*
X113075357Y-86979880D01*
X113026976Y-86955690D01*
X113002785Y-86931500D01*
X112978595Y-86883119D01*
X112978595Y-86689595D01*
X112736690Y-87197595D02*
X113244690Y-87197595D01*
X113244690Y-87536261D02*
X113244690Y-87633023D01*
X113220500Y-87681404D01*
X113172119Y-87729785D01*
X113075357Y-87753976D01*
X112906023Y-87753976D01*
X112809261Y-87729785D01*
X112760880Y-87681404D01*
X112736690Y-87633023D01*
X112736690Y-87536261D01*
X112760880Y-87487880D01*
X112809261Y-87439500D01*
X112906023Y-87415309D01*
X113075357Y-87415309D01*
X113172119Y-87439500D01*
X113220500Y-87487880D01*
X113244690Y-87536261D01*
X112736690Y-88237785D02*
X112736690Y-87947500D01*
X112736690Y-88092642D02*
X113244690Y-88092642D01*
X113172119Y-88044261D01*
X113123738Y-87995880D01*
X113099547Y-87947500D01*
X113244690Y-88407119D02*
X113244690Y-88721595D01*
X113051166Y-88552261D01*
X113051166Y-88624833D01*
X113026976Y-88673214D01*
X113002785Y-88697404D01*
X112954404Y-88721595D01*
X112833452Y-88721595D01*
X112785071Y-88697404D01*
X112760880Y-88673214D01*
X112736690Y-88624833D01*
X112736690Y-88479690D01*
X112760880Y-88431309D01*
X112785071Y-88407119D01*
X120840500Y-86447690D02*
X120864690Y-86399309D01*
X120864690Y-86326738D01*
X120840500Y-86254166D01*
X120792119Y-86205785D01*
X120743738Y-86181595D01*
X120646976Y-86157404D01*
X120574404Y-86157404D01*
X120477642Y-86181595D01*
X120429261Y-86205785D01*
X120380880Y-86254166D01*
X120356690Y-86326738D01*
X120356690Y-86375119D01*
X120380880Y-86447690D01*
X120405071Y-86471880D01*
X120574404Y-86471880D01*
X120574404Y-86375119D01*
X120356690Y-86689595D02*
X120864690Y-86689595D01*
X120864690Y-86883119D01*
X120840500Y-86931500D01*
X120816309Y-86955690D01*
X120767928Y-86979880D01*
X120695357Y-86979880D01*
X120646976Y-86955690D01*
X120622785Y-86931500D01*
X120598595Y-86883119D01*
X120598595Y-86689595D01*
X120356690Y-87197595D02*
X120864690Y-87197595D01*
X120864690Y-87536261D02*
X120864690Y-87633023D01*
X120840500Y-87681404D01*
X120792119Y-87729785D01*
X120695357Y-87753976D01*
X120526023Y-87753976D01*
X120429261Y-87729785D01*
X120380880Y-87681404D01*
X120356690Y-87633023D01*
X120356690Y-87536261D01*
X120380880Y-87487880D01*
X120429261Y-87439500D01*
X120526023Y-87415309D01*
X120695357Y-87415309D01*
X120792119Y-87439500D01*
X120840500Y-87487880D01*
X120864690Y-87536261D01*
X120356690Y-88237785D02*
X120356690Y-87947500D01*
X120356690Y-88092642D02*
X120864690Y-88092642D01*
X120792119Y-88044261D01*
X120743738Y-87995880D01*
X120719547Y-87947500D01*
X120864690Y-88673214D02*
X120864690Y-88576452D01*
X120840500Y-88528071D01*
X120816309Y-88503880D01*
X120743738Y-88455500D01*
X120646976Y-88431309D01*
X120453452Y-88431309D01*
X120405071Y-88455500D01*
X120380880Y-88479690D01*
X120356690Y-88528071D01*
X120356690Y-88624833D01*
X120380880Y-88673214D01*
X120405071Y-88697404D01*
X120453452Y-88721595D01*
X120574404Y-88721595D01*
X120622785Y-88697404D01*
X120646976Y-88673214D01*
X120671166Y-88624833D01*
X120671166Y-88528071D01*
X120646976Y-88479690D01*
X120622785Y-88455500D01*
X120574404Y-88431309D01*
X125920500Y-86447690D02*
X125944690Y-86399309D01*
X125944690Y-86326738D01*
X125920500Y-86254166D01*
X125872119Y-86205785D01*
X125823738Y-86181595D01*
X125726976Y-86157404D01*
X125654404Y-86157404D01*
X125557642Y-86181595D01*
X125509261Y-86205785D01*
X125460880Y-86254166D01*
X125436690Y-86326738D01*
X125436690Y-86375119D01*
X125460880Y-86447690D01*
X125485071Y-86471880D01*
X125654404Y-86471880D01*
X125654404Y-86375119D01*
X125436690Y-86689595D02*
X125944690Y-86689595D01*
X125944690Y-86883119D01*
X125920500Y-86931500D01*
X125896309Y-86955690D01*
X125847928Y-86979880D01*
X125775357Y-86979880D01*
X125726976Y-86955690D01*
X125702785Y-86931500D01*
X125678595Y-86883119D01*
X125678595Y-86689595D01*
X125436690Y-87197595D02*
X125944690Y-87197595D01*
X125944690Y-87536261D02*
X125944690Y-87633023D01*
X125920500Y-87681404D01*
X125872119Y-87729785D01*
X125775357Y-87753976D01*
X125606023Y-87753976D01*
X125509261Y-87729785D01*
X125460880Y-87681404D01*
X125436690Y-87633023D01*
X125436690Y-87536261D01*
X125460880Y-87487880D01*
X125509261Y-87439500D01*
X125606023Y-87415309D01*
X125775357Y-87415309D01*
X125872119Y-87439500D01*
X125920500Y-87487880D01*
X125944690Y-87536261D01*
X125944690Y-87923309D02*
X125944690Y-88237785D01*
X125751166Y-88068452D01*
X125751166Y-88141023D01*
X125726976Y-88189404D01*
X125702785Y-88213595D01*
X125654404Y-88237785D01*
X125533452Y-88237785D01*
X125485071Y-88213595D01*
X125460880Y-88189404D01*
X125436690Y-88141023D01*
X125436690Y-87995880D01*
X125460880Y-87947500D01*
X125485071Y-87923309D01*
X125944690Y-88407119D02*
X125944690Y-88721595D01*
X125751166Y-88552261D01*
X125751166Y-88624833D01*
X125726976Y-88673214D01*
X125702785Y-88697404D01*
X125654404Y-88721595D01*
X125533452Y-88721595D01*
X125485071Y-88697404D01*
X125460880Y-88673214D01*
X125436690Y-88624833D01*
X125436690Y-88479690D01*
X125460880Y-88431309D01*
X125485071Y-88407119D01*
X118300500Y-86447690D02*
X118324690Y-86399309D01*
X118324690Y-86326738D01*
X118300500Y-86254166D01*
X118252119Y-86205785D01*
X118203738Y-86181595D01*
X118106976Y-86157404D01*
X118034404Y-86157404D01*
X117937642Y-86181595D01*
X117889261Y-86205785D01*
X117840880Y-86254166D01*
X117816690Y-86326738D01*
X117816690Y-86375119D01*
X117840880Y-86447690D01*
X117865071Y-86471880D01*
X118034404Y-86471880D01*
X118034404Y-86375119D01*
X117816690Y-86689595D02*
X118324690Y-86689595D01*
X118324690Y-86883119D01*
X118300500Y-86931500D01*
X118276309Y-86955690D01*
X118227928Y-86979880D01*
X118155357Y-86979880D01*
X118106976Y-86955690D01*
X118082785Y-86931500D01*
X118058595Y-86883119D01*
X118058595Y-86689595D01*
X117816690Y-87197595D02*
X118324690Y-87197595D01*
X118324690Y-87536261D02*
X118324690Y-87633023D01*
X118300500Y-87681404D01*
X118252119Y-87729785D01*
X118155357Y-87753976D01*
X117986023Y-87753976D01*
X117889261Y-87729785D01*
X117840880Y-87681404D01*
X117816690Y-87633023D01*
X117816690Y-87536261D01*
X117840880Y-87487880D01*
X117889261Y-87439500D01*
X117986023Y-87415309D01*
X118155357Y-87415309D01*
X118252119Y-87439500D01*
X118300500Y-87487880D01*
X118324690Y-87536261D01*
X117816690Y-88237785D02*
X117816690Y-87947500D01*
X117816690Y-88092642D02*
X118324690Y-88092642D01*
X118252119Y-88044261D01*
X118203738Y-87995880D01*
X118179547Y-87947500D01*
X118324690Y-88697404D02*
X118324690Y-88455500D01*
X118082785Y-88431309D01*
X118106976Y-88455500D01*
X118131166Y-88503880D01*
X118131166Y-88624833D01*
X118106976Y-88673214D01*
X118082785Y-88697404D01*
X118034404Y-88721595D01*
X117913452Y-88721595D01*
X117865071Y-88697404D01*
X117840880Y-88673214D01*
X117816690Y-88624833D01*
X117816690Y-88503880D01*
X117840880Y-88455500D01*
X117865071Y-88431309D01*
X115760500Y-86447690D02*
X115784690Y-86399309D01*
X115784690Y-86326738D01*
X115760500Y-86254166D01*
X115712119Y-86205785D01*
X115663738Y-86181595D01*
X115566976Y-86157404D01*
X115494404Y-86157404D01*
X115397642Y-86181595D01*
X115349261Y-86205785D01*
X115300880Y-86254166D01*
X115276690Y-86326738D01*
X115276690Y-86375119D01*
X115300880Y-86447690D01*
X115325071Y-86471880D01*
X115494404Y-86471880D01*
X115494404Y-86375119D01*
X115276690Y-86689595D02*
X115784690Y-86689595D01*
X115784690Y-86883119D01*
X115760500Y-86931500D01*
X115736309Y-86955690D01*
X115687928Y-86979880D01*
X115615357Y-86979880D01*
X115566976Y-86955690D01*
X115542785Y-86931500D01*
X115518595Y-86883119D01*
X115518595Y-86689595D01*
X115276690Y-87197595D02*
X115784690Y-87197595D01*
X115784690Y-87536261D02*
X115784690Y-87633023D01*
X115760500Y-87681404D01*
X115712119Y-87729785D01*
X115615357Y-87753976D01*
X115446023Y-87753976D01*
X115349261Y-87729785D01*
X115300880Y-87681404D01*
X115276690Y-87633023D01*
X115276690Y-87536261D01*
X115300880Y-87487880D01*
X115349261Y-87439500D01*
X115446023Y-87415309D01*
X115615357Y-87415309D01*
X115712119Y-87439500D01*
X115760500Y-87487880D01*
X115784690Y-87536261D01*
X115276690Y-88237785D02*
X115276690Y-87947500D01*
X115276690Y-88092642D02*
X115784690Y-88092642D01*
X115712119Y-88044261D01*
X115663738Y-87995880D01*
X115639547Y-87947500D01*
X115615357Y-88673214D02*
X115276690Y-88673214D01*
X115808880Y-88552261D02*
X115446023Y-88431309D01*
X115446023Y-88745785D01*
X123380500Y-86447690D02*
X123404690Y-86399309D01*
X123404690Y-86326738D01*
X123380500Y-86254166D01*
X123332119Y-86205785D01*
X123283738Y-86181595D01*
X123186976Y-86157404D01*
X123114404Y-86157404D01*
X123017642Y-86181595D01*
X122969261Y-86205785D01*
X122920880Y-86254166D01*
X122896690Y-86326738D01*
X122896690Y-86375119D01*
X122920880Y-86447690D01*
X122945071Y-86471880D01*
X123114404Y-86471880D01*
X123114404Y-86375119D01*
X122896690Y-86689595D02*
X123404690Y-86689595D01*
X123404690Y-86883119D01*
X123380500Y-86931500D01*
X123356309Y-86955690D01*
X123307928Y-86979880D01*
X123235357Y-86979880D01*
X123186976Y-86955690D01*
X123162785Y-86931500D01*
X123138595Y-86883119D01*
X123138595Y-86689595D01*
X122896690Y-87197595D02*
X123404690Y-87197595D01*
X123404690Y-87536261D02*
X123404690Y-87633023D01*
X123380500Y-87681404D01*
X123332119Y-87729785D01*
X123235357Y-87753976D01*
X123066023Y-87753976D01*
X122969261Y-87729785D01*
X122920880Y-87681404D01*
X122896690Y-87633023D01*
X122896690Y-87536261D01*
X122920880Y-87487880D01*
X122969261Y-87439500D01*
X123066023Y-87415309D01*
X123235357Y-87415309D01*
X123332119Y-87439500D01*
X123380500Y-87487880D01*
X123404690Y-87536261D01*
X123404690Y-87923309D02*
X123404690Y-88237785D01*
X123211166Y-88068452D01*
X123211166Y-88141023D01*
X123186976Y-88189404D01*
X123162785Y-88213595D01*
X123114404Y-88237785D01*
X122993452Y-88237785D01*
X122945071Y-88213595D01*
X122920880Y-88189404D01*
X122896690Y-88141023D01*
X122896690Y-87995880D01*
X122920880Y-87947500D01*
X122945071Y-87923309D01*
X123356309Y-88431309D02*
X123380500Y-88455500D01*
X123404690Y-88503880D01*
X123404690Y-88624833D01*
X123380500Y-88673214D01*
X123356309Y-88697404D01*
X123307928Y-88721595D01*
X123259547Y-88721595D01*
X123186976Y-88697404D01*
X122896690Y-88407119D01*
X122896690Y-88721595D01*
X131000500Y-86904285D02*
X131024690Y-86855904D01*
X131024690Y-86783333D01*
X131000500Y-86710761D01*
X130952119Y-86662380D01*
X130903738Y-86638190D01*
X130806976Y-86614000D01*
X130734404Y-86614000D01*
X130637642Y-86638190D01*
X130589261Y-86662380D01*
X130540880Y-86710761D01*
X130516690Y-86783333D01*
X130516690Y-86831714D01*
X130540880Y-86904285D01*
X130565071Y-86928476D01*
X130734404Y-86928476D01*
X130734404Y-86831714D01*
X130516690Y-87146190D02*
X131024690Y-87146190D01*
X131024690Y-87339714D01*
X131000500Y-87388095D01*
X130976309Y-87412285D01*
X130927928Y-87436476D01*
X130855357Y-87436476D01*
X130806976Y-87412285D01*
X130782785Y-87388095D01*
X130758595Y-87339714D01*
X130758595Y-87146190D01*
X130516690Y-87654190D02*
X131024690Y-87654190D01*
X131024690Y-87847714D02*
X131024690Y-88162190D01*
X130831166Y-87992857D01*
X130831166Y-88065428D01*
X130806976Y-88113809D01*
X130782785Y-88138000D01*
X130734404Y-88162190D01*
X130613452Y-88162190D01*
X130565071Y-88138000D01*
X130540880Y-88113809D01*
X130516690Y-88065428D01*
X130516690Y-87920285D01*
X130540880Y-87871904D01*
X130565071Y-87847714D01*
X131024690Y-88621809D02*
X131024690Y-88379904D01*
X130782785Y-88355714D01*
X130806976Y-88379904D01*
X130831166Y-88428285D01*
X130831166Y-88549238D01*
X130806976Y-88597619D01*
X130782785Y-88621809D01*
X130734404Y-88646000D01*
X130613452Y-88646000D01*
X130565071Y-88621809D01*
X130540880Y-88597619D01*
X130516690Y-88549238D01*
X130516690Y-88428285D01*
X130540880Y-88379904D01*
X130565071Y-88355714D01*
D13*
X136525000Y-85969928D02*
X136561285Y-85897357D01*
X136561285Y-85788500D01*
X136525000Y-85679642D01*
X136452428Y-85607071D01*
X136379857Y-85570785D01*
X136234714Y-85534500D01*
X136125857Y-85534500D01*
X135980714Y-85570785D01*
X135908142Y-85607071D01*
X135835571Y-85679642D01*
X135799285Y-85788500D01*
X135799285Y-85861071D01*
X135835571Y-85969928D01*
X135871857Y-86006214D01*
X136125857Y-86006214D01*
X136125857Y-85861071D01*
X135799285Y-86332785D02*
X136561285Y-86332785D01*
X136561285Y-86623071D01*
X136525000Y-86695642D01*
X136488714Y-86731928D01*
X136416142Y-86768214D01*
X136307285Y-86768214D01*
X136234714Y-86731928D01*
X136198428Y-86695642D01*
X136162142Y-86623071D01*
X136162142Y-86332785D01*
X135799285Y-87094785D02*
X136561285Y-87094785D01*
X136561285Y-87385071D02*
X136561285Y-87856785D01*
X136271000Y-87602785D01*
X136271000Y-87711642D01*
X136234714Y-87784214D01*
X136198428Y-87820500D01*
X136125857Y-87856785D01*
X135944428Y-87856785D01*
X135871857Y-87820500D01*
X135835571Y-87784214D01*
X135799285Y-87711642D01*
X135799285Y-87493928D01*
X135835571Y-87421357D01*
X135871857Y-87385071D01*
X135799285Y-88219642D02*
X135799285Y-88364785D01*
X135835571Y-88437357D01*
X135871857Y-88473642D01*
X135980714Y-88546214D01*
X136125857Y-88582500D01*
X136416142Y-88582500D01*
X136488714Y-88546214D01*
X136525000Y-88509928D01*
X136561285Y-88437357D01*
X136561285Y-88292214D01*
X136525000Y-88219642D01*
X136488714Y-88183357D01*
X136416142Y-88147071D01*
X136234714Y-88147071D01*
X136162142Y-88183357D01*
X136125857Y-88219642D01*
X136089571Y-88292214D01*
X136089571Y-88437357D01*
X136125857Y-88509928D01*
X136162142Y-88546214D01*
X136234714Y-88582500D01*
D15*
G04 #@! TO.C,J7*
X142540000Y-79180000D02*
X142240000Y-79780000D01*
X141940000Y-79180000D02*
X142540000Y-79180000D01*
X142240000Y-79780000D02*
X141940000Y-79180000D01*
X149990000Y-84480000D02*
X149490000Y-84480000D01*
X149990000Y-89980000D02*
X149990000Y-84480000D01*
X149490000Y-89980000D02*
X149990000Y-89980000D01*
X149490000Y-84480000D02*
X149490000Y-89980000D01*
X147490000Y-84480000D02*
X146990000Y-84480000D01*
X147490000Y-89980000D02*
X147490000Y-84480000D01*
X146990000Y-89980000D02*
X147490000Y-89980000D01*
X146990000Y-84480000D02*
X146990000Y-89980000D01*
X144990000Y-84480000D02*
X144490000Y-84480000D01*
X144990000Y-89980000D02*
X144990000Y-84480000D01*
X144490000Y-89980000D02*
X144990000Y-89980000D01*
X144490000Y-84480000D02*
X144490000Y-89980000D01*
X142490000Y-84480000D02*
X141990000Y-84480000D01*
X142490000Y-89980000D02*
X142490000Y-84480000D01*
X141990000Y-89980000D02*
X142490000Y-89980000D01*
X141990000Y-84480000D02*
X141990000Y-89980000D01*
X150880000Y-83370000D02*
X145990000Y-83370000D01*
X150880000Y-78870000D02*
X150880000Y-83370000D01*
X152300000Y-78870000D02*
X150880000Y-78870000D01*
X152300000Y-90590000D02*
X152300000Y-78870000D01*
X145990000Y-90590000D02*
X152300000Y-90590000D01*
X141100000Y-83370000D02*
X145990000Y-83370000D01*
X141100000Y-78870000D02*
X141100000Y-83370000D01*
X139680000Y-78870000D02*
X141100000Y-78870000D01*
X139680000Y-90590000D02*
X139680000Y-78870000D01*
X145990000Y-90590000D02*
X139680000Y-90590000D01*
G04 #@! TO.C,J10*
X164800000Y-70680000D02*
X165100000Y-70080000D01*
X165400000Y-70680000D02*
X164800000Y-70680000D01*
X165100000Y-70080000D02*
X165400000Y-70680000D01*
X157350000Y-65380000D02*
X157850000Y-65380000D01*
X157350000Y-59880000D02*
X157350000Y-65380000D01*
X157850000Y-59880000D02*
X157350000Y-59880000D01*
X157850000Y-65380000D02*
X157850000Y-59880000D01*
X159850000Y-65380000D02*
X160350000Y-65380000D01*
X159850000Y-59880000D02*
X159850000Y-65380000D01*
X160350000Y-59880000D02*
X159850000Y-59880000D01*
X160350000Y-65380000D02*
X160350000Y-59880000D01*
X162350000Y-65380000D02*
X162850000Y-65380000D01*
X162350000Y-59880000D02*
X162350000Y-65380000D01*
X162850000Y-59880000D02*
X162350000Y-59880000D01*
X162850000Y-65380000D02*
X162850000Y-59880000D01*
X164850000Y-65380000D02*
X165350000Y-65380000D01*
X164850000Y-59880000D02*
X164850000Y-65380000D01*
X165350000Y-59880000D02*
X164850000Y-59880000D01*
X165350000Y-65380000D02*
X165350000Y-59880000D01*
X156460000Y-66490000D02*
X161350000Y-66490000D01*
X156460000Y-70990000D02*
X156460000Y-66490000D01*
X155040000Y-70990000D02*
X156460000Y-70990000D01*
X155040000Y-59270000D02*
X155040000Y-70990000D01*
X161350000Y-59270000D02*
X155040000Y-59270000D01*
X166240000Y-66490000D02*
X161350000Y-66490000D01*
X166240000Y-70990000D02*
X166240000Y-66490000D01*
X167660000Y-70990000D02*
X166240000Y-70990000D01*
X167660000Y-59270000D02*
X167660000Y-70990000D01*
X161350000Y-59270000D02*
X167660000Y-59270000D01*
G04 #@! TO.C,R10*
X117550000Y-68838578D02*
X117550000Y-68321422D01*
X116130000Y-68838578D02*
X116130000Y-68321422D01*
G04 #@! TO.C,R9*
X115057422Y-76402000D02*
X115574578Y-76402000D01*
X115057422Y-74982000D02*
X115574578Y-74982000D01*
G04 #@! TO.C,R8*
X165451022Y-75589200D02*
X165968178Y-75589200D01*
X165451022Y-74169200D02*
X165968178Y-74169200D01*
G04 #@! TO.C,R3*
X137616000Y-76712578D02*
X137616000Y-76195422D01*
X136196000Y-76712578D02*
X136196000Y-76195422D01*
G04 #@! TO.C,R1*
X112470000Y-67314578D02*
X112470000Y-66797422D01*
X111050000Y-67314578D02*
X111050000Y-66797422D01*
G04 #@! TO.C,Q1*
X111704000Y-72388000D02*
X111704000Y-70928000D01*
X114864000Y-72388000D02*
X114864000Y-70228000D01*
X114864000Y-72388000D02*
X113934000Y-72388000D01*
X111704000Y-72388000D02*
X112634000Y-72388000D01*
G04 #@! TO.C,J9*
X149560000Y-70680000D02*
X149860000Y-70080000D01*
X150160000Y-70680000D02*
X149560000Y-70680000D01*
X149860000Y-70080000D02*
X150160000Y-70680000D01*
X142110000Y-65380000D02*
X142610000Y-65380000D01*
X142110000Y-59880000D02*
X142110000Y-65380000D01*
X142610000Y-59880000D02*
X142110000Y-59880000D01*
X142610000Y-65380000D02*
X142610000Y-59880000D01*
X144610000Y-65380000D02*
X145110000Y-65380000D01*
X144610000Y-59880000D02*
X144610000Y-65380000D01*
X145110000Y-59880000D02*
X144610000Y-59880000D01*
X145110000Y-65380000D02*
X145110000Y-59880000D01*
X147110000Y-65380000D02*
X147610000Y-65380000D01*
X147110000Y-59880000D02*
X147110000Y-65380000D01*
X147610000Y-59880000D02*
X147110000Y-59880000D01*
X147610000Y-65380000D02*
X147610000Y-59880000D01*
X149610000Y-65380000D02*
X150110000Y-65380000D01*
X149610000Y-59880000D02*
X149610000Y-65380000D01*
X150110000Y-59880000D02*
X149610000Y-59880000D01*
X150110000Y-65380000D02*
X150110000Y-59880000D01*
X141220000Y-66490000D02*
X146110000Y-66490000D01*
X141220000Y-70990000D02*
X141220000Y-66490000D01*
X139800000Y-70990000D02*
X141220000Y-70990000D01*
X139800000Y-59270000D02*
X139800000Y-70990000D01*
X146110000Y-59270000D02*
X139800000Y-59270000D01*
X151000000Y-66490000D02*
X146110000Y-66490000D01*
X151000000Y-70990000D02*
X151000000Y-66490000D01*
X152420000Y-70990000D02*
X151000000Y-70990000D01*
X152420000Y-59270000D02*
X152420000Y-70990000D01*
X146110000Y-59270000D02*
X152420000Y-59270000D01*
G04 #@! TO.C,J8*
X157780000Y-79180000D02*
X157480000Y-79780000D01*
X157180000Y-79180000D02*
X157780000Y-79180000D01*
X157480000Y-79780000D02*
X157180000Y-79180000D01*
X165230000Y-84480000D02*
X164730000Y-84480000D01*
X165230000Y-89980000D02*
X165230000Y-84480000D01*
X164730000Y-89980000D02*
X165230000Y-89980000D01*
X164730000Y-84480000D02*
X164730000Y-89980000D01*
X162730000Y-84480000D02*
X162230000Y-84480000D01*
X162730000Y-89980000D02*
X162730000Y-84480000D01*
X162230000Y-89980000D02*
X162730000Y-89980000D01*
X162230000Y-84480000D02*
X162230000Y-89980000D01*
X160230000Y-84480000D02*
X159730000Y-84480000D01*
X160230000Y-89980000D02*
X160230000Y-84480000D01*
X159730000Y-89980000D02*
X160230000Y-89980000D01*
X159730000Y-84480000D02*
X159730000Y-89980000D01*
X157730000Y-84480000D02*
X157230000Y-84480000D01*
X157730000Y-89980000D02*
X157730000Y-84480000D01*
X157230000Y-89980000D02*
X157730000Y-89980000D01*
X157230000Y-84480000D02*
X157230000Y-89980000D01*
X166120000Y-83370000D02*
X161230000Y-83370000D01*
X166120000Y-78870000D02*
X166120000Y-83370000D01*
X167540000Y-78870000D02*
X166120000Y-78870000D01*
X167540000Y-90590000D02*
X167540000Y-78870000D01*
X161230000Y-90590000D02*
X167540000Y-90590000D01*
X156340000Y-83370000D02*
X161230000Y-83370000D01*
X156340000Y-78870000D02*
X156340000Y-83370000D01*
X154920000Y-78870000D02*
X156340000Y-78870000D01*
X154920000Y-90590000D02*
X154920000Y-78870000D01*
X161230000Y-90590000D02*
X154920000Y-90590000D01*
G04 #@! TO.C,J6*
X103840000Y-70680000D02*
X104140000Y-70080000D01*
X104440000Y-70680000D02*
X103840000Y-70680000D01*
X104140000Y-70080000D02*
X104440000Y-70680000D01*
X101390000Y-65380000D02*
X101890000Y-65380000D01*
X101390000Y-59880000D02*
X101390000Y-65380000D01*
X101890000Y-59880000D02*
X101390000Y-59880000D01*
X101890000Y-65380000D02*
X101890000Y-59880000D01*
X103890000Y-65380000D02*
X104390000Y-65380000D01*
X103890000Y-59880000D02*
X103890000Y-65380000D01*
X104390000Y-59880000D02*
X103890000Y-59880000D01*
X104390000Y-65380000D02*
X104390000Y-59880000D01*
X100500000Y-66490000D02*
X102890000Y-66490000D01*
X100500000Y-70990000D02*
X100500000Y-66490000D01*
X99080000Y-70990000D02*
X100500000Y-70990000D01*
X99080000Y-59270000D02*
X99080000Y-70990000D01*
X102890000Y-59270000D02*
X99080000Y-59270000D01*
X105280000Y-66490000D02*
X102890000Y-66490000D01*
X105280000Y-70990000D02*
X105280000Y-66490000D01*
X106700000Y-70990000D02*
X105280000Y-70990000D01*
X106700000Y-59270000D02*
X106700000Y-70990000D01*
X102890000Y-59270000D02*
X106700000Y-59270000D01*
G04 #@! TO.C,J5*
X93680000Y-70680000D02*
X93980000Y-70080000D01*
X94280000Y-70680000D02*
X93680000Y-70680000D01*
X93980000Y-70080000D02*
X94280000Y-70680000D01*
X91230000Y-65380000D02*
X91730000Y-65380000D01*
X91230000Y-59880000D02*
X91230000Y-65380000D01*
X91730000Y-59880000D02*
X91230000Y-59880000D01*
X91730000Y-65380000D02*
X91730000Y-59880000D01*
X93730000Y-65380000D02*
X94230000Y-65380000D01*
X93730000Y-59880000D02*
X93730000Y-65380000D01*
X94230000Y-59880000D02*
X93730000Y-59880000D01*
X94230000Y-65380000D02*
X94230000Y-59880000D01*
X90340000Y-66490000D02*
X92730000Y-66490000D01*
X90340000Y-70990000D02*
X90340000Y-66490000D01*
X88920000Y-70990000D02*
X90340000Y-70990000D01*
X88920000Y-59270000D02*
X88920000Y-70990000D01*
X92730000Y-59270000D02*
X88920000Y-59270000D01*
X95120000Y-66490000D02*
X92730000Y-66490000D01*
X95120000Y-70990000D02*
X95120000Y-66490000D01*
X96540000Y-70990000D02*
X95120000Y-70990000D01*
X96540000Y-59270000D02*
X96540000Y-70990000D01*
X92730000Y-59270000D02*
X96540000Y-59270000D01*
G04 #@! TO.C,J4*
X91740000Y-79180000D02*
X91440000Y-79780000D01*
X91140000Y-79180000D02*
X91740000Y-79180000D01*
X91440000Y-79780000D02*
X91140000Y-79180000D01*
X94190000Y-84480000D02*
X93690000Y-84480000D01*
X94190000Y-89980000D02*
X94190000Y-84480000D01*
X93690000Y-89980000D02*
X94190000Y-89980000D01*
X93690000Y-84480000D02*
X93690000Y-89980000D01*
X91690000Y-84480000D02*
X91190000Y-84480000D01*
X91690000Y-89980000D02*
X91690000Y-84480000D01*
X91190000Y-89980000D02*
X91690000Y-89980000D01*
X91190000Y-84480000D02*
X91190000Y-89980000D01*
X95080000Y-83370000D02*
X92690000Y-83370000D01*
X95080000Y-78870000D02*
X95080000Y-83370000D01*
X96500000Y-78870000D02*
X95080000Y-78870000D01*
X96500000Y-90590000D02*
X96500000Y-78870000D01*
X92690000Y-90590000D02*
X96500000Y-90590000D01*
X90300000Y-83370000D02*
X92690000Y-83370000D01*
X90300000Y-78870000D02*
X90300000Y-83370000D01*
X88880000Y-78870000D02*
X90300000Y-78870000D01*
X88880000Y-90590000D02*
X88880000Y-78870000D01*
X92690000Y-90590000D02*
X88880000Y-90590000D01*
G04 #@! TO.C,J3*
X101900000Y-79180000D02*
X101600000Y-79780000D01*
X101300000Y-79180000D02*
X101900000Y-79180000D01*
X101600000Y-79780000D02*
X101300000Y-79180000D01*
X104350000Y-84480000D02*
X103850000Y-84480000D01*
X104350000Y-89980000D02*
X104350000Y-84480000D01*
X103850000Y-89980000D02*
X104350000Y-89980000D01*
X103850000Y-84480000D02*
X103850000Y-89980000D01*
X101850000Y-84480000D02*
X101350000Y-84480000D01*
X101850000Y-89980000D02*
X101850000Y-84480000D01*
X101350000Y-89980000D02*
X101850000Y-89980000D01*
X101350000Y-84480000D02*
X101350000Y-89980000D01*
X105240000Y-83370000D02*
X102850000Y-83370000D01*
X105240000Y-78870000D02*
X105240000Y-83370000D01*
X106660000Y-78870000D02*
X105240000Y-78870000D01*
X106660000Y-90590000D02*
X106660000Y-78870000D01*
X102850000Y-90590000D02*
X106660000Y-90590000D01*
X100460000Y-83370000D02*
X102850000Y-83370000D01*
X100460000Y-78870000D02*
X100460000Y-83370000D01*
X99040000Y-78870000D02*
X100460000Y-78870000D01*
X99040000Y-90590000D02*
X99040000Y-78870000D01*
X102850000Y-90590000D02*
X99040000Y-90590000D01*
G04 #@! TO.C,J2*
X135950000Y-87630000D02*
X135950000Y-88960000D01*
X135950000Y-88960000D02*
X134620000Y-88960000D01*
X133350000Y-88960000D02*
X110430000Y-88960000D01*
X110430000Y-86300000D02*
X110430000Y-88960000D01*
X133350000Y-86300000D02*
X110430000Y-86300000D01*
X133350000Y-86300000D02*
X133350000Y-88960000D01*
G04 #@! TO.C,J1*
X135950000Y-62230000D02*
X135950000Y-63560000D01*
X135950000Y-63560000D02*
X134620000Y-63560000D01*
X133350000Y-63560000D02*
X110430000Y-63560000D01*
X110430000Y-60900000D02*
X110430000Y-63560000D01*
X133350000Y-60900000D02*
X110430000Y-60900000D01*
X133350000Y-60900000D02*
X133350000Y-63560000D01*
G04 #@! TO.C,J7*
D16*
X145656666Y-77232380D02*
X145656666Y-77946666D01*
X145609047Y-78089523D01*
X145513809Y-78184761D01*
X145370952Y-78232380D01*
X145275714Y-78232380D01*
X146037619Y-77232380D02*
X146704285Y-77232380D01*
X146275714Y-78232380D01*
G04 #@! TO.C,J10*
X160540476Y-71532380D02*
X160540476Y-72246666D01*
X160492857Y-72389523D01*
X160397619Y-72484761D01*
X160254761Y-72532380D01*
X160159523Y-72532380D01*
X161540476Y-72532380D02*
X160969047Y-72532380D01*
X161254761Y-72532380D02*
X161254761Y-71532380D01*
X161159523Y-71675238D01*
X161064285Y-71770476D01*
X160969047Y-71818095D01*
X162159523Y-71532380D02*
X162254761Y-71532380D01*
X162350000Y-71580000D01*
X162397619Y-71627619D01*
X162445238Y-71722857D01*
X162492857Y-71913333D01*
X162492857Y-72151428D01*
X162445238Y-72341904D01*
X162397619Y-72437142D01*
X162350000Y-72484761D01*
X162254761Y-72532380D01*
X162159523Y-72532380D01*
X162064285Y-72484761D01*
X162016666Y-72437142D01*
X161969047Y-72341904D01*
X161921428Y-72151428D01*
X161921428Y-71913333D01*
X161969047Y-71722857D01*
X162016666Y-71627619D01*
X162064285Y-71580000D01*
X162159523Y-71532380D01*
G04 #@! TO.C,R10*
X115642380Y-69222857D02*
X115166190Y-69556190D01*
X115642380Y-69794285D02*
X114642380Y-69794285D01*
X114642380Y-69413333D01*
X114690000Y-69318095D01*
X114737619Y-69270476D01*
X114832857Y-69222857D01*
X114975714Y-69222857D01*
X115070952Y-69270476D01*
X115118571Y-69318095D01*
X115166190Y-69413333D01*
X115166190Y-69794285D01*
X115642380Y-68270476D02*
X115642380Y-68841904D01*
X115642380Y-68556190D02*
X114642380Y-68556190D01*
X114785238Y-68651428D01*
X114880476Y-68746666D01*
X114928095Y-68841904D01*
X114642380Y-67651428D02*
X114642380Y-67556190D01*
X114690000Y-67460952D01*
X114737619Y-67413333D01*
X114832857Y-67365714D01*
X115023333Y-67318095D01*
X115261428Y-67318095D01*
X115451904Y-67365714D01*
X115547142Y-67413333D01*
X115594761Y-67460952D01*
X115642380Y-67556190D01*
X115642380Y-67651428D01*
X115594761Y-67746666D01*
X115547142Y-67794285D01*
X115451904Y-67841904D01*
X115261428Y-67889523D01*
X115023333Y-67889523D01*
X114832857Y-67841904D01*
X114737619Y-67794285D01*
X114690000Y-67746666D01*
X114642380Y-67651428D01*
G04 #@! TO.C,R9*
X115149333Y-74494380D02*
X114816000Y-74018190D01*
X114577904Y-74494380D02*
X114577904Y-73494380D01*
X114958857Y-73494380D01*
X115054095Y-73542000D01*
X115101714Y-73589619D01*
X115149333Y-73684857D01*
X115149333Y-73827714D01*
X115101714Y-73922952D01*
X115054095Y-73970571D01*
X114958857Y-74018190D01*
X114577904Y-74018190D01*
X115625523Y-74494380D02*
X115816000Y-74494380D01*
X115911238Y-74446761D01*
X115958857Y-74399142D01*
X116054095Y-74256285D01*
X116101714Y-74065809D01*
X116101714Y-73684857D01*
X116054095Y-73589619D01*
X116006476Y-73542000D01*
X115911238Y-73494380D01*
X115720761Y-73494380D01*
X115625523Y-73542000D01*
X115577904Y-73589619D01*
X115530285Y-73684857D01*
X115530285Y-73922952D01*
X115577904Y-74018190D01*
X115625523Y-74065809D01*
X115720761Y-74113428D01*
X115911238Y-74113428D01*
X116006476Y-74065809D01*
X116054095Y-74018190D01*
X116101714Y-73922952D01*
G04 #@! TO.C,R8*
X165542933Y-73681580D02*
X165209600Y-73205390D01*
X164971504Y-73681580D02*
X164971504Y-72681580D01*
X165352457Y-72681580D01*
X165447695Y-72729200D01*
X165495314Y-72776819D01*
X165542933Y-72872057D01*
X165542933Y-73014914D01*
X165495314Y-73110152D01*
X165447695Y-73157771D01*
X165352457Y-73205390D01*
X164971504Y-73205390D01*
X166114361Y-73110152D02*
X166019123Y-73062533D01*
X165971504Y-73014914D01*
X165923885Y-72919676D01*
X165923885Y-72872057D01*
X165971504Y-72776819D01*
X166019123Y-72729200D01*
X166114361Y-72681580D01*
X166304838Y-72681580D01*
X166400076Y-72729200D01*
X166447695Y-72776819D01*
X166495314Y-72872057D01*
X166495314Y-72919676D01*
X166447695Y-73014914D01*
X166400076Y-73062533D01*
X166304838Y-73110152D01*
X166114361Y-73110152D01*
X166019123Y-73157771D01*
X165971504Y-73205390D01*
X165923885Y-73300628D01*
X165923885Y-73491104D01*
X165971504Y-73586342D01*
X166019123Y-73633961D01*
X166114361Y-73681580D01*
X166304838Y-73681580D01*
X166400076Y-73633961D01*
X166447695Y-73586342D01*
X166495314Y-73491104D01*
X166495314Y-73300628D01*
X166447695Y-73205390D01*
X166400076Y-73157771D01*
X166304838Y-73110152D01*
G04 #@! TO.C,R3*
X135708380Y-76620666D02*
X135232190Y-76954000D01*
X135708380Y-77192095D02*
X134708380Y-77192095D01*
X134708380Y-76811142D01*
X134756000Y-76715904D01*
X134803619Y-76668285D01*
X134898857Y-76620666D01*
X135041714Y-76620666D01*
X135136952Y-76668285D01*
X135184571Y-76715904D01*
X135232190Y-76811142D01*
X135232190Y-77192095D01*
X134708380Y-76287333D02*
X134708380Y-75668285D01*
X135089333Y-76001619D01*
X135089333Y-75858761D01*
X135136952Y-75763523D01*
X135184571Y-75715904D01*
X135279809Y-75668285D01*
X135517904Y-75668285D01*
X135613142Y-75715904D01*
X135660761Y-75763523D01*
X135708380Y-75858761D01*
X135708380Y-76144476D01*
X135660761Y-76239714D01*
X135613142Y-76287333D01*
G04 #@! TO.C,R1*
X110562380Y-67222666D02*
X110086190Y-67556000D01*
X110562380Y-67794095D02*
X109562380Y-67794095D01*
X109562380Y-67413142D01*
X109610000Y-67317904D01*
X109657619Y-67270285D01*
X109752857Y-67222666D01*
X109895714Y-67222666D01*
X109990952Y-67270285D01*
X110038571Y-67317904D01*
X110086190Y-67413142D01*
X110086190Y-67794095D01*
X110562380Y-66270285D02*
X110562380Y-66841714D01*
X110562380Y-66556000D02*
X109562380Y-66556000D01*
X109705238Y-66651238D01*
X109800476Y-66746476D01*
X109848095Y-66841714D01*
G04 #@! TO.C,Q1*
X116331619Y-71723238D02*
X116284000Y-71818476D01*
X116188761Y-71913714D01*
X116045904Y-72056571D01*
X115998285Y-72151809D01*
X115998285Y-72247047D01*
X116236380Y-72199428D02*
X116188761Y-72294666D01*
X116093523Y-72389904D01*
X115903047Y-72437523D01*
X115569714Y-72437523D01*
X115379238Y-72389904D01*
X115284000Y-72294666D01*
X115236380Y-72199428D01*
X115236380Y-72008952D01*
X115284000Y-71913714D01*
X115379238Y-71818476D01*
X115569714Y-71770857D01*
X115903047Y-71770857D01*
X116093523Y-71818476D01*
X116188761Y-71913714D01*
X116236380Y-72008952D01*
X116236380Y-72199428D01*
X116236380Y-70818476D02*
X116236380Y-71389904D01*
X116236380Y-71104190D02*
X115236380Y-71104190D01*
X115379238Y-71199428D01*
X115474476Y-71294666D01*
X115522095Y-71389904D01*
G04 #@! TO.C,J9*
X145776666Y-71532380D02*
X145776666Y-72246666D01*
X145729047Y-72389523D01*
X145633809Y-72484761D01*
X145490952Y-72532380D01*
X145395714Y-72532380D01*
X146300476Y-72532380D02*
X146490952Y-72532380D01*
X146586190Y-72484761D01*
X146633809Y-72437142D01*
X146729047Y-72294285D01*
X146776666Y-72103809D01*
X146776666Y-71722857D01*
X146729047Y-71627619D01*
X146681428Y-71580000D01*
X146586190Y-71532380D01*
X146395714Y-71532380D01*
X146300476Y-71580000D01*
X146252857Y-71627619D01*
X146205238Y-71722857D01*
X146205238Y-71960952D01*
X146252857Y-72056190D01*
X146300476Y-72103809D01*
X146395714Y-72151428D01*
X146586190Y-72151428D01*
X146681428Y-72103809D01*
X146729047Y-72056190D01*
X146776666Y-71960952D01*
G04 #@! TO.C,J8*
X160896666Y-77232380D02*
X160896666Y-77946666D01*
X160849047Y-78089523D01*
X160753809Y-78184761D01*
X160610952Y-78232380D01*
X160515714Y-78232380D01*
X161515714Y-77660952D02*
X161420476Y-77613333D01*
X161372857Y-77565714D01*
X161325238Y-77470476D01*
X161325238Y-77422857D01*
X161372857Y-77327619D01*
X161420476Y-77280000D01*
X161515714Y-77232380D01*
X161706190Y-77232380D01*
X161801428Y-77280000D01*
X161849047Y-77327619D01*
X161896666Y-77422857D01*
X161896666Y-77470476D01*
X161849047Y-77565714D01*
X161801428Y-77613333D01*
X161706190Y-77660952D01*
X161515714Y-77660952D01*
X161420476Y-77708571D01*
X161372857Y-77756190D01*
X161325238Y-77851428D01*
X161325238Y-78041904D01*
X161372857Y-78137142D01*
X161420476Y-78184761D01*
X161515714Y-78232380D01*
X161706190Y-78232380D01*
X161801428Y-78184761D01*
X161849047Y-78137142D01*
X161896666Y-78041904D01*
X161896666Y-77851428D01*
X161849047Y-77756190D01*
X161801428Y-77708571D01*
X161706190Y-77660952D01*
G04 #@! TO.C,J6*
X102556666Y-71532380D02*
X102556666Y-72246666D01*
X102509047Y-72389523D01*
X102413809Y-72484761D01*
X102270952Y-72532380D01*
X102175714Y-72532380D01*
X103461428Y-71532380D02*
X103270952Y-71532380D01*
X103175714Y-71580000D01*
X103128095Y-71627619D01*
X103032857Y-71770476D01*
X102985238Y-71960952D01*
X102985238Y-72341904D01*
X103032857Y-72437142D01*
X103080476Y-72484761D01*
X103175714Y-72532380D01*
X103366190Y-72532380D01*
X103461428Y-72484761D01*
X103509047Y-72437142D01*
X103556666Y-72341904D01*
X103556666Y-72103809D01*
X103509047Y-72008571D01*
X103461428Y-71960952D01*
X103366190Y-71913333D01*
X103175714Y-71913333D01*
X103080476Y-71960952D01*
X103032857Y-72008571D01*
X102985238Y-72103809D01*
G04 #@! TO.C,J5*
X92396666Y-71532380D02*
X92396666Y-72246666D01*
X92349047Y-72389523D01*
X92253809Y-72484761D01*
X92110952Y-72532380D01*
X92015714Y-72532380D01*
X93349047Y-71532380D02*
X92872857Y-71532380D01*
X92825238Y-72008571D01*
X92872857Y-71960952D01*
X92968095Y-71913333D01*
X93206190Y-71913333D01*
X93301428Y-71960952D01*
X93349047Y-72008571D01*
X93396666Y-72103809D01*
X93396666Y-72341904D01*
X93349047Y-72437142D01*
X93301428Y-72484761D01*
X93206190Y-72532380D01*
X92968095Y-72532380D01*
X92872857Y-72484761D01*
X92825238Y-72437142D01*
G04 #@! TO.C,J4*
X92356666Y-77232380D02*
X92356666Y-77946666D01*
X92309047Y-78089523D01*
X92213809Y-78184761D01*
X92070952Y-78232380D01*
X91975714Y-78232380D01*
X93261428Y-77565714D02*
X93261428Y-78232380D01*
X93023333Y-77184761D02*
X92785238Y-77899047D01*
X93404285Y-77899047D01*
G04 #@! TO.C,J3*
X102516666Y-77232380D02*
X102516666Y-77946666D01*
X102469047Y-78089523D01*
X102373809Y-78184761D01*
X102230952Y-78232380D01*
X102135714Y-78232380D01*
X102897619Y-77232380D02*
X103516666Y-77232380D01*
X103183333Y-77613333D01*
X103326190Y-77613333D01*
X103421428Y-77660952D01*
X103469047Y-77708571D01*
X103516666Y-77803809D01*
X103516666Y-78041904D01*
X103469047Y-78137142D01*
X103421428Y-78184761D01*
X103326190Y-78232380D01*
X103040476Y-78232380D01*
X102945238Y-78184761D01*
X102897619Y-78137142D01*
G04 #@! TO.C,J2*
X136842380Y-87963333D02*
X137556666Y-87963333D01*
X137699523Y-88010952D01*
X137794761Y-88106190D01*
X137842380Y-88249047D01*
X137842380Y-88344285D01*
X136937619Y-87534761D02*
X136890000Y-87487142D01*
X136842380Y-87391904D01*
X136842380Y-87153809D01*
X136890000Y-87058571D01*
X136937619Y-87010952D01*
X137032857Y-86963333D01*
X137128095Y-86963333D01*
X137270952Y-87010952D01*
X137842380Y-87582380D01*
X137842380Y-86963333D01*
G04 #@! TO.C,J1*
X136842380Y-62563333D02*
X137556666Y-62563333D01*
X137699523Y-62610952D01*
X137794761Y-62706190D01*
X137842380Y-62849047D01*
X137842380Y-62944285D01*
X137842380Y-61563333D02*
X137842380Y-62134761D01*
X137842380Y-61849047D02*
X136842380Y-61849047D01*
X136985238Y-61944285D01*
X137080476Y-62039523D01*
X137128095Y-62134761D01*
G04 #@! TD*
M02*
