G04 #@! TF.GenerationSoftware,KiCad,Pcbnew,(5.1.5)-3*
G04 #@! TF.CreationDate,2020-02-22T21:26:02+01:00*
G04 #@! TF.ProjectId,SchluesselbrettV2,5363686c-7565-4737-9365-6c6272657474,rev?*
G04 #@! TF.SameCoordinates,Original*
G04 #@! TF.FileFunction,Legend,Bot*
G04 #@! TF.FilePolarity,Positive*
%FSLAX46Y46*%
G04 Gerber Fmt 4.6, Leading zero omitted, Abs format (unit mm)*
G04 Created by KiCad (PCBNEW (5.1.5)-3) date 2020-02-22 21:26:02*
%MOMM*%
%LPD*%
G04 APERTURE LIST*
%ADD10C,0.300000*%
%ADD11C,0.120000*%
%ADD12C,0.150000*%
G04 APERTURE END LIST*
D10*
X167421600Y-60825771D02*
X167421600Y-59325771D01*
X166778742Y-60825771D02*
X166778742Y-60040057D01*
X166850171Y-59897200D01*
X166993028Y-59825771D01*
X167207314Y-59825771D01*
X167350171Y-59897200D01*
X167421600Y-59968628D01*
X166278742Y-59825771D02*
X165707314Y-59825771D01*
X166064457Y-59325771D02*
X166064457Y-60611485D01*
X165993028Y-60754342D01*
X165850171Y-60825771D01*
X165707314Y-60825771D01*
X165421600Y-59825771D02*
X164850171Y-59825771D01*
X165207314Y-59325771D02*
X165207314Y-60611485D01*
X165135885Y-60754342D01*
X164993028Y-60825771D01*
X164850171Y-60825771D01*
X164350171Y-59825771D02*
X164350171Y-61325771D01*
X164350171Y-59897200D02*
X164207314Y-59825771D01*
X163921600Y-59825771D01*
X163778742Y-59897200D01*
X163707314Y-59968628D01*
X163635885Y-60111485D01*
X163635885Y-60540057D01*
X163707314Y-60682914D01*
X163778742Y-60754342D01*
X163921600Y-60825771D01*
X164207314Y-60825771D01*
X164350171Y-60754342D01*
X163064457Y-60754342D02*
X162921600Y-60825771D01*
X162635885Y-60825771D01*
X162493028Y-60754342D01*
X162421600Y-60611485D01*
X162421600Y-60540057D01*
X162493028Y-60397200D01*
X162635885Y-60325771D01*
X162850171Y-60325771D01*
X162993028Y-60254342D01*
X163064457Y-60111485D01*
X163064457Y-60040057D01*
X162993028Y-59897200D01*
X162850171Y-59825771D01*
X162635885Y-59825771D01*
X162493028Y-59897200D01*
X161778742Y-60682914D02*
X161707314Y-60754342D01*
X161778742Y-60825771D01*
X161850171Y-60754342D01*
X161778742Y-60682914D01*
X161778742Y-60825771D01*
X161778742Y-59897200D02*
X161707314Y-59968628D01*
X161778742Y-60040057D01*
X161850171Y-59968628D01*
X161778742Y-59897200D01*
X161778742Y-60040057D01*
X159993028Y-59254342D02*
X161278742Y-61182914D01*
X158421600Y-59254342D02*
X159707314Y-61182914D01*
X157278742Y-59825771D02*
X157278742Y-60825771D01*
X157921600Y-59825771D02*
X157921600Y-60611485D01*
X157850171Y-60754342D01*
X157707314Y-60825771D01*
X157493028Y-60825771D01*
X157350171Y-60754342D01*
X157278742Y-60682914D01*
X156564457Y-59825771D02*
X156564457Y-60825771D01*
X156564457Y-59968628D02*
X156493028Y-59897200D01*
X156350171Y-59825771D01*
X156135885Y-59825771D01*
X155993028Y-59897200D01*
X155921600Y-60040057D01*
X155921600Y-60825771D01*
X155278742Y-60754342D02*
X155135885Y-60825771D01*
X154850171Y-60825771D01*
X154707314Y-60754342D01*
X154635885Y-60611485D01*
X154635885Y-60540057D01*
X154707314Y-60397200D01*
X154850171Y-60325771D01*
X155064457Y-60325771D01*
X155207314Y-60254342D01*
X155278742Y-60111485D01*
X155278742Y-60040057D01*
X155207314Y-59897200D01*
X155064457Y-59825771D01*
X154850171Y-59825771D01*
X154707314Y-59897200D01*
X153421600Y-60754342D02*
X153564457Y-60825771D01*
X153850171Y-60825771D01*
X153993028Y-60754342D01*
X154064457Y-60611485D01*
X154064457Y-60040057D01*
X153993028Y-59897200D01*
X153850171Y-59825771D01*
X153564457Y-59825771D01*
X153421600Y-59897200D01*
X153350171Y-60040057D01*
X153350171Y-60182914D01*
X154064457Y-60325771D01*
X152707314Y-60825771D02*
X152707314Y-59825771D01*
X152707314Y-60111485D02*
X152635885Y-59968628D01*
X152564457Y-59897200D01*
X152421600Y-59825771D01*
X152278742Y-59825771D01*
X151778742Y-60254342D02*
X150635885Y-60254342D01*
X149993028Y-60754342D02*
X149850171Y-60825771D01*
X149564457Y-60825771D01*
X149421599Y-60754342D01*
X149350171Y-60611485D01*
X149350171Y-60540057D01*
X149421599Y-60397200D01*
X149564457Y-60325771D01*
X149778742Y-60325771D01*
X149921599Y-60254342D01*
X149993028Y-60111485D01*
X149993028Y-60040057D01*
X149921599Y-59897200D01*
X149778742Y-59825771D01*
X149564457Y-59825771D01*
X149421599Y-59897200D01*
X148707314Y-60825771D02*
X148707314Y-59825771D01*
X148707314Y-59968628D02*
X148635885Y-59897200D01*
X148493028Y-59825771D01*
X148278742Y-59825771D01*
X148135885Y-59897200D01*
X148064457Y-60040057D01*
X148064457Y-60825771D01*
X148064457Y-60040057D02*
X147993028Y-59897200D01*
X147850171Y-59825771D01*
X147635885Y-59825771D01*
X147493028Y-59897200D01*
X147421600Y-60040057D01*
X147421600Y-60825771D01*
X146064457Y-60825771D02*
X146064457Y-60040057D01*
X146135885Y-59897200D01*
X146278742Y-59825771D01*
X146564457Y-59825771D01*
X146707314Y-59897200D01*
X146064457Y-60754342D02*
X146207314Y-60825771D01*
X146564457Y-60825771D01*
X146707314Y-60754342D01*
X146778742Y-60611485D01*
X146778742Y-60468628D01*
X146707314Y-60325771D01*
X146564457Y-60254342D01*
X146207314Y-60254342D01*
X146064457Y-60182914D01*
X145350171Y-60825771D02*
X145350171Y-59825771D01*
X145350171Y-60111485D02*
X145278742Y-59968628D01*
X145207314Y-59897200D01*
X145064457Y-59825771D01*
X144921599Y-59825771D01*
X144635885Y-59825771D02*
X144064457Y-59825771D01*
X144421599Y-59325771D02*
X144421599Y-60611485D01*
X144350171Y-60754342D01*
X144207314Y-60825771D01*
X144064457Y-60825771D01*
X142993028Y-60754342D02*
X143135885Y-60825771D01*
X143421599Y-60825771D01*
X143564457Y-60754342D01*
X143635885Y-60611485D01*
X143635885Y-60040057D01*
X143564457Y-59897200D01*
X143421599Y-59825771D01*
X143135885Y-59825771D01*
X142993028Y-59897200D01*
X142921599Y-60040057D01*
X142921599Y-60182914D01*
X143635885Y-60325771D01*
X142350171Y-60754342D02*
X142207314Y-60825771D01*
X141921599Y-60825771D01*
X141778742Y-60754342D01*
X141707314Y-60611485D01*
X141707314Y-60540057D01*
X141778742Y-60397200D01*
X141921599Y-60325771D01*
X142135885Y-60325771D01*
X142278742Y-60254342D01*
X142350171Y-60111485D01*
X142350171Y-60040057D01*
X142278742Y-59897200D01*
X142135885Y-59825771D01*
X141921599Y-59825771D01*
X141778742Y-59897200D01*
X141064457Y-60254342D02*
X139921599Y-60254342D01*
X139350171Y-59825771D02*
X138564457Y-59825771D01*
X139350171Y-60825771D01*
X138564457Y-60825771D01*
X137350171Y-59825771D02*
X137350171Y-60825771D01*
X137993028Y-59825771D02*
X137993028Y-60611485D01*
X137921599Y-60754342D01*
X137778742Y-60825771D01*
X137564457Y-60825771D01*
X137421599Y-60754342D01*
X137350171Y-60682914D01*
X136635885Y-60825771D02*
X136635885Y-59325771D01*
X135993028Y-60825771D02*
X135993028Y-60040057D01*
X136064457Y-59897200D01*
X136207314Y-59825771D01*
X136421599Y-59825771D01*
X136564457Y-59897200D01*
X136635885Y-59968628D01*
X134635885Y-60825771D02*
X134635885Y-60040057D01*
X134707314Y-59897200D01*
X134850171Y-59825771D01*
X135135885Y-59825771D01*
X135278742Y-59897200D01*
X134635885Y-60754342D02*
X134778742Y-60825771D01*
X135135885Y-60825771D01*
X135278742Y-60754342D01*
X135350171Y-60611485D01*
X135350171Y-60468628D01*
X135278742Y-60325771D01*
X135135885Y-60254342D01*
X134778742Y-60254342D01*
X134635885Y-60182914D01*
X133278742Y-59825771D02*
X133278742Y-60825771D01*
X133921599Y-59825771D02*
X133921599Y-60611485D01*
X133850171Y-60754342D01*
X133707314Y-60825771D01*
X133493028Y-60825771D01*
X133350171Y-60754342D01*
X133278742Y-60682914D01*
X132635885Y-60754342D02*
X132493028Y-60825771D01*
X132207314Y-60825771D01*
X132064457Y-60754342D01*
X131993028Y-60611485D01*
X131993028Y-60540057D01*
X132064457Y-60397200D01*
X132207314Y-60325771D01*
X132421599Y-60325771D01*
X132564457Y-60254342D01*
X132635885Y-60111485D01*
X132635885Y-60040057D01*
X132564457Y-59897200D01*
X132421599Y-59825771D01*
X132207314Y-59825771D01*
X132064457Y-59897200D01*
X130778742Y-60754342D02*
X130921599Y-60825771D01*
X131207314Y-60825771D01*
X131350171Y-60754342D01*
X131421599Y-60611485D01*
X131421599Y-60040057D01*
X131350171Y-59897200D01*
X131207314Y-59825771D01*
X130921599Y-59825771D01*
X130778742Y-59897200D01*
X130707314Y-60040057D01*
X130707314Y-60182914D01*
X131421599Y-60325771D01*
X130064457Y-60682914D02*
X129993028Y-60754342D01*
X130064457Y-60825771D01*
X130135885Y-60754342D01*
X130064457Y-60682914D01*
X130064457Y-60825771D01*
X128707314Y-60825771D02*
X128707314Y-59325771D01*
X128707314Y-60754342D02*
X128850171Y-60825771D01*
X129135885Y-60825771D01*
X129278742Y-60754342D01*
X129350171Y-60682914D01*
X129421599Y-60540057D01*
X129421599Y-60111485D01*
X129350171Y-59968628D01*
X129278742Y-59897200D01*
X129135885Y-59825771D01*
X128850171Y-59825771D01*
X128707314Y-59897200D01*
X127421599Y-60754342D02*
X127564457Y-60825771D01*
X127850171Y-60825771D01*
X127993028Y-60754342D01*
X128064457Y-60611485D01*
X128064457Y-60040057D01*
X127993028Y-59897200D01*
X127850171Y-59825771D01*
X127564457Y-59825771D01*
X127421599Y-59897200D01*
X127350171Y-60040057D01*
X127350171Y-60182914D01*
X128064457Y-60325771D01*
X105386057Y-75803771D02*
X105743200Y-75803771D01*
X105743200Y-73660914D01*
X105386057Y-73660914D01*
X104100342Y-75303771D02*
X104814628Y-75303771D01*
X104814628Y-73803771D01*
X103314628Y-73803771D02*
X103028914Y-73803771D01*
X102886057Y-73875200D01*
X102743200Y-74018057D01*
X102671771Y-74303771D01*
X102671771Y-74803771D01*
X102743200Y-75089485D01*
X102886057Y-75232342D01*
X103028914Y-75303771D01*
X103314628Y-75303771D01*
X103457485Y-75232342D01*
X103600342Y-75089485D01*
X103671771Y-74803771D01*
X103671771Y-74303771D01*
X103600342Y-74018057D01*
X103457485Y-73875200D01*
X103314628Y-73803771D01*
X102171771Y-73803771D02*
X101171771Y-75303771D01*
X101171771Y-73803771D02*
X102171771Y-75303771D01*
X100600342Y-75303771D02*
X100600342Y-73803771D01*
X100457485Y-74732342D02*
X100028914Y-75303771D01*
X100028914Y-74303771D02*
X100600342Y-74875200D01*
X98814628Y-75232342D02*
X98957485Y-75303771D01*
X99243200Y-75303771D01*
X99386057Y-75232342D01*
X99457485Y-75089485D01*
X99457485Y-74518057D01*
X99386057Y-74375200D01*
X99243200Y-74303771D01*
X98957485Y-74303771D01*
X98814628Y-74375200D01*
X98743200Y-74518057D01*
X98743200Y-74660914D01*
X99457485Y-74803771D01*
X98243200Y-74303771D02*
X97886057Y-75303771D01*
X97528914Y-74303771D02*
X97886057Y-75303771D01*
X98028914Y-75660914D01*
X98100342Y-75732342D01*
X98243200Y-75803771D01*
X97028914Y-75232342D02*
X96886057Y-75303771D01*
X96600342Y-75303771D01*
X96457485Y-75232342D01*
X96386057Y-75089485D01*
X96386057Y-75018057D01*
X96457485Y-74875200D01*
X96600342Y-74803771D01*
X96814628Y-74803771D01*
X96957485Y-74732342D01*
X97028914Y-74589485D01*
X97028914Y-74518057D01*
X96957485Y-74375200D01*
X96814628Y-74303771D01*
X96600342Y-74303771D01*
X96457485Y-74375200D01*
X95743200Y-75160914D02*
X95671771Y-75232342D01*
X95743200Y-75303771D01*
X95814628Y-75232342D01*
X95743200Y-75160914D01*
X95743200Y-75303771D01*
X95743200Y-74732342D02*
X95814628Y-73875200D01*
X95743200Y-73803771D01*
X95671771Y-73875200D01*
X95743200Y-74732342D01*
X95743200Y-73803771D01*
X95171771Y-75803771D02*
X94814628Y-75803771D01*
X94814628Y-73660914D01*
X95171771Y-73660914D01*
X93100342Y-73803771D02*
X92600342Y-75303771D01*
X92100342Y-73803771D01*
X91600342Y-75160914D02*
X91528914Y-75232342D01*
X91600342Y-75303771D01*
X91671771Y-75232342D01*
X91600342Y-75160914D01*
X91600342Y-75303771D01*
X90957485Y-73946628D02*
X90886057Y-73875200D01*
X90743200Y-73803771D01*
X90386057Y-73803771D01*
X90243200Y-73875200D01*
X90171771Y-73946628D01*
X90100342Y-74089485D01*
X90100342Y-74232342D01*
X90171771Y-74446628D01*
X91028914Y-75303771D01*
X90100342Y-75303771D01*
D11*
G04 #@! TO.C,U4*
X162540000Y-74930000D02*
X162540000Y-71480000D01*
X162540000Y-74930000D02*
X162540000Y-76880000D01*
X167660000Y-74930000D02*
X167660000Y-72980000D01*
X167660000Y-74930000D02*
X167660000Y-76880000D01*
G04 #@! TO.C,U3*
X132080000Y-66020000D02*
X135530000Y-66020000D01*
X132080000Y-66020000D02*
X130130000Y-66020000D01*
X132080000Y-71140000D02*
X134030000Y-71140000D01*
X132080000Y-71140000D02*
X130130000Y-71140000D01*
G04 #@! TO.C,U2*
X147320000Y-72370000D02*
X150770000Y-72370000D01*
X147320000Y-72370000D02*
X145370000Y-72370000D01*
X147320000Y-77490000D02*
X149270000Y-77490000D01*
X147320000Y-77490000D02*
X145370000Y-77490000D01*
G04 #@! TO.C,U1*
X132080000Y-78720000D02*
X135530000Y-78720000D01*
X132080000Y-78720000D02*
X130130000Y-78720000D01*
X132080000Y-83840000D02*
X134030000Y-83840000D01*
X132080000Y-83840000D02*
X130130000Y-83840000D01*
G04 #@! TO.C,R18*
X160278578Y-75005000D02*
X159761422Y-75005000D01*
X160278578Y-73585000D02*
X159761422Y-73585000D01*
G04 #@! TO.C,R17*
X125988578Y-68655000D02*
X125471422Y-68655000D01*
X125988578Y-67235000D02*
X125471422Y-67235000D01*
G04 #@! TO.C,R16*
X103430000Y-86618578D02*
X103430000Y-86101422D01*
X104850000Y-86618578D02*
X104850000Y-86101422D01*
G04 #@! TO.C,R15*
X93270000Y-86618578D02*
X93270000Y-86101422D01*
X94690000Y-86618578D02*
X94690000Y-86101422D01*
G04 #@! TO.C,R14*
X92150000Y-64765422D02*
X92150000Y-65282578D01*
X90730000Y-64765422D02*
X90730000Y-65282578D01*
G04 #@! TO.C,R13*
X102310000Y-64765422D02*
X102310000Y-65282578D01*
X100890000Y-64765422D02*
X100890000Y-65282578D01*
G04 #@! TO.C,R12*
X141482578Y-74878000D02*
X140965422Y-74878000D01*
X141482578Y-73458000D02*
X140965422Y-73458000D01*
G04 #@! TO.C,R11*
X124258000Y-80014578D02*
X124258000Y-79497422D01*
X125678000Y-80014578D02*
X125678000Y-79497422D01*
G04 #@! TO.C,R7*
X137059600Y-64926978D02*
X137059600Y-64409822D01*
X138479600Y-64926978D02*
X138479600Y-64409822D01*
G04 #@! TO.C,R6*
X149093422Y-70359200D02*
X149610578Y-70359200D01*
X149093422Y-71779200D02*
X149610578Y-71779200D01*
G04 #@! TO.C,R5*
X129087378Y-76046400D02*
X128570222Y-76046400D01*
X129087378Y-74626400D02*
X128570222Y-74626400D01*
G04 #@! TO.C,R4*
X161871922Y-87174000D02*
X162389078Y-87174000D01*
X161871922Y-88594000D02*
X162389078Y-88594000D01*
G04 #@! TO.C,R2*
X146299422Y-85497600D02*
X146816578Y-85497600D01*
X146299422Y-86917600D02*
X146816578Y-86917600D01*
G04 #@! TO.C,U4*
D12*
X161152380Y-74168095D02*
X161961904Y-74168095D01*
X162057142Y-74215714D01*
X162104761Y-74263333D01*
X162152380Y-74358571D01*
X162152380Y-74549047D01*
X162104761Y-74644285D01*
X162057142Y-74691904D01*
X161961904Y-74739523D01*
X161152380Y-74739523D01*
X161485714Y-75644285D02*
X162152380Y-75644285D01*
X161104761Y-75406190D02*
X161819047Y-75168095D01*
X161819047Y-75787142D01*
G04 #@! TO.C,U3*
X132841904Y-64632380D02*
X132841904Y-65441904D01*
X132794285Y-65537142D01*
X132746666Y-65584761D01*
X132651428Y-65632380D01*
X132460952Y-65632380D01*
X132365714Y-65584761D01*
X132318095Y-65537142D01*
X132270476Y-65441904D01*
X132270476Y-64632380D01*
X131889523Y-64632380D02*
X131270476Y-64632380D01*
X131603809Y-65013333D01*
X131460952Y-65013333D01*
X131365714Y-65060952D01*
X131318095Y-65108571D01*
X131270476Y-65203809D01*
X131270476Y-65441904D01*
X131318095Y-65537142D01*
X131365714Y-65584761D01*
X131460952Y-65632380D01*
X131746666Y-65632380D01*
X131841904Y-65584761D01*
X131889523Y-65537142D01*
G04 #@! TO.C,U2*
X148081904Y-70982380D02*
X148081904Y-71791904D01*
X148034285Y-71887142D01*
X147986666Y-71934761D01*
X147891428Y-71982380D01*
X147700952Y-71982380D01*
X147605714Y-71934761D01*
X147558095Y-71887142D01*
X147510476Y-71791904D01*
X147510476Y-70982380D01*
X147081904Y-71077619D02*
X147034285Y-71030000D01*
X146939047Y-70982380D01*
X146700952Y-70982380D01*
X146605714Y-71030000D01*
X146558095Y-71077619D01*
X146510476Y-71172857D01*
X146510476Y-71268095D01*
X146558095Y-71410952D01*
X147129523Y-71982380D01*
X146510476Y-71982380D01*
G04 #@! TO.C,U1*
X132841904Y-77332380D02*
X132841904Y-78141904D01*
X132794285Y-78237142D01*
X132746666Y-78284761D01*
X132651428Y-78332380D01*
X132460952Y-78332380D01*
X132365714Y-78284761D01*
X132318095Y-78237142D01*
X132270476Y-78141904D01*
X132270476Y-77332380D01*
X131270476Y-78332380D02*
X131841904Y-78332380D01*
X131556190Y-78332380D02*
X131556190Y-77332380D01*
X131651428Y-77475238D01*
X131746666Y-77570476D01*
X131841904Y-77618095D01*
G04 #@! TO.C,R18*
X160662857Y-73097380D02*
X160996190Y-72621190D01*
X161234285Y-73097380D02*
X161234285Y-72097380D01*
X160853333Y-72097380D01*
X160758095Y-72145000D01*
X160710476Y-72192619D01*
X160662857Y-72287857D01*
X160662857Y-72430714D01*
X160710476Y-72525952D01*
X160758095Y-72573571D01*
X160853333Y-72621190D01*
X161234285Y-72621190D01*
X159710476Y-73097380D02*
X160281904Y-73097380D01*
X159996190Y-73097380D02*
X159996190Y-72097380D01*
X160091428Y-72240238D01*
X160186666Y-72335476D01*
X160281904Y-72383095D01*
X159139047Y-72525952D02*
X159234285Y-72478333D01*
X159281904Y-72430714D01*
X159329523Y-72335476D01*
X159329523Y-72287857D01*
X159281904Y-72192619D01*
X159234285Y-72145000D01*
X159139047Y-72097380D01*
X158948571Y-72097380D01*
X158853333Y-72145000D01*
X158805714Y-72192619D01*
X158758095Y-72287857D01*
X158758095Y-72335476D01*
X158805714Y-72430714D01*
X158853333Y-72478333D01*
X158948571Y-72525952D01*
X159139047Y-72525952D01*
X159234285Y-72573571D01*
X159281904Y-72621190D01*
X159329523Y-72716428D01*
X159329523Y-72906904D01*
X159281904Y-73002142D01*
X159234285Y-73049761D01*
X159139047Y-73097380D01*
X158948571Y-73097380D01*
X158853333Y-73049761D01*
X158805714Y-73002142D01*
X158758095Y-72906904D01*
X158758095Y-72716428D01*
X158805714Y-72621190D01*
X158853333Y-72573571D01*
X158948571Y-72525952D01*
G04 #@! TO.C,R17*
X126372857Y-66747380D02*
X126706190Y-66271190D01*
X126944285Y-66747380D02*
X126944285Y-65747380D01*
X126563333Y-65747380D01*
X126468095Y-65795000D01*
X126420476Y-65842619D01*
X126372857Y-65937857D01*
X126372857Y-66080714D01*
X126420476Y-66175952D01*
X126468095Y-66223571D01*
X126563333Y-66271190D01*
X126944285Y-66271190D01*
X125420476Y-66747380D02*
X125991904Y-66747380D01*
X125706190Y-66747380D02*
X125706190Y-65747380D01*
X125801428Y-65890238D01*
X125896666Y-65985476D01*
X125991904Y-66033095D01*
X125087142Y-65747380D02*
X124420476Y-65747380D01*
X124849047Y-66747380D01*
G04 #@! TO.C,R16*
X106242380Y-85717142D02*
X105766190Y-85383809D01*
X106242380Y-85145714D02*
X105242380Y-85145714D01*
X105242380Y-85526666D01*
X105290000Y-85621904D01*
X105337619Y-85669523D01*
X105432857Y-85717142D01*
X105575714Y-85717142D01*
X105670952Y-85669523D01*
X105718571Y-85621904D01*
X105766190Y-85526666D01*
X105766190Y-85145714D01*
X106242380Y-86669523D02*
X106242380Y-86098095D01*
X106242380Y-86383809D02*
X105242380Y-86383809D01*
X105385238Y-86288571D01*
X105480476Y-86193333D01*
X105528095Y-86098095D01*
X105242380Y-87526666D02*
X105242380Y-87336190D01*
X105290000Y-87240952D01*
X105337619Y-87193333D01*
X105480476Y-87098095D01*
X105670952Y-87050476D01*
X106051904Y-87050476D01*
X106147142Y-87098095D01*
X106194761Y-87145714D01*
X106242380Y-87240952D01*
X106242380Y-87431428D01*
X106194761Y-87526666D01*
X106147142Y-87574285D01*
X106051904Y-87621904D01*
X105813809Y-87621904D01*
X105718571Y-87574285D01*
X105670952Y-87526666D01*
X105623333Y-87431428D01*
X105623333Y-87240952D01*
X105670952Y-87145714D01*
X105718571Y-87098095D01*
X105813809Y-87050476D01*
G04 #@! TO.C,R15*
X96082380Y-85717142D02*
X95606190Y-85383809D01*
X96082380Y-85145714D02*
X95082380Y-85145714D01*
X95082380Y-85526666D01*
X95130000Y-85621904D01*
X95177619Y-85669523D01*
X95272857Y-85717142D01*
X95415714Y-85717142D01*
X95510952Y-85669523D01*
X95558571Y-85621904D01*
X95606190Y-85526666D01*
X95606190Y-85145714D01*
X96082380Y-86669523D02*
X96082380Y-86098095D01*
X96082380Y-86383809D02*
X95082380Y-86383809D01*
X95225238Y-86288571D01*
X95320476Y-86193333D01*
X95368095Y-86098095D01*
X95082380Y-87574285D02*
X95082380Y-87098095D01*
X95558571Y-87050476D01*
X95510952Y-87098095D01*
X95463333Y-87193333D01*
X95463333Y-87431428D01*
X95510952Y-87526666D01*
X95558571Y-87574285D01*
X95653809Y-87621904D01*
X95891904Y-87621904D01*
X95987142Y-87574285D01*
X96034761Y-87526666D01*
X96082380Y-87431428D01*
X96082380Y-87193333D01*
X96034761Y-87098095D01*
X95987142Y-87050476D01*
G04 #@! TO.C,R14*
X90242380Y-64381142D02*
X89766190Y-64047809D01*
X90242380Y-63809714D02*
X89242380Y-63809714D01*
X89242380Y-64190666D01*
X89290000Y-64285904D01*
X89337619Y-64333523D01*
X89432857Y-64381142D01*
X89575714Y-64381142D01*
X89670952Y-64333523D01*
X89718571Y-64285904D01*
X89766190Y-64190666D01*
X89766190Y-63809714D01*
X90242380Y-65333523D02*
X90242380Y-64762095D01*
X90242380Y-65047809D02*
X89242380Y-65047809D01*
X89385238Y-64952571D01*
X89480476Y-64857333D01*
X89528095Y-64762095D01*
X89575714Y-66190666D02*
X90242380Y-66190666D01*
X89194761Y-65952571D02*
X89909047Y-65714476D01*
X89909047Y-66333523D01*
G04 #@! TO.C,R13*
X100402380Y-64381142D02*
X99926190Y-64047809D01*
X100402380Y-63809714D02*
X99402380Y-63809714D01*
X99402380Y-64190666D01*
X99450000Y-64285904D01*
X99497619Y-64333523D01*
X99592857Y-64381142D01*
X99735714Y-64381142D01*
X99830952Y-64333523D01*
X99878571Y-64285904D01*
X99926190Y-64190666D01*
X99926190Y-63809714D01*
X100402380Y-65333523D02*
X100402380Y-64762095D01*
X100402380Y-65047809D02*
X99402380Y-65047809D01*
X99545238Y-64952571D01*
X99640476Y-64857333D01*
X99688095Y-64762095D01*
X99402380Y-65666857D02*
X99402380Y-66285904D01*
X99783333Y-65952571D01*
X99783333Y-66095428D01*
X99830952Y-66190666D01*
X99878571Y-66238285D01*
X99973809Y-66285904D01*
X100211904Y-66285904D01*
X100307142Y-66238285D01*
X100354761Y-66190666D01*
X100402380Y-66095428D01*
X100402380Y-65809714D01*
X100354761Y-65714476D01*
X100307142Y-65666857D01*
G04 #@! TO.C,R12*
X141866857Y-72970380D02*
X142200190Y-72494190D01*
X142438285Y-72970380D02*
X142438285Y-71970380D01*
X142057333Y-71970380D01*
X141962095Y-72018000D01*
X141914476Y-72065619D01*
X141866857Y-72160857D01*
X141866857Y-72303714D01*
X141914476Y-72398952D01*
X141962095Y-72446571D01*
X142057333Y-72494190D01*
X142438285Y-72494190D01*
X140914476Y-72970380D02*
X141485904Y-72970380D01*
X141200190Y-72970380D02*
X141200190Y-71970380D01*
X141295428Y-72113238D01*
X141390666Y-72208476D01*
X141485904Y-72256095D01*
X140533523Y-72065619D02*
X140485904Y-72018000D01*
X140390666Y-71970380D01*
X140152571Y-71970380D01*
X140057333Y-72018000D01*
X140009714Y-72065619D01*
X139962095Y-72160857D01*
X139962095Y-72256095D01*
X140009714Y-72398952D01*
X140581142Y-72970380D01*
X139962095Y-72970380D01*
G04 #@! TO.C,R11*
X127070380Y-79113142D02*
X126594190Y-78779809D01*
X127070380Y-78541714D02*
X126070380Y-78541714D01*
X126070380Y-78922666D01*
X126118000Y-79017904D01*
X126165619Y-79065523D01*
X126260857Y-79113142D01*
X126403714Y-79113142D01*
X126498952Y-79065523D01*
X126546571Y-79017904D01*
X126594190Y-78922666D01*
X126594190Y-78541714D01*
X127070380Y-80065523D02*
X127070380Y-79494095D01*
X127070380Y-79779809D02*
X126070380Y-79779809D01*
X126213238Y-79684571D01*
X126308476Y-79589333D01*
X126356095Y-79494095D01*
X127070380Y-81017904D02*
X127070380Y-80446476D01*
X127070380Y-80732190D02*
X126070380Y-80732190D01*
X126213238Y-80636952D01*
X126308476Y-80541714D01*
X126356095Y-80446476D01*
G04 #@! TO.C,R7*
X139871980Y-64501733D02*
X139395790Y-64168400D01*
X139871980Y-63930304D02*
X138871980Y-63930304D01*
X138871980Y-64311257D01*
X138919600Y-64406495D01*
X138967219Y-64454114D01*
X139062457Y-64501733D01*
X139205314Y-64501733D01*
X139300552Y-64454114D01*
X139348171Y-64406495D01*
X139395790Y-64311257D01*
X139395790Y-63930304D01*
X138871980Y-64835066D02*
X138871980Y-65501733D01*
X139871980Y-65073161D01*
G04 #@! TO.C,R6*
X149518666Y-73171580D02*
X149852000Y-72695390D01*
X150090095Y-73171580D02*
X150090095Y-72171580D01*
X149709142Y-72171580D01*
X149613904Y-72219200D01*
X149566285Y-72266819D01*
X149518666Y-72362057D01*
X149518666Y-72504914D01*
X149566285Y-72600152D01*
X149613904Y-72647771D01*
X149709142Y-72695390D01*
X150090095Y-72695390D01*
X148661523Y-72171580D02*
X148852000Y-72171580D01*
X148947238Y-72219200D01*
X148994857Y-72266819D01*
X149090095Y-72409676D01*
X149137714Y-72600152D01*
X149137714Y-72981104D01*
X149090095Y-73076342D01*
X149042476Y-73123961D01*
X148947238Y-73171580D01*
X148756761Y-73171580D01*
X148661523Y-73123961D01*
X148613904Y-73076342D01*
X148566285Y-72981104D01*
X148566285Y-72743009D01*
X148613904Y-72647771D01*
X148661523Y-72600152D01*
X148756761Y-72552533D01*
X148947238Y-72552533D01*
X149042476Y-72600152D01*
X149090095Y-72647771D01*
X149137714Y-72743009D01*
G04 #@! TO.C,R5*
X128995466Y-74138780D02*
X129328800Y-73662590D01*
X129566895Y-74138780D02*
X129566895Y-73138780D01*
X129185942Y-73138780D01*
X129090704Y-73186400D01*
X129043085Y-73234019D01*
X128995466Y-73329257D01*
X128995466Y-73472114D01*
X129043085Y-73567352D01*
X129090704Y-73614971D01*
X129185942Y-73662590D01*
X129566895Y-73662590D01*
X128090704Y-73138780D02*
X128566895Y-73138780D01*
X128614514Y-73614971D01*
X128566895Y-73567352D01*
X128471657Y-73519733D01*
X128233561Y-73519733D01*
X128138323Y-73567352D01*
X128090704Y-73614971D01*
X128043085Y-73710209D01*
X128043085Y-73948304D01*
X128090704Y-74043542D01*
X128138323Y-74091161D01*
X128233561Y-74138780D01*
X128471657Y-74138780D01*
X128566895Y-74091161D01*
X128614514Y-74043542D01*
G04 #@! TO.C,R4*
X162297166Y-89986380D02*
X162630500Y-89510190D01*
X162868595Y-89986380D02*
X162868595Y-88986380D01*
X162487642Y-88986380D01*
X162392404Y-89034000D01*
X162344785Y-89081619D01*
X162297166Y-89176857D01*
X162297166Y-89319714D01*
X162344785Y-89414952D01*
X162392404Y-89462571D01*
X162487642Y-89510190D01*
X162868595Y-89510190D01*
X161440023Y-89319714D02*
X161440023Y-89986380D01*
X161678119Y-88938761D02*
X161916214Y-89653047D01*
X161297166Y-89653047D01*
G04 #@! TO.C,R2*
X146724666Y-88309980D02*
X147058000Y-87833790D01*
X147296095Y-88309980D02*
X147296095Y-87309980D01*
X146915142Y-87309980D01*
X146819904Y-87357600D01*
X146772285Y-87405219D01*
X146724666Y-87500457D01*
X146724666Y-87643314D01*
X146772285Y-87738552D01*
X146819904Y-87786171D01*
X146915142Y-87833790D01*
X147296095Y-87833790D01*
X146343714Y-87405219D02*
X146296095Y-87357600D01*
X146200857Y-87309980D01*
X145962761Y-87309980D01*
X145867523Y-87357600D01*
X145819904Y-87405219D01*
X145772285Y-87500457D01*
X145772285Y-87595695D01*
X145819904Y-87738552D01*
X146391333Y-88309980D01*
X145772285Y-88309980D01*
G04 #@! TD*
M02*
