G04 #@! TF.GenerationSoftware,KiCad,Pcbnew,(5.1.5)-3*
G04 #@! TF.CreationDate,2020-02-22T21:26:02+01:00*
G04 #@! TF.ProjectId,SchluesselbrettV2,5363686c-7565-4737-9365-6c6272657474,rev?*
G04 #@! TF.SameCoordinates,Original*
G04 #@! TF.FileFunction,Copper,L1,Top*
G04 #@! TF.FilePolarity,Positive*
%FSLAX46Y46*%
G04 Gerber Fmt 4.6, Leading zero omitted, Abs format (unit mm)*
G04 Created by KiCad (PCBNEW (5.1.5)-3) date 2020-02-22 21:26:02*
%MOMM*%
%LPD*%
G04 APERTURE LIST*
G04 #@! TA.AperFunction,ComponentPad*
%ADD10O,1.700000X1.950000*%
G04 #@! TD*
G04 #@! TA.AperFunction,ComponentPad*
%ADD11C,0.100000*%
G04 #@! TD*
G04 #@! TA.AperFunction,SMDPad,CuDef*
%ADD12C,0.100000*%
G04 #@! TD*
G04 #@! TA.AperFunction,SMDPad,CuDef*
%ADD13R,0.800000X0.900000*%
G04 #@! TD*
G04 #@! TA.AperFunction,ComponentPad*
%ADD14O,1.700000X2.000000*%
G04 #@! TD*
G04 #@! TA.AperFunction,ComponentPad*
%ADD15O,1.700000X1.700000*%
G04 #@! TD*
G04 #@! TA.AperFunction,ComponentPad*
%ADD16R,1.700000X1.700000*%
G04 #@! TD*
G04 #@! TA.AperFunction,ViaPad*
%ADD17C,0.800000*%
G04 #@! TD*
G04 #@! TA.AperFunction,Conductor*
%ADD18C,0.250000*%
G04 #@! TD*
G04 #@! TA.AperFunction,Conductor*
%ADD19C,0.254000*%
G04 #@! TD*
G04 APERTURE END LIST*
D10*
G04 #@! TO.P,J7,4*
G04 #@! TO.N,Net-(J7-Pad4)*
X149740000Y-81280000D03*
G04 #@! TO.P,J7,3*
G04 #@! TO.N,Net-(J7-Pad3)*
X147240000Y-81280000D03*
G04 #@! TO.P,J7,2*
G04 #@! TO.N,Net-(J7-Pad2)*
X144740000Y-81280000D03*
G04 #@! TA.AperFunction,ComponentPad*
D11*
G04 #@! TO.P,J7,1*
G04 #@! TO.N,+5V*
G36*
X142864504Y-80306204D02*
G01*
X142888773Y-80309804D01*
X142912571Y-80315765D01*
X142935671Y-80324030D01*
X142957849Y-80334520D01*
X142978893Y-80347133D01*
X142998598Y-80361747D01*
X143016777Y-80378223D01*
X143033253Y-80396402D01*
X143047867Y-80416107D01*
X143060480Y-80437151D01*
X143070970Y-80459329D01*
X143079235Y-80482429D01*
X143085196Y-80506227D01*
X143088796Y-80530496D01*
X143090000Y-80555000D01*
X143090000Y-82005000D01*
X143088796Y-82029504D01*
X143085196Y-82053773D01*
X143079235Y-82077571D01*
X143070970Y-82100671D01*
X143060480Y-82122849D01*
X143047867Y-82143893D01*
X143033253Y-82163598D01*
X143016777Y-82181777D01*
X142998598Y-82198253D01*
X142978893Y-82212867D01*
X142957849Y-82225480D01*
X142935671Y-82235970D01*
X142912571Y-82244235D01*
X142888773Y-82250196D01*
X142864504Y-82253796D01*
X142840000Y-82255000D01*
X141640000Y-82255000D01*
X141615496Y-82253796D01*
X141591227Y-82250196D01*
X141567429Y-82244235D01*
X141544329Y-82235970D01*
X141522151Y-82225480D01*
X141501107Y-82212867D01*
X141481402Y-82198253D01*
X141463223Y-82181777D01*
X141446747Y-82163598D01*
X141432133Y-82143893D01*
X141419520Y-82122849D01*
X141409030Y-82100671D01*
X141400765Y-82077571D01*
X141394804Y-82053773D01*
X141391204Y-82029504D01*
X141390000Y-82005000D01*
X141390000Y-80555000D01*
X141391204Y-80530496D01*
X141394804Y-80506227D01*
X141400765Y-80482429D01*
X141409030Y-80459329D01*
X141419520Y-80437151D01*
X141432133Y-80416107D01*
X141446747Y-80396402D01*
X141463223Y-80378223D01*
X141481402Y-80361747D01*
X141501107Y-80347133D01*
X141522151Y-80334520D01*
X141544329Y-80324030D01*
X141567429Y-80315765D01*
X141591227Y-80309804D01*
X141615496Y-80306204D01*
X141640000Y-80305000D01*
X142840000Y-80305000D01*
X142864504Y-80306204D01*
G37*
G04 #@! TD.AperFunction*
G04 #@! TD*
D10*
G04 #@! TO.P,J10,4*
G04 #@! TO.N,Net-(J10-Pad4)*
X157600000Y-68580000D03*
G04 #@! TO.P,J10,3*
G04 #@! TO.N,Net-(J10-Pad3)*
X160100000Y-68580000D03*
G04 #@! TO.P,J10,2*
G04 #@! TO.N,Net-(J10-Pad2)*
X162600000Y-68580000D03*
G04 #@! TA.AperFunction,ComponentPad*
D11*
G04 #@! TO.P,J10,1*
G04 #@! TO.N,+5V*
G36*
X165724504Y-67606204D02*
G01*
X165748773Y-67609804D01*
X165772571Y-67615765D01*
X165795671Y-67624030D01*
X165817849Y-67634520D01*
X165838893Y-67647133D01*
X165858598Y-67661747D01*
X165876777Y-67678223D01*
X165893253Y-67696402D01*
X165907867Y-67716107D01*
X165920480Y-67737151D01*
X165930970Y-67759329D01*
X165939235Y-67782429D01*
X165945196Y-67806227D01*
X165948796Y-67830496D01*
X165950000Y-67855000D01*
X165950000Y-69305000D01*
X165948796Y-69329504D01*
X165945196Y-69353773D01*
X165939235Y-69377571D01*
X165930970Y-69400671D01*
X165920480Y-69422849D01*
X165907867Y-69443893D01*
X165893253Y-69463598D01*
X165876777Y-69481777D01*
X165858598Y-69498253D01*
X165838893Y-69512867D01*
X165817849Y-69525480D01*
X165795671Y-69535970D01*
X165772571Y-69544235D01*
X165748773Y-69550196D01*
X165724504Y-69553796D01*
X165700000Y-69555000D01*
X164500000Y-69555000D01*
X164475496Y-69553796D01*
X164451227Y-69550196D01*
X164427429Y-69544235D01*
X164404329Y-69535970D01*
X164382151Y-69525480D01*
X164361107Y-69512867D01*
X164341402Y-69498253D01*
X164323223Y-69481777D01*
X164306747Y-69463598D01*
X164292133Y-69443893D01*
X164279520Y-69422849D01*
X164269030Y-69400671D01*
X164260765Y-69377571D01*
X164254804Y-69353773D01*
X164251204Y-69329504D01*
X164250000Y-69305000D01*
X164250000Y-67855000D01*
X164251204Y-67830496D01*
X164254804Y-67806227D01*
X164260765Y-67782429D01*
X164269030Y-67759329D01*
X164279520Y-67737151D01*
X164292133Y-67716107D01*
X164306747Y-67696402D01*
X164323223Y-67678223D01*
X164341402Y-67661747D01*
X164361107Y-67647133D01*
X164382151Y-67634520D01*
X164404329Y-67624030D01*
X164427429Y-67615765D01*
X164451227Y-67609804D01*
X164475496Y-67606204D01*
X164500000Y-67605000D01*
X165700000Y-67605000D01*
X165724504Y-67606204D01*
G37*
G04 #@! TD.AperFunction*
G04 #@! TD*
G04 #@! TA.AperFunction,SMDPad,CuDef*
D12*
G04 #@! TO.P,R10,2*
G04 #@! TO.N,Net-(Q1-Pad2)*
G36*
X117320142Y-67156174D02*
G01*
X117343803Y-67159684D01*
X117367007Y-67165496D01*
X117389529Y-67173554D01*
X117411153Y-67183782D01*
X117431670Y-67196079D01*
X117450883Y-67210329D01*
X117468607Y-67226393D01*
X117484671Y-67244117D01*
X117498921Y-67263330D01*
X117511218Y-67283847D01*
X117521446Y-67305471D01*
X117529504Y-67327993D01*
X117535316Y-67351197D01*
X117538826Y-67374858D01*
X117540000Y-67398750D01*
X117540000Y-67886250D01*
X117538826Y-67910142D01*
X117535316Y-67933803D01*
X117529504Y-67957007D01*
X117521446Y-67979529D01*
X117511218Y-68001153D01*
X117498921Y-68021670D01*
X117484671Y-68040883D01*
X117468607Y-68058607D01*
X117450883Y-68074671D01*
X117431670Y-68088921D01*
X117411153Y-68101218D01*
X117389529Y-68111446D01*
X117367007Y-68119504D01*
X117343803Y-68125316D01*
X117320142Y-68128826D01*
X117296250Y-68130000D01*
X116383750Y-68130000D01*
X116359858Y-68128826D01*
X116336197Y-68125316D01*
X116312993Y-68119504D01*
X116290471Y-68111446D01*
X116268847Y-68101218D01*
X116248330Y-68088921D01*
X116229117Y-68074671D01*
X116211393Y-68058607D01*
X116195329Y-68040883D01*
X116181079Y-68021670D01*
X116168782Y-68001153D01*
X116158554Y-67979529D01*
X116150496Y-67957007D01*
X116144684Y-67933803D01*
X116141174Y-67910142D01*
X116140000Y-67886250D01*
X116140000Y-67398750D01*
X116141174Y-67374858D01*
X116144684Y-67351197D01*
X116150496Y-67327993D01*
X116158554Y-67305471D01*
X116168782Y-67283847D01*
X116181079Y-67263330D01*
X116195329Y-67244117D01*
X116211393Y-67226393D01*
X116229117Y-67210329D01*
X116248330Y-67196079D01*
X116268847Y-67183782D01*
X116290471Y-67173554D01*
X116312993Y-67165496D01*
X116336197Y-67159684D01*
X116359858Y-67156174D01*
X116383750Y-67155000D01*
X117296250Y-67155000D01*
X117320142Y-67156174D01*
G37*
G04 #@! TD.AperFunction*
G04 #@! TA.AperFunction,SMDPad,CuDef*
G04 #@! TO.P,R10,1*
G04 #@! TO.N,+3V3*
G36*
X117320142Y-69031174D02*
G01*
X117343803Y-69034684D01*
X117367007Y-69040496D01*
X117389529Y-69048554D01*
X117411153Y-69058782D01*
X117431670Y-69071079D01*
X117450883Y-69085329D01*
X117468607Y-69101393D01*
X117484671Y-69119117D01*
X117498921Y-69138330D01*
X117511218Y-69158847D01*
X117521446Y-69180471D01*
X117529504Y-69202993D01*
X117535316Y-69226197D01*
X117538826Y-69249858D01*
X117540000Y-69273750D01*
X117540000Y-69761250D01*
X117538826Y-69785142D01*
X117535316Y-69808803D01*
X117529504Y-69832007D01*
X117521446Y-69854529D01*
X117511218Y-69876153D01*
X117498921Y-69896670D01*
X117484671Y-69915883D01*
X117468607Y-69933607D01*
X117450883Y-69949671D01*
X117431670Y-69963921D01*
X117411153Y-69976218D01*
X117389529Y-69986446D01*
X117367007Y-69994504D01*
X117343803Y-70000316D01*
X117320142Y-70003826D01*
X117296250Y-70005000D01*
X116383750Y-70005000D01*
X116359858Y-70003826D01*
X116336197Y-70000316D01*
X116312993Y-69994504D01*
X116290471Y-69986446D01*
X116268847Y-69976218D01*
X116248330Y-69963921D01*
X116229117Y-69949671D01*
X116211393Y-69933607D01*
X116195329Y-69915883D01*
X116181079Y-69896670D01*
X116168782Y-69876153D01*
X116158554Y-69854529D01*
X116150496Y-69832007D01*
X116144684Y-69808803D01*
X116141174Y-69785142D01*
X116140000Y-69761250D01*
X116140000Y-69273750D01*
X116141174Y-69249858D01*
X116144684Y-69226197D01*
X116150496Y-69202993D01*
X116158554Y-69180471D01*
X116168782Y-69158847D01*
X116181079Y-69138330D01*
X116195329Y-69119117D01*
X116211393Y-69101393D01*
X116229117Y-69085329D01*
X116248330Y-69071079D01*
X116268847Y-69058782D01*
X116290471Y-69048554D01*
X116312993Y-69040496D01*
X116336197Y-69034684D01*
X116359858Y-69031174D01*
X116383750Y-69030000D01*
X117296250Y-69030000D01*
X117320142Y-69031174D01*
G37*
G04 #@! TD.AperFunction*
G04 #@! TD*
G04 #@! TA.AperFunction,SMDPad,CuDef*
G04 #@! TO.P,R9,2*
G04 #@! TO.N,+5V*
G36*
X116521142Y-74993174D02*
G01*
X116544803Y-74996684D01*
X116568007Y-75002496D01*
X116590529Y-75010554D01*
X116612153Y-75020782D01*
X116632670Y-75033079D01*
X116651883Y-75047329D01*
X116669607Y-75063393D01*
X116685671Y-75081117D01*
X116699921Y-75100330D01*
X116712218Y-75120847D01*
X116722446Y-75142471D01*
X116730504Y-75164993D01*
X116736316Y-75188197D01*
X116739826Y-75211858D01*
X116741000Y-75235750D01*
X116741000Y-76148250D01*
X116739826Y-76172142D01*
X116736316Y-76195803D01*
X116730504Y-76219007D01*
X116722446Y-76241529D01*
X116712218Y-76263153D01*
X116699921Y-76283670D01*
X116685671Y-76302883D01*
X116669607Y-76320607D01*
X116651883Y-76336671D01*
X116632670Y-76350921D01*
X116612153Y-76363218D01*
X116590529Y-76373446D01*
X116568007Y-76381504D01*
X116544803Y-76387316D01*
X116521142Y-76390826D01*
X116497250Y-76392000D01*
X116009750Y-76392000D01*
X115985858Y-76390826D01*
X115962197Y-76387316D01*
X115938993Y-76381504D01*
X115916471Y-76373446D01*
X115894847Y-76363218D01*
X115874330Y-76350921D01*
X115855117Y-76336671D01*
X115837393Y-76320607D01*
X115821329Y-76302883D01*
X115807079Y-76283670D01*
X115794782Y-76263153D01*
X115784554Y-76241529D01*
X115776496Y-76219007D01*
X115770684Y-76195803D01*
X115767174Y-76172142D01*
X115766000Y-76148250D01*
X115766000Y-75235750D01*
X115767174Y-75211858D01*
X115770684Y-75188197D01*
X115776496Y-75164993D01*
X115784554Y-75142471D01*
X115794782Y-75120847D01*
X115807079Y-75100330D01*
X115821329Y-75081117D01*
X115837393Y-75063393D01*
X115855117Y-75047329D01*
X115874330Y-75033079D01*
X115894847Y-75020782D01*
X115916471Y-75010554D01*
X115938993Y-75002496D01*
X115962197Y-74996684D01*
X115985858Y-74993174D01*
X116009750Y-74992000D01*
X116497250Y-74992000D01*
X116521142Y-74993174D01*
G37*
G04 #@! TD.AperFunction*
G04 #@! TA.AperFunction,SMDPad,CuDef*
G04 #@! TO.P,R9,1*
G04 #@! TO.N,Net-(Q1-Pad3)*
G36*
X114646142Y-74993174D02*
G01*
X114669803Y-74996684D01*
X114693007Y-75002496D01*
X114715529Y-75010554D01*
X114737153Y-75020782D01*
X114757670Y-75033079D01*
X114776883Y-75047329D01*
X114794607Y-75063393D01*
X114810671Y-75081117D01*
X114824921Y-75100330D01*
X114837218Y-75120847D01*
X114847446Y-75142471D01*
X114855504Y-75164993D01*
X114861316Y-75188197D01*
X114864826Y-75211858D01*
X114866000Y-75235750D01*
X114866000Y-76148250D01*
X114864826Y-76172142D01*
X114861316Y-76195803D01*
X114855504Y-76219007D01*
X114847446Y-76241529D01*
X114837218Y-76263153D01*
X114824921Y-76283670D01*
X114810671Y-76302883D01*
X114794607Y-76320607D01*
X114776883Y-76336671D01*
X114757670Y-76350921D01*
X114737153Y-76363218D01*
X114715529Y-76373446D01*
X114693007Y-76381504D01*
X114669803Y-76387316D01*
X114646142Y-76390826D01*
X114622250Y-76392000D01*
X114134750Y-76392000D01*
X114110858Y-76390826D01*
X114087197Y-76387316D01*
X114063993Y-76381504D01*
X114041471Y-76373446D01*
X114019847Y-76363218D01*
X113999330Y-76350921D01*
X113980117Y-76336671D01*
X113962393Y-76320607D01*
X113946329Y-76302883D01*
X113932079Y-76283670D01*
X113919782Y-76263153D01*
X113909554Y-76241529D01*
X113901496Y-76219007D01*
X113895684Y-76195803D01*
X113892174Y-76172142D01*
X113891000Y-76148250D01*
X113891000Y-75235750D01*
X113892174Y-75211858D01*
X113895684Y-75188197D01*
X113901496Y-75164993D01*
X113909554Y-75142471D01*
X113919782Y-75120847D01*
X113932079Y-75100330D01*
X113946329Y-75081117D01*
X113962393Y-75063393D01*
X113980117Y-75047329D01*
X113999330Y-75033079D01*
X114019847Y-75020782D01*
X114041471Y-75010554D01*
X114063993Y-75002496D01*
X114087197Y-74996684D01*
X114110858Y-74993174D01*
X114134750Y-74992000D01*
X114622250Y-74992000D01*
X114646142Y-74993174D01*
G37*
G04 #@! TD.AperFunction*
G04 #@! TD*
G04 #@! TA.AperFunction,SMDPad,CuDef*
G04 #@! TO.P,R8,2*
G04 #@! TO.N,+5V*
G36*
X166914742Y-74180374D02*
G01*
X166938403Y-74183884D01*
X166961607Y-74189696D01*
X166984129Y-74197754D01*
X167005753Y-74207982D01*
X167026270Y-74220279D01*
X167045483Y-74234529D01*
X167063207Y-74250593D01*
X167079271Y-74268317D01*
X167093521Y-74287530D01*
X167105818Y-74308047D01*
X167116046Y-74329671D01*
X167124104Y-74352193D01*
X167129916Y-74375397D01*
X167133426Y-74399058D01*
X167134600Y-74422950D01*
X167134600Y-75335450D01*
X167133426Y-75359342D01*
X167129916Y-75383003D01*
X167124104Y-75406207D01*
X167116046Y-75428729D01*
X167105818Y-75450353D01*
X167093521Y-75470870D01*
X167079271Y-75490083D01*
X167063207Y-75507807D01*
X167045483Y-75523871D01*
X167026270Y-75538121D01*
X167005753Y-75550418D01*
X166984129Y-75560646D01*
X166961607Y-75568704D01*
X166938403Y-75574516D01*
X166914742Y-75578026D01*
X166890850Y-75579200D01*
X166403350Y-75579200D01*
X166379458Y-75578026D01*
X166355797Y-75574516D01*
X166332593Y-75568704D01*
X166310071Y-75560646D01*
X166288447Y-75550418D01*
X166267930Y-75538121D01*
X166248717Y-75523871D01*
X166230993Y-75507807D01*
X166214929Y-75490083D01*
X166200679Y-75470870D01*
X166188382Y-75450353D01*
X166178154Y-75428729D01*
X166170096Y-75406207D01*
X166164284Y-75383003D01*
X166160774Y-75359342D01*
X166159600Y-75335450D01*
X166159600Y-74422950D01*
X166160774Y-74399058D01*
X166164284Y-74375397D01*
X166170096Y-74352193D01*
X166178154Y-74329671D01*
X166188382Y-74308047D01*
X166200679Y-74287530D01*
X166214929Y-74268317D01*
X166230993Y-74250593D01*
X166248717Y-74234529D01*
X166267930Y-74220279D01*
X166288447Y-74207982D01*
X166310071Y-74197754D01*
X166332593Y-74189696D01*
X166355797Y-74183884D01*
X166379458Y-74180374D01*
X166403350Y-74179200D01*
X166890850Y-74179200D01*
X166914742Y-74180374D01*
G37*
G04 #@! TD.AperFunction*
G04 #@! TA.AperFunction,SMDPad,CuDef*
G04 #@! TO.P,R8,1*
G04 #@! TO.N,Net-(R8-Pad1)*
G36*
X165039742Y-74180374D02*
G01*
X165063403Y-74183884D01*
X165086607Y-74189696D01*
X165109129Y-74197754D01*
X165130753Y-74207982D01*
X165151270Y-74220279D01*
X165170483Y-74234529D01*
X165188207Y-74250593D01*
X165204271Y-74268317D01*
X165218521Y-74287530D01*
X165230818Y-74308047D01*
X165241046Y-74329671D01*
X165249104Y-74352193D01*
X165254916Y-74375397D01*
X165258426Y-74399058D01*
X165259600Y-74422950D01*
X165259600Y-75335450D01*
X165258426Y-75359342D01*
X165254916Y-75383003D01*
X165249104Y-75406207D01*
X165241046Y-75428729D01*
X165230818Y-75450353D01*
X165218521Y-75470870D01*
X165204271Y-75490083D01*
X165188207Y-75507807D01*
X165170483Y-75523871D01*
X165151270Y-75538121D01*
X165130753Y-75550418D01*
X165109129Y-75560646D01*
X165086607Y-75568704D01*
X165063403Y-75574516D01*
X165039742Y-75578026D01*
X165015850Y-75579200D01*
X164528350Y-75579200D01*
X164504458Y-75578026D01*
X164480797Y-75574516D01*
X164457593Y-75568704D01*
X164435071Y-75560646D01*
X164413447Y-75550418D01*
X164392930Y-75538121D01*
X164373717Y-75523871D01*
X164355993Y-75507807D01*
X164339929Y-75490083D01*
X164325679Y-75470870D01*
X164313382Y-75450353D01*
X164303154Y-75428729D01*
X164295096Y-75406207D01*
X164289284Y-75383003D01*
X164285774Y-75359342D01*
X164284600Y-75335450D01*
X164284600Y-74422950D01*
X164285774Y-74399058D01*
X164289284Y-74375397D01*
X164295096Y-74352193D01*
X164303154Y-74329671D01*
X164313382Y-74308047D01*
X164325679Y-74287530D01*
X164339929Y-74268317D01*
X164355993Y-74250593D01*
X164373717Y-74234529D01*
X164392930Y-74220279D01*
X164413447Y-74207982D01*
X164435071Y-74197754D01*
X164457593Y-74189696D01*
X164480797Y-74183884D01*
X164504458Y-74180374D01*
X164528350Y-74179200D01*
X165015850Y-74179200D01*
X165039742Y-74180374D01*
G37*
G04 #@! TD.AperFunction*
G04 #@! TD*
G04 #@! TA.AperFunction,SMDPad,CuDef*
G04 #@! TO.P,R3,2*
G04 #@! TO.N,Net-(R3-Pad2)*
G36*
X137386142Y-75030174D02*
G01*
X137409803Y-75033684D01*
X137433007Y-75039496D01*
X137455529Y-75047554D01*
X137477153Y-75057782D01*
X137497670Y-75070079D01*
X137516883Y-75084329D01*
X137534607Y-75100393D01*
X137550671Y-75118117D01*
X137564921Y-75137330D01*
X137577218Y-75157847D01*
X137587446Y-75179471D01*
X137595504Y-75201993D01*
X137601316Y-75225197D01*
X137604826Y-75248858D01*
X137606000Y-75272750D01*
X137606000Y-75760250D01*
X137604826Y-75784142D01*
X137601316Y-75807803D01*
X137595504Y-75831007D01*
X137587446Y-75853529D01*
X137577218Y-75875153D01*
X137564921Y-75895670D01*
X137550671Y-75914883D01*
X137534607Y-75932607D01*
X137516883Y-75948671D01*
X137497670Y-75962921D01*
X137477153Y-75975218D01*
X137455529Y-75985446D01*
X137433007Y-75993504D01*
X137409803Y-75999316D01*
X137386142Y-76002826D01*
X137362250Y-76004000D01*
X136449750Y-76004000D01*
X136425858Y-76002826D01*
X136402197Y-75999316D01*
X136378993Y-75993504D01*
X136356471Y-75985446D01*
X136334847Y-75975218D01*
X136314330Y-75962921D01*
X136295117Y-75948671D01*
X136277393Y-75932607D01*
X136261329Y-75914883D01*
X136247079Y-75895670D01*
X136234782Y-75875153D01*
X136224554Y-75853529D01*
X136216496Y-75831007D01*
X136210684Y-75807803D01*
X136207174Y-75784142D01*
X136206000Y-75760250D01*
X136206000Y-75272750D01*
X136207174Y-75248858D01*
X136210684Y-75225197D01*
X136216496Y-75201993D01*
X136224554Y-75179471D01*
X136234782Y-75157847D01*
X136247079Y-75137330D01*
X136261329Y-75118117D01*
X136277393Y-75100393D01*
X136295117Y-75084329D01*
X136314330Y-75070079D01*
X136334847Y-75057782D01*
X136356471Y-75047554D01*
X136378993Y-75039496D01*
X136402197Y-75033684D01*
X136425858Y-75030174D01*
X136449750Y-75029000D01*
X137362250Y-75029000D01*
X137386142Y-75030174D01*
G37*
G04 #@! TD.AperFunction*
G04 #@! TA.AperFunction,SMDPad,CuDef*
G04 #@! TO.P,R3,1*
G04 #@! TO.N,Net-(R3-Pad1)*
G36*
X137386142Y-76905174D02*
G01*
X137409803Y-76908684D01*
X137433007Y-76914496D01*
X137455529Y-76922554D01*
X137477153Y-76932782D01*
X137497670Y-76945079D01*
X137516883Y-76959329D01*
X137534607Y-76975393D01*
X137550671Y-76993117D01*
X137564921Y-77012330D01*
X137577218Y-77032847D01*
X137587446Y-77054471D01*
X137595504Y-77076993D01*
X137601316Y-77100197D01*
X137604826Y-77123858D01*
X137606000Y-77147750D01*
X137606000Y-77635250D01*
X137604826Y-77659142D01*
X137601316Y-77682803D01*
X137595504Y-77706007D01*
X137587446Y-77728529D01*
X137577218Y-77750153D01*
X137564921Y-77770670D01*
X137550671Y-77789883D01*
X137534607Y-77807607D01*
X137516883Y-77823671D01*
X137497670Y-77837921D01*
X137477153Y-77850218D01*
X137455529Y-77860446D01*
X137433007Y-77868504D01*
X137409803Y-77874316D01*
X137386142Y-77877826D01*
X137362250Y-77879000D01*
X136449750Y-77879000D01*
X136425858Y-77877826D01*
X136402197Y-77874316D01*
X136378993Y-77868504D01*
X136356471Y-77860446D01*
X136334847Y-77850218D01*
X136314330Y-77837921D01*
X136295117Y-77823671D01*
X136277393Y-77807607D01*
X136261329Y-77789883D01*
X136247079Y-77770670D01*
X136234782Y-77750153D01*
X136224554Y-77728529D01*
X136216496Y-77706007D01*
X136210684Y-77682803D01*
X136207174Y-77659142D01*
X136206000Y-77635250D01*
X136206000Y-77147750D01*
X136207174Y-77123858D01*
X136210684Y-77100197D01*
X136216496Y-77076993D01*
X136224554Y-77054471D01*
X136234782Y-77032847D01*
X136247079Y-77012330D01*
X136261329Y-76993117D01*
X136277393Y-76975393D01*
X136295117Y-76959329D01*
X136314330Y-76945079D01*
X136334847Y-76932782D01*
X136356471Y-76922554D01*
X136378993Y-76914496D01*
X136402197Y-76908684D01*
X136425858Y-76905174D01*
X136449750Y-76904000D01*
X137362250Y-76904000D01*
X137386142Y-76905174D01*
G37*
G04 #@! TD.AperFunction*
G04 #@! TD*
G04 #@! TA.AperFunction,SMDPad,CuDef*
G04 #@! TO.P,R1,2*
G04 #@! TO.N,/GPIO5*
G36*
X112240142Y-65632174D02*
G01*
X112263803Y-65635684D01*
X112287007Y-65641496D01*
X112309529Y-65649554D01*
X112331153Y-65659782D01*
X112351670Y-65672079D01*
X112370883Y-65686329D01*
X112388607Y-65702393D01*
X112404671Y-65720117D01*
X112418921Y-65739330D01*
X112431218Y-65759847D01*
X112441446Y-65781471D01*
X112449504Y-65803993D01*
X112455316Y-65827197D01*
X112458826Y-65850858D01*
X112460000Y-65874750D01*
X112460000Y-66362250D01*
X112458826Y-66386142D01*
X112455316Y-66409803D01*
X112449504Y-66433007D01*
X112441446Y-66455529D01*
X112431218Y-66477153D01*
X112418921Y-66497670D01*
X112404671Y-66516883D01*
X112388607Y-66534607D01*
X112370883Y-66550671D01*
X112351670Y-66564921D01*
X112331153Y-66577218D01*
X112309529Y-66587446D01*
X112287007Y-66595504D01*
X112263803Y-66601316D01*
X112240142Y-66604826D01*
X112216250Y-66606000D01*
X111303750Y-66606000D01*
X111279858Y-66604826D01*
X111256197Y-66601316D01*
X111232993Y-66595504D01*
X111210471Y-66587446D01*
X111188847Y-66577218D01*
X111168330Y-66564921D01*
X111149117Y-66550671D01*
X111131393Y-66534607D01*
X111115329Y-66516883D01*
X111101079Y-66497670D01*
X111088782Y-66477153D01*
X111078554Y-66455529D01*
X111070496Y-66433007D01*
X111064684Y-66409803D01*
X111061174Y-66386142D01*
X111060000Y-66362250D01*
X111060000Y-65874750D01*
X111061174Y-65850858D01*
X111064684Y-65827197D01*
X111070496Y-65803993D01*
X111078554Y-65781471D01*
X111088782Y-65759847D01*
X111101079Y-65739330D01*
X111115329Y-65720117D01*
X111131393Y-65702393D01*
X111149117Y-65686329D01*
X111168330Y-65672079D01*
X111188847Y-65659782D01*
X111210471Y-65649554D01*
X111232993Y-65641496D01*
X111256197Y-65635684D01*
X111279858Y-65632174D01*
X111303750Y-65631000D01*
X112216250Y-65631000D01*
X112240142Y-65632174D01*
G37*
G04 #@! TD.AperFunction*
G04 #@! TA.AperFunction,SMDPad,CuDef*
G04 #@! TO.P,R1,1*
G04 #@! TO.N,Net-(Q1-Pad2)*
G36*
X112240142Y-67507174D02*
G01*
X112263803Y-67510684D01*
X112287007Y-67516496D01*
X112309529Y-67524554D01*
X112331153Y-67534782D01*
X112351670Y-67547079D01*
X112370883Y-67561329D01*
X112388607Y-67577393D01*
X112404671Y-67595117D01*
X112418921Y-67614330D01*
X112431218Y-67634847D01*
X112441446Y-67656471D01*
X112449504Y-67678993D01*
X112455316Y-67702197D01*
X112458826Y-67725858D01*
X112460000Y-67749750D01*
X112460000Y-68237250D01*
X112458826Y-68261142D01*
X112455316Y-68284803D01*
X112449504Y-68308007D01*
X112441446Y-68330529D01*
X112431218Y-68352153D01*
X112418921Y-68372670D01*
X112404671Y-68391883D01*
X112388607Y-68409607D01*
X112370883Y-68425671D01*
X112351670Y-68439921D01*
X112331153Y-68452218D01*
X112309529Y-68462446D01*
X112287007Y-68470504D01*
X112263803Y-68476316D01*
X112240142Y-68479826D01*
X112216250Y-68481000D01*
X111303750Y-68481000D01*
X111279858Y-68479826D01*
X111256197Y-68476316D01*
X111232993Y-68470504D01*
X111210471Y-68462446D01*
X111188847Y-68452218D01*
X111168330Y-68439921D01*
X111149117Y-68425671D01*
X111131393Y-68409607D01*
X111115329Y-68391883D01*
X111101079Y-68372670D01*
X111088782Y-68352153D01*
X111078554Y-68330529D01*
X111070496Y-68308007D01*
X111064684Y-68284803D01*
X111061174Y-68261142D01*
X111060000Y-68237250D01*
X111060000Y-67749750D01*
X111061174Y-67725858D01*
X111064684Y-67702197D01*
X111070496Y-67678993D01*
X111078554Y-67656471D01*
X111088782Y-67634847D01*
X111101079Y-67614330D01*
X111115329Y-67595117D01*
X111131393Y-67577393D01*
X111149117Y-67561329D01*
X111168330Y-67547079D01*
X111188847Y-67534782D01*
X111210471Y-67524554D01*
X111232993Y-67516496D01*
X111256197Y-67510684D01*
X111279858Y-67507174D01*
X111303750Y-67506000D01*
X112216250Y-67506000D01*
X112240142Y-67507174D01*
G37*
G04 #@! TD.AperFunction*
G04 #@! TD*
D13*
G04 #@! TO.P,Q1,3*
G04 #@! TO.N,Net-(Q1-Pad3)*
X113284000Y-72628000D03*
G04 #@! TO.P,Q1,2*
G04 #@! TO.N,Net-(Q1-Pad2)*
X112334000Y-70628000D03*
G04 #@! TO.P,Q1,1*
G04 #@! TO.N,+3V3*
X114234000Y-70628000D03*
G04 #@! TD*
D10*
G04 #@! TO.P,J9,4*
G04 #@! TO.N,Net-(J9-Pad4)*
X142360000Y-68580000D03*
G04 #@! TO.P,J9,3*
G04 #@! TO.N,Net-(J9-Pad3)*
X144860000Y-68580000D03*
G04 #@! TO.P,J9,2*
G04 #@! TO.N,Net-(J9-Pad2)*
X147360000Y-68580000D03*
G04 #@! TA.AperFunction,ComponentPad*
D11*
G04 #@! TO.P,J9,1*
G04 #@! TO.N,+5V*
G36*
X150484504Y-67606204D02*
G01*
X150508773Y-67609804D01*
X150532571Y-67615765D01*
X150555671Y-67624030D01*
X150577849Y-67634520D01*
X150598893Y-67647133D01*
X150618598Y-67661747D01*
X150636777Y-67678223D01*
X150653253Y-67696402D01*
X150667867Y-67716107D01*
X150680480Y-67737151D01*
X150690970Y-67759329D01*
X150699235Y-67782429D01*
X150705196Y-67806227D01*
X150708796Y-67830496D01*
X150710000Y-67855000D01*
X150710000Y-69305000D01*
X150708796Y-69329504D01*
X150705196Y-69353773D01*
X150699235Y-69377571D01*
X150690970Y-69400671D01*
X150680480Y-69422849D01*
X150667867Y-69443893D01*
X150653253Y-69463598D01*
X150636777Y-69481777D01*
X150618598Y-69498253D01*
X150598893Y-69512867D01*
X150577849Y-69525480D01*
X150555671Y-69535970D01*
X150532571Y-69544235D01*
X150508773Y-69550196D01*
X150484504Y-69553796D01*
X150460000Y-69555000D01*
X149260000Y-69555000D01*
X149235496Y-69553796D01*
X149211227Y-69550196D01*
X149187429Y-69544235D01*
X149164329Y-69535970D01*
X149142151Y-69525480D01*
X149121107Y-69512867D01*
X149101402Y-69498253D01*
X149083223Y-69481777D01*
X149066747Y-69463598D01*
X149052133Y-69443893D01*
X149039520Y-69422849D01*
X149029030Y-69400671D01*
X149020765Y-69377571D01*
X149014804Y-69353773D01*
X149011204Y-69329504D01*
X149010000Y-69305000D01*
X149010000Y-67855000D01*
X149011204Y-67830496D01*
X149014804Y-67806227D01*
X149020765Y-67782429D01*
X149029030Y-67759329D01*
X149039520Y-67737151D01*
X149052133Y-67716107D01*
X149066747Y-67696402D01*
X149083223Y-67678223D01*
X149101402Y-67661747D01*
X149121107Y-67647133D01*
X149142151Y-67634520D01*
X149164329Y-67624030D01*
X149187429Y-67615765D01*
X149211227Y-67609804D01*
X149235496Y-67606204D01*
X149260000Y-67605000D01*
X150460000Y-67605000D01*
X150484504Y-67606204D01*
G37*
G04 #@! TD.AperFunction*
G04 #@! TD*
D10*
G04 #@! TO.P,J8,4*
G04 #@! TO.N,Net-(J8-Pad4)*
X164980000Y-81280000D03*
G04 #@! TO.P,J8,3*
G04 #@! TO.N,Net-(J8-Pad3)*
X162480000Y-81280000D03*
G04 #@! TO.P,J8,2*
G04 #@! TO.N,Net-(J8-Pad2)*
X159980000Y-81280000D03*
G04 #@! TA.AperFunction,ComponentPad*
D11*
G04 #@! TO.P,J8,1*
G04 #@! TO.N,+5V*
G36*
X158104504Y-80306204D02*
G01*
X158128773Y-80309804D01*
X158152571Y-80315765D01*
X158175671Y-80324030D01*
X158197849Y-80334520D01*
X158218893Y-80347133D01*
X158238598Y-80361747D01*
X158256777Y-80378223D01*
X158273253Y-80396402D01*
X158287867Y-80416107D01*
X158300480Y-80437151D01*
X158310970Y-80459329D01*
X158319235Y-80482429D01*
X158325196Y-80506227D01*
X158328796Y-80530496D01*
X158330000Y-80555000D01*
X158330000Y-82005000D01*
X158328796Y-82029504D01*
X158325196Y-82053773D01*
X158319235Y-82077571D01*
X158310970Y-82100671D01*
X158300480Y-82122849D01*
X158287867Y-82143893D01*
X158273253Y-82163598D01*
X158256777Y-82181777D01*
X158238598Y-82198253D01*
X158218893Y-82212867D01*
X158197849Y-82225480D01*
X158175671Y-82235970D01*
X158152571Y-82244235D01*
X158128773Y-82250196D01*
X158104504Y-82253796D01*
X158080000Y-82255000D01*
X156880000Y-82255000D01*
X156855496Y-82253796D01*
X156831227Y-82250196D01*
X156807429Y-82244235D01*
X156784329Y-82235970D01*
X156762151Y-82225480D01*
X156741107Y-82212867D01*
X156721402Y-82198253D01*
X156703223Y-82181777D01*
X156686747Y-82163598D01*
X156672133Y-82143893D01*
X156659520Y-82122849D01*
X156649030Y-82100671D01*
X156640765Y-82077571D01*
X156634804Y-82053773D01*
X156631204Y-82029504D01*
X156630000Y-82005000D01*
X156630000Y-80555000D01*
X156631204Y-80530496D01*
X156634804Y-80506227D01*
X156640765Y-80482429D01*
X156649030Y-80459329D01*
X156659520Y-80437151D01*
X156672133Y-80416107D01*
X156686747Y-80396402D01*
X156703223Y-80378223D01*
X156721402Y-80361747D01*
X156741107Y-80347133D01*
X156762151Y-80334520D01*
X156784329Y-80324030D01*
X156807429Y-80315765D01*
X156831227Y-80309804D01*
X156855496Y-80306204D01*
X156880000Y-80305000D01*
X158080000Y-80305000D01*
X158104504Y-80306204D01*
G37*
G04 #@! TD.AperFunction*
G04 #@! TD*
D14*
G04 #@! TO.P,J6,2*
G04 #@! TO.N,/GPIO16*
X101640000Y-68580000D03*
G04 #@! TA.AperFunction,ComponentPad*
D11*
G04 #@! TO.P,J6,1*
G04 #@! TO.N,GND*
G36*
X104764504Y-67581204D02*
G01*
X104788773Y-67584804D01*
X104812571Y-67590765D01*
X104835671Y-67599030D01*
X104857849Y-67609520D01*
X104878893Y-67622133D01*
X104898598Y-67636747D01*
X104916777Y-67653223D01*
X104933253Y-67671402D01*
X104947867Y-67691107D01*
X104960480Y-67712151D01*
X104970970Y-67734329D01*
X104979235Y-67757429D01*
X104985196Y-67781227D01*
X104988796Y-67805496D01*
X104990000Y-67830000D01*
X104990000Y-69330000D01*
X104988796Y-69354504D01*
X104985196Y-69378773D01*
X104979235Y-69402571D01*
X104970970Y-69425671D01*
X104960480Y-69447849D01*
X104947867Y-69468893D01*
X104933253Y-69488598D01*
X104916777Y-69506777D01*
X104898598Y-69523253D01*
X104878893Y-69537867D01*
X104857849Y-69550480D01*
X104835671Y-69560970D01*
X104812571Y-69569235D01*
X104788773Y-69575196D01*
X104764504Y-69578796D01*
X104740000Y-69580000D01*
X103540000Y-69580000D01*
X103515496Y-69578796D01*
X103491227Y-69575196D01*
X103467429Y-69569235D01*
X103444329Y-69560970D01*
X103422151Y-69550480D01*
X103401107Y-69537867D01*
X103381402Y-69523253D01*
X103363223Y-69506777D01*
X103346747Y-69488598D01*
X103332133Y-69468893D01*
X103319520Y-69447849D01*
X103309030Y-69425671D01*
X103300765Y-69402571D01*
X103294804Y-69378773D01*
X103291204Y-69354504D01*
X103290000Y-69330000D01*
X103290000Y-67830000D01*
X103291204Y-67805496D01*
X103294804Y-67781227D01*
X103300765Y-67757429D01*
X103309030Y-67734329D01*
X103319520Y-67712151D01*
X103332133Y-67691107D01*
X103346747Y-67671402D01*
X103363223Y-67653223D01*
X103381402Y-67636747D01*
X103401107Y-67622133D01*
X103422151Y-67609520D01*
X103444329Y-67599030D01*
X103467429Y-67590765D01*
X103491227Y-67584804D01*
X103515496Y-67581204D01*
X103540000Y-67580000D01*
X104740000Y-67580000D01*
X104764504Y-67581204D01*
G37*
G04 #@! TD.AperFunction*
G04 #@! TD*
D14*
G04 #@! TO.P,J5,2*
G04 #@! TO.N,/GPIO15*
X91480000Y-68580000D03*
G04 #@! TA.AperFunction,ComponentPad*
D11*
G04 #@! TO.P,J5,1*
G04 #@! TO.N,GND*
G36*
X94604504Y-67581204D02*
G01*
X94628773Y-67584804D01*
X94652571Y-67590765D01*
X94675671Y-67599030D01*
X94697849Y-67609520D01*
X94718893Y-67622133D01*
X94738598Y-67636747D01*
X94756777Y-67653223D01*
X94773253Y-67671402D01*
X94787867Y-67691107D01*
X94800480Y-67712151D01*
X94810970Y-67734329D01*
X94819235Y-67757429D01*
X94825196Y-67781227D01*
X94828796Y-67805496D01*
X94830000Y-67830000D01*
X94830000Y-69330000D01*
X94828796Y-69354504D01*
X94825196Y-69378773D01*
X94819235Y-69402571D01*
X94810970Y-69425671D01*
X94800480Y-69447849D01*
X94787867Y-69468893D01*
X94773253Y-69488598D01*
X94756777Y-69506777D01*
X94738598Y-69523253D01*
X94718893Y-69537867D01*
X94697849Y-69550480D01*
X94675671Y-69560970D01*
X94652571Y-69569235D01*
X94628773Y-69575196D01*
X94604504Y-69578796D01*
X94580000Y-69580000D01*
X93380000Y-69580000D01*
X93355496Y-69578796D01*
X93331227Y-69575196D01*
X93307429Y-69569235D01*
X93284329Y-69560970D01*
X93262151Y-69550480D01*
X93241107Y-69537867D01*
X93221402Y-69523253D01*
X93203223Y-69506777D01*
X93186747Y-69488598D01*
X93172133Y-69468893D01*
X93159520Y-69447849D01*
X93149030Y-69425671D01*
X93140765Y-69402571D01*
X93134804Y-69378773D01*
X93131204Y-69354504D01*
X93130000Y-69330000D01*
X93130000Y-67830000D01*
X93131204Y-67805496D01*
X93134804Y-67781227D01*
X93140765Y-67757429D01*
X93149030Y-67734329D01*
X93159520Y-67712151D01*
X93172133Y-67691107D01*
X93186747Y-67671402D01*
X93203223Y-67653223D01*
X93221402Y-67636747D01*
X93241107Y-67622133D01*
X93262151Y-67609520D01*
X93284329Y-67599030D01*
X93307429Y-67590765D01*
X93331227Y-67584804D01*
X93355496Y-67581204D01*
X93380000Y-67580000D01*
X94580000Y-67580000D01*
X94604504Y-67581204D01*
G37*
G04 #@! TD.AperFunction*
G04 #@! TD*
D14*
G04 #@! TO.P,J4,2*
G04 #@! TO.N,/GPIO14*
X93940000Y-81280000D03*
G04 #@! TA.AperFunction,ComponentPad*
D11*
G04 #@! TO.P,J4,1*
G04 #@! TO.N,GND*
G36*
X92064504Y-80281204D02*
G01*
X92088773Y-80284804D01*
X92112571Y-80290765D01*
X92135671Y-80299030D01*
X92157849Y-80309520D01*
X92178893Y-80322133D01*
X92198598Y-80336747D01*
X92216777Y-80353223D01*
X92233253Y-80371402D01*
X92247867Y-80391107D01*
X92260480Y-80412151D01*
X92270970Y-80434329D01*
X92279235Y-80457429D01*
X92285196Y-80481227D01*
X92288796Y-80505496D01*
X92290000Y-80530000D01*
X92290000Y-82030000D01*
X92288796Y-82054504D01*
X92285196Y-82078773D01*
X92279235Y-82102571D01*
X92270970Y-82125671D01*
X92260480Y-82147849D01*
X92247867Y-82168893D01*
X92233253Y-82188598D01*
X92216777Y-82206777D01*
X92198598Y-82223253D01*
X92178893Y-82237867D01*
X92157849Y-82250480D01*
X92135671Y-82260970D01*
X92112571Y-82269235D01*
X92088773Y-82275196D01*
X92064504Y-82278796D01*
X92040000Y-82280000D01*
X90840000Y-82280000D01*
X90815496Y-82278796D01*
X90791227Y-82275196D01*
X90767429Y-82269235D01*
X90744329Y-82260970D01*
X90722151Y-82250480D01*
X90701107Y-82237867D01*
X90681402Y-82223253D01*
X90663223Y-82206777D01*
X90646747Y-82188598D01*
X90632133Y-82168893D01*
X90619520Y-82147849D01*
X90609030Y-82125671D01*
X90600765Y-82102571D01*
X90594804Y-82078773D01*
X90591204Y-82054504D01*
X90590000Y-82030000D01*
X90590000Y-80530000D01*
X90591204Y-80505496D01*
X90594804Y-80481227D01*
X90600765Y-80457429D01*
X90609030Y-80434329D01*
X90619520Y-80412151D01*
X90632133Y-80391107D01*
X90646747Y-80371402D01*
X90663223Y-80353223D01*
X90681402Y-80336747D01*
X90701107Y-80322133D01*
X90722151Y-80309520D01*
X90744329Y-80299030D01*
X90767429Y-80290765D01*
X90791227Y-80284804D01*
X90815496Y-80281204D01*
X90840000Y-80280000D01*
X92040000Y-80280000D01*
X92064504Y-80281204D01*
G37*
G04 #@! TD.AperFunction*
G04 #@! TD*
D14*
G04 #@! TO.P,J3,2*
G04 #@! TO.N,/GPIO13*
X104100000Y-81280000D03*
G04 #@! TA.AperFunction,ComponentPad*
D11*
G04 #@! TO.P,J3,1*
G04 #@! TO.N,GND*
G36*
X102224504Y-80281204D02*
G01*
X102248773Y-80284804D01*
X102272571Y-80290765D01*
X102295671Y-80299030D01*
X102317849Y-80309520D01*
X102338893Y-80322133D01*
X102358598Y-80336747D01*
X102376777Y-80353223D01*
X102393253Y-80371402D01*
X102407867Y-80391107D01*
X102420480Y-80412151D01*
X102430970Y-80434329D01*
X102439235Y-80457429D01*
X102445196Y-80481227D01*
X102448796Y-80505496D01*
X102450000Y-80530000D01*
X102450000Y-82030000D01*
X102448796Y-82054504D01*
X102445196Y-82078773D01*
X102439235Y-82102571D01*
X102430970Y-82125671D01*
X102420480Y-82147849D01*
X102407867Y-82168893D01*
X102393253Y-82188598D01*
X102376777Y-82206777D01*
X102358598Y-82223253D01*
X102338893Y-82237867D01*
X102317849Y-82250480D01*
X102295671Y-82260970D01*
X102272571Y-82269235D01*
X102248773Y-82275196D01*
X102224504Y-82278796D01*
X102200000Y-82280000D01*
X101000000Y-82280000D01*
X100975496Y-82278796D01*
X100951227Y-82275196D01*
X100927429Y-82269235D01*
X100904329Y-82260970D01*
X100882151Y-82250480D01*
X100861107Y-82237867D01*
X100841402Y-82223253D01*
X100823223Y-82206777D01*
X100806747Y-82188598D01*
X100792133Y-82168893D01*
X100779520Y-82147849D01*
X100769030Y-82125671D01*
X100760765Y-82102571D01*
X100754804Y-82078773D01*
X100751204Y-82054504D01*
X100750000Y-82030000D01*
X100750000Y-80530000D01*
X100751204Y-80505496D01*
X100754804Y-80481227D01*
X100760765Y-80457429D01*
X100769030Y-80434329D01*
X100779520Y-80412151D01*
X100792133Y-80391107D01*
X100806747Y-80371402D01*
X100823223Y-80353223D01*
X100841402Y-80336747D01*
X100861107Y-80322133D01*
X100882151Y-80309520D01*
X100904329Y-80299030D01*
X100927429Y-80290765D01*
X100951227Y-80284804D01*
X100975496Y-80281204D01*
X101000000Y-80280000D01*
X102200000Y-80280000D01*
X102224504Y-80281204D01*
G37*
G04 #@! TD.AperFunction*
G04 #@! TD*
D15*
G04 #@! TO.P,J2,10*
G04 #@! TO.N,/GPIO13*
X111760000Y-87630000D03*
G04 #@! TO.P,J2,9*
G04 #@! TO.N,/GPIO14*
X114300000Y-87630000D03*
G04 #@! TO.P,J2,8*
G04 #@! TO.N,/GPIO15*
X116840000Y-87630000D03*
G04 #@! TO.P,J2,7*
G04 #@! TO.N,/GPIO16*
X119380000Y-87630000D03*
G04 #@! TO.P,J2,6*
G04 #@! TO.N,/GPIO32*
X121920000Y-87630000D03*
G04 #@! TO.P,J2,5*
G04 #@! TO.N,/GPIO33*
X124460000Y-87630000D03*
G04 #@! TO.P,J2,4*
G04 #@! TO.N,/GPI34*
X127000000Y-87630000D03*
G04 #@! TO.P,J2,3*
G04 #@! TO.N,/GPI35*
X129540000Y-87630000D03*
G04 #@! TO.P,J2,2*
G04 #@! TO.N,/GPI36*
X132080000Y-87630000D03*
D16*
G04 #@! TO.P,J2,1*
G04 #@! TO.N,/GPI39*
X134620000Y-87630000D03*
G04 #@! TD*
D15*
G04 #@! TO.P,J1,10*
G04 #@! TO.N,/GPIO5*
X111760000Y-62230000D03*
G04 #@! TO.P,J1,9*
G04 #@! TO.N,/GPIO4*
X114300000Y-62230000D03*
G04 #@! TO.P,J1,8*
G04 #@! TO.N,/GPIO3*
X116840000Y-62230000D03*
G04 #@! TO.P,J1,7*
G04 #@! TO.N,/GPIO2*
X119380000Y-62230000D03*
G04 #@! TO.P,J1,6*
G04 #@! TO.N,/GPIO1*
X121920000Y-62230000D03*
G04 #@! TO.P,J1,5*
G04 #@! TO.N,/GPIO0*
X124460000Y-62230000D03*
G04 #@! TO.P,J1,4*
G04 #@! TO.N,/ESP_EN*
X127000000Y-62230000D03*
G04 #@! TO.P,J1,3*
G04 #@! TO.N,GND*
X129540000Y-62230000D03*
G04 #@! TO.P,J1,2*
G04 #@! TO.N,+3V3*
X132080000Y-62230000D03*
D16*
G04 #@! TO.P,J1,1*
G04 #@! TO.N,+5V*
X134620000Y-62230000D03*
G04 #@! TD*
D17*
G04 #@! TO.N,*
X108458000Y-65024000D03*
X99060000Y-74422000D03*
X90932000Y-75438000D03*
X92964000Y-61722000D03*
X97790000Y-84582000D03*
X89916000Y-89408000D03*
X117856000Y-90170000D03*
G04 #@! TO.N,Net-(Q1-Pad3)*
X117348000Y-80772000D03*
G04 #@! TO.N,GND*
X142087600Y-60426600D03*
X153365200Y-76835000D03*
X135991600Y-73126600D03*
X124129800Y-65278000D03*
G04 #@! TO.N,+5V*
X141224000Y-76200000D03*
X119380000Y-77216000D03*
G04 #@! TO.N,Net-(R3-Pad2)*
X132613400Y-72313800D03*
G04 #@! TO.N,Net-(R3-Pad1)*
X139496800Y-77317600D03*
G04 #@! TO.N,Net-(R4-Pad1)*
X138861800Y-87045800D03*
X131927600Y-73990200D03*
G04 #@! TO.N,Net-(R8-Pad1)*
X162966400Y-74879200D03*
G04 #@! TD*
D18*
G04 #@! TO.N,Net-(Q1-Pad3)*
X113284000Y-74597500D02*
X114378500Y-75692000D01*
X113284000Y-72628000D02*
X113284000Y-74597500D01*
X114378500Y-75692000D02*
X114378500Y-77802500D01*
X114378500Y-77802500D02*
X117348000Y-80772000D01*
G04 #@! TO.N,Net-(Q1-Pad2)*
X112334000Y-68567500D02*
X111760000Y-67993500D01*
X112334000Y-70628000D02*
X112334000Y-68567500D01*
X112111000Y-67642500D02*
X111760000Y-67993500D01*
X116840000Y-67642500D02*
X112111000Y-67642500D01*
G04 #@! TO.N,/GPIO5*
X111760000Y-66118500D02*
X111760000Y-62230000D01*
G04 #@! TO.N,GND*
X131343400Y-60426600D02*
X129540000Y-62230000D01*
X142087600Y-60426600D02*
X131343400Y-60426600D01*
X152965201Y-76435001D02*
X152965201Y-76358801D01*
X153365200Y-76835000D02*
X152965201Y-76435001D01*
X152965201Y-76358801D02*
X150088600Y-73482200D01*
X150088600Y-73482200D02*
X142868798Y-73482200D01*
X142513198Y-73126600D02*
X135991600Y-73126600D01*
X142868798Y-73482200D02*
X142513198Y-73126600D01*
X135591601Y-72726601D02*
X135591601Y-72625001D01*
X135991600Y-73126600D02*
X135591601Y-72726601D01*
X135591601Y-72625001D02*
X131927600Y-68961000D01*
X131927600Y-68961000D02*
X131927600Y-66167000D01*
X131927600Y-66167000D02*
X131013200Y-65252600D01*
X131013200Y-65252600D02*
X124155200Y-65252600D01*
X124155200Y-65252600D02*
X124129800Y-65278000D01*
X91440000Y-80280000D02*
X93361000Y-78359000D01*
X91440000Y-81280000D02*
X91440000Y-80280000D01*
X101600000Y-79832200D02*
X101600000Y-81280000D01*
X100126800Y-78359000D02*
X101600000Y-79832200D01*
X104140000Y-68580000D02*
X104140000Y-69580000D01*
X99898200Y-73821800D02*
X99898200Y-78282800D01*
X93361000Y-78359000D02*
X99898200Y-78282800D01*
X99898200Y-78282800D02*
X100126800Y-78359000D01*
X99910000Y-73660000D02*
X100126800Y-73660000D01*
X93980000Y-68580000D02*
X94830000Y-68580000D01*
X94830000Y-68580000D02*
X99910000Y-73660000D01*
X104140000Y-69580000D02*
X100126800Y-73660000D01*
X100126800Y-73660000D02*
X99898200Y-73821800D01*
G04 #@! TO.N,+3V3*
X115729500Y-70628000D02*
X116840000Y-69517500D01*
X114234000Y-70628000D02*
X115729500Y-70628000D01*
X117540000Y-69517500D02*
X123303500Y-63754000D01*
X116840000Y-69517500D02*
X117540000Y-69517500D01*
X130556000Y-63754000D02*
X132080000Y-62230000D01*
X123303500Y-63754000D02*
X130556000Y-63754000D01*
G04 #@! TO.N,+5V*
X134620000Y-62230000D02*
X147320000Y-62230000D01*
X147320000Y-62230000D02*
X149860000Y-64770000D01*
X149860000Y-68580000D02*
X149860000Y-64770000D01*
X165100000Y-67605000D02*
X165100000Y-68580000D01*
X162265000Y-64770000D02*
X165100000Y-67605000D01*
X149860000Y-64770000D02*
X162265000Y-64770000D01*
X150710000Y-68580000D02*
X149860000Y-68580000D01*
X157480000Y-75350000D02*
X150710000Y-68580000D01*
X157480000Y-81280000D02*
X157480000Y-75350000D01*
X142240000Y-81280000D02*
X142240000Y-83820000D01*
X157480000Y-82255000D02*
X157480000Y-81280000D01*
X155915000Y-83820000D02*
X157480000Y-82255000D01*
X142240000Y-83820000D02*
X155915000Y-83820000D01*
X141224000Y-76200000D02*
X141224000Y-78740000D01*
X142240000Y-79756000D02*
X142240000Y-81280000D01*
X141224000Y-78740000D02*
X142240000Y-79756000D01*
X117856000Y-75692000D02*
X116253500Y-75692000D01*
X119380000Y-77216000D02*
X117856000Y-75692000D01*
X165950000Y-68580000D02*
X165100000Y-68580000D01*
X166647100Y-69277100D02*
X165950000Y-68580000D01*
X166647100Y-74879200D02*
X166647100Y-69277100D01*
G04 #@! TO.N,Net-(R3-Pad2)*
X136906000Y-75516500D02*
X135689100Y-75516500D01*
X135689100Y-75516500D02*
X132613400Y-72440800D01*
X132613400Y-72440800D02*
X132613400Y-72313800D01*
G04 #@! TO.N,Net-(R3-Pad1)*
X136906000Y-77391500D02*
X139422900Y-77391500D01*
X139422900Y-77391500D02*
X139496800Y-77317600D01*
G04 #@! TO.N,Net-(R4-Pad1)*
X138861800Y-86480115D02*
X132334000Y-79952315D01*
X138861800Y-87045800D02*
X138861800Y-86480115D01*
X132334000Y-79952315D02*
X132334000Y-74396600D01*
X132334000Y-74396600D02*
X131927600Y-73990200D01*
G04 #@! TO.N,Net-(R8-Pad1)*
X162966400Y-74879200D02*
X164772100Y-74879200D01*
G04 #@! TD*
D19*
G04 #@! TO.N,GND*
G36*
X167310600Y-68906192D02*
G01*
X167282074Y-68852824D01*
X167187101Y-68737099D01*
X167158102Y-68713301D01*
X166588072Y-68143271D01*
X166588072Y-67855000D01*
X166571008Y-67681746D01*
X166520472Y-67515150D01*
X166438405Y-67361614D01*
X166327962Y-67227038D01*
X166193386Y-67116595D01*
X166039850Y-67034528D01*
X165873254Y-66983992D01*
X165700000Y-66966928D01*
X165536731Y-66966928D01*
X162828804Y-64259003D01*
X162805001Y-64229999D01*
X162689276Y-64135026D01*
X162557247Y-64064454D01*
X162413986Y-64020997D01*
X162302333Y-64010000D01*
X162302322Y-64010000D01*
X162265000Y-64006324D01*
X162227678Y-64010000D01*
X150174803Y-64010000D01*
X147883804Y-61719003D01*
X147860001Y-61689999D01*
X147744276Y-61595026D01*
X147612247Y-61524454D01*
X147468986Y-61480997D01*
X147357333Y-61470000D01*
X147357322Y-61470000D01*
X147320000Y-61466324D01*
X147282678Y-61470000D01*
X136108072Y-61470000D01*
X136108072Y-61380000D01*
X136095812Y-61255518D01*
X136059502Y-61135820D01*
X136000537Y-61025506D01*
X135921185Y-60928815D01*
X135824494Y-60849463D01*
X135714180Y-60790498D01*
X135594482Y-60754188D01*
X135470000Y-60741928D01*
X133770000Y-60741928D01*
X133645518Y-60754188D01*
X133525820Y-60790498D01*
X133415506Y-60849463D01*
X133318815Y-60928815D01*
X133239463Y-61025506D01*
X133180498Y-61135820D01*
X133158487Y-61208380D01*
X133026632Y-61076525D01*
X132783411Y-60914010D01*
X132513158Y-60802068D01*
X132226260Y-60745000D01*
X131933740Y-60745000D01*
X131646842Y-60802068D01*
X131376589Y-60914010D01*
X131133368Y-61076525D01*
X130926525Y-61283368D01*
X130804805Y-61465534D01*
X130735178Y-61348645D01*
X130540269Y-61132412D01*
X130306920Y-60958359D01*
X130044099Y-60833175D01*
X129896890Y-60788524D01*
X129667000Y-60909845D01*
X129667000Y-62103000D01*
X129687000Y-62103000D01*
X129687000Y-62357000D01*
X129667000Y-62357000D01*
X129667000Y-62377000D01*
X129413000Y-62377000D01*
X129413000Y-62357000D01*
X129393000Y-62357000D01*
X129393000Y-62103000D01*
X129413000Y-62103000D01*
X129413000Y-60909845D01*
X129183110Y-60788524D01*
X129035901Y-60833175D01*
X128773080Y-60958359D01*
X128539731Y-61132412D01*
X128344822Y-61348645D01*
X128275195Y-61465534D01*
X128153475Y-61283368D01*
X127946632Y-61076525D01*
X127703411Y-60914010D01*
X127433158Y-60802068D01*
X127146260Y-60745000D01*
X126853740Y-60745000D01*
X126566842Y-60802068D01*
X126296589Y-60914010D01*
X126053368Y-61076525D01*
X125846525Y-61283368D01*
X125730000Y-61457760D01*
X125613475Y-61283368D01*
X125406632Y-61076525D01*
X125163411Y-60914010D01*
X124893158Y-60802068D01*
X124606260Y-60745000D01*
X124313740Y-60745000D01*
X124026842Y-60802068D01*
X123756589Y-60914010D01*
X123513368Y-61076525D01*
X123306525Y-61283368D01*
X123190000Y-61457760D01*
X123073475Y-61283368D01*
X122866632Y-61076525D01*
X122623411Y-60914010D01*
X122353158Y-60802068D01*
X122066260Y-60745000D01*
X121773740Y-60745000D01*
X121486842Y-60802068D01*
X121216589Y-60914010D01*
X120973368Y-61076525D01*
X120766525Y-61283368D01*
X120650000Y-61457760D01*
X120533475Y-61283368D01*
X120326632Y-61076525D01*
X120083411Y-60914010D01*
X119813158Y-60802068D01*
X119526260Y-60745000D01*
X119233740Y-60745000D01*
X118946842Y-60802068D01*
X118676589Y-60914010D01*
X118433368Y-61076525D01*
X118226525Y-61283368D01*
X118110000Y-61457760D01*
X117993475Y-61283368D01*
X117786632Y-61076525D01*
X117543411Y-60914010D01*
X117273158Y-60802068D01*
X116986260Y-60745000D01*
X116693740Y-60745000D01*
X116406842Y-60802068D01*
X116136589Y-60914010D01*
X115893368Y-61076525D01*
X115686525Y-61283368D01*
X115570000Y-61457760D01*
X115453475Y-61283368D01*
X115246632Y-61076525D01*
X115003411Y-60914010D01*
X114733158Y-60802068D01*
X114446260Y-60745000D01*
X114153740Y-60745000D01*
X113866842Y-60802068D01*
X113596589Y-60914010D01*
X113353368Y-61076525D01*
X113146525Y-61283368D01*
X113030000Y-61457760D01*
X112913475Y-61283368D01*
X112706632Y-61076525D01*
X112463411Y-60914010D01*
X112193158Y-60802068D01*
X111906260Y-60745000D01*
X111613740Y-60745000D01*
X111326842Y-60802068D01*
X111056589Y-60914010D01*
X110813368Y-61076525D01*
X110606525Y-61283368D01*
X110444010Y-61526589D01*
X110332068Y-61796842D01*
X110275000Y-62083740D01*
X110275000Y-62376260D01*
X110332068Y-62663158D01*
X110444010Y-62933411D01*
X110606525Y-63176632D01*
X110813368Y-63383475D01*
X111000001Y-63508179D01*
X111000000Y-65049827D01*
X110966291Y-65060053D01*
X110813836Y-65141542D01*
X110680208Y-65251208D01*
X110570542Y-65384836D01*
X110489053Y-65537291D01*
X110438872Y-65702715D01*
X110421928Y-65874750D01*
X110421928Y-66362250D01*
X110438872Y-66534285D01*
X110489053Y-66699709D01*
X110570542Y-66852164D01*
X110680208Y-66985792D01*
X110765756Y-67056000D01*
X110680208Y-67126208D01*
X110570542Y-67259836D01*
X110489053Y-67412291D01*
X110438872Y-67577715D01*
X110421928Y-67749750D01*
X110421928Y-68237250D01*
X110438872Y-68409285D01*
X110489053Y-68574709D01*
X110570542Y-68727164D01*
X110680208Y-68860792D01*
X110813836Y-68970458D01*
X110966291Y-69051947D01*
X111131715Y-69102128D01*
X111303750Y-69119072D01*
X111574001Y-69119072D01*
X111574000Y-69651981D01*
X111482815Y-69726815D01*
X111403463Y-69823506D01*
X111344498Y-69933820D01*
X111308188Y-70053518D01*
X111295928Y-70178000D01*
X111295928Y-71078000D01*
X111308188Y-71202482D01*
X111344498Y-71322180D01*
X111403463Y-71432494D01*
X111482815Y-71529185D01*
X111579506Y-71608537D01*
X111689820Y-71667502D01*
X111809518Y-71703812D01*
X111934000Y-71716072D01*
X112445905Y-71716072D01*
X112432815Y-71726815D01*
X112353463Y-71823506D01*
X112294498Y-71933820D01*
X112258188Y-72053518D01*
X112245928Y-72178000D01*
X112245928Y-73078000D01*
X112258188Y-73202482D01*
X112294498Y-73322180D01*
X112353463Y-73432494D01*
X112432815Y-73529185D01*
X112524000Y-73604019D01*
X112524001Y-74560168D01*
X112520324Y-74597500D01*
X112524001Y-74634833D01*
X112534998Y-74746486D01*
X112548180Y-74789942D01*
X112578454Y-74889746D01*
X112649026Y-75021776D01*
X112714984Y-75102145D01*
X112744000Y-75137501D01*
X112772998Y-75161299D01*
X113252928Y-75641229D01*
X113252928Y-76148250D01*
X113269872Y-76320285D01*
X113320053Y-76485709D01*
X113401542Y-76638164D01*
X113511208Y-76771792D01*
X113618501Y-76859845D01*
X113618501Y-77765168D01*
X113614824Y-77802500D01*
X113618501Y-77839833D01*
X113629498Y-77951486D01*
X113637351Y-77977374D01*
X113672954Y-78094746D01*
X113743526Y-78226776D01*
X113814146Y-78312826D01*
X113838500Y-78342501D01*
X113867498Y-78366299D01*
X116313000Y-80811802D01*
X116313000Y-80873939D01*
X116352774Y-81073898D01*
X116430795Y-81262256D01*
X116544063Y-81431774D01*
X116688226Y-81575937D01*
X116857744Y-81689205D01*
X117046102Y-81767226D01*
X117246061Y-81807000D01*
X117449939Y-81807000D01*
X117649898Y-81767226D01*
X117838256Y-81689205D01*
X118007774Y-81575937D01*
X118151937Y-81431774D01*
X118265205Y-81262256D01*
X118343226Y-81073898D01*
X118383000Y-80873939D01*
X118383000Y-80670061D01*
X118343226Y-80470102D01*
X118265205Y-80281744D01*
X118151937Y-80112226D01*
X118007774Y-79968063D01*
X117838256Y-79854795D01*
X117649898Y-79776774D01*
X117449939Y-79737000D01*
X117387802Y-79737000D01*
X115138500Y-77487699D01*
X115138500Y-76859845D01*
X115245792Y-76771792D01*
X115316000Y-76686244D01*
X115386208Y-76771792D01*
X115519836Y-76881458D01*
X115672291Y-76962947D01*
X115837715Y-77013128D01*
X116009750Y-77030072D01*
X116497250Y-77030072D01*
X116669285Y-77013128D01*
X116834709Y-76962947D01*
X116987164Y-76881458D01*
X117120792Y-76771792D01*
X117230458Y-76638164D01*
X117311947Y-76485709D01*
X117322173Y-76452000D01*
X117541199Y-76452000D01*
X118345000Y-77255802D01*
X118345000Y-77317939D01*
X118384774Y-77517898D01*
X118462795Y-77706256D01*
X118576063Y-77875774D01*
X118720226Y-78019937D01*
X118889744Y-78133205D01*
X119078102Y-78211226D01*
X119278061Y-78251000D01*
X119481939Y-78251000D01*
X119681898Y-78211226D01*
X119870256Y-78133205D01*
X120039774Y-78019937D01*
X120183937Y-77875774D01*
X120297205Y-77706256D01*
X120375226Y-77517898D01*
X120415000Y-77317939D01*
X120415000Y-77114061D01*
X120375226Y-76914102D01*
X120297205Y-76725744D01*
X120183937Y-76556226D01*
X120039774Y-76412063D01*
X119870256Y-76298795D01*
X119681898Y-76220774D01*
X119481939Y-76181000D01*
X119419802Y-76181000D01*
X118419803Y-75181002D01*
X118396001Y-75151999D01*
X118280276Y-75057026D01*
X118148247Y-74986454D01*
X118004986Y-74942997D01*
X117893333Y-74932000D01*
X117893322Y-74932000D01*
X117856000Y-74928324D01*
X117818678Y-74932000D01*
X117322173Y-74932000D01*
X117311947Y-74898291D01*
X117230458Y-74745836D01*
X117120792Y-74612208D01*
X116987164Y-74502542D01*
X116834709Y-74421053D01*
X116669285Y-74370872D01*
X116497250Y-74353928D01*
X116009750Y-74353928D01*
X115837715Y-74370872D01*
X115672291Y-74421053D01*
X115519836Y-74502542D01*
X115386208Y-74612208D01*
X115316000Y-74697756D01*
X115245792Y-74612208D01*
X115112164Y-74502542D01*
X114959709Y-74421053D01*
X114794285Y-74370872D01*
X114622250Y-74353928D01*
X114134750Y-74353928D01*
X114116980Y-74355678D01*
X114044000Y-74282699D01*
X114044000Y-73604018D01*
X114135185Y-73529185D01*
X114214537Y-73432494D01*
X114273502Y-73322180D01*
X114309812Y-73202482D01*
X114322072Y-73078000D01*
X114322072Y-72178000D01*
X114309812Y-72053518D01*
X114273502Y-71933820D01*
X114214537Y-71823506D01*
X114135185Y-71726815D01*
X114122095Y-71716072D01*
X114634000Y-71716072D01*
X114758482Y-71703812D01*
X114878180Y-71667502D01*
X114988494Y-71608537D01*
X115085185Y-71529185D01*
X115164537Y-71432494D01*
X115188320Y-71388000D01*
X115692178Y-71388000D01*
X115729500Y-71391676D01*
X115766822Y-71388000D01*
X115766833Y-71388000D01*
X115878486Y-71377003D01*
X116021747Y-71333546D01*
X116153776Y-71262974D01*
X116269501Y-71168001D01*
X116293304Y-71138998D01*
X116789229Y-70643072D01*
X117296250Y-70643072D01*
X117468285Y-70626128D01*
X117633709Y-70575947D01*
X117786164Y-70494458D01*
X117919792Y-70384792D01*
X118029458Y-70251164D01*
X118110947Y-70098709D01*
X118144630Y-69987671D01*
X123618302Y-64514000D01*
X130518678Y-64514000D01*
X130556000Y-64517676D01*
X130593322Y-64514000D01*
X130593333Y-64514000D01*
X130704986Y-64503003D01*
X130848247Y-64459546D01*
X130980276Y-64388974D01*
X131096001Y-64294001D01*
X131119803Y-64264998D01*
X131713592Y-63671210D01*
X131933740Y-63715000D01*
X132226260Y-63715000D01*
X132513158Y-63657932D01*
X132783411Y-63545990D01*
X133026632Y-63383475D01*
X133158487Y-63251620D01*
X133180498Y-63324180D01*
X133239463Y-63434494D01*
X133318815Y-63531185D01*
X133415506Y-63610537D01*
X133525820Y-63669502D01*
X133645518Y-63705812D01*
X133770000Y-63718072D01*
X135470000Y-63718072D01*
X135594482Y-63705812D01*
X135714180Y-63669502D01*
X135824494Y-63610537D01*
X135921185Y-63531185D01*
X136000537Y-63434494D01*
X136059502Y-63324180D01*
X136095812Y-63204482D01*
X136108072Y-63080000D01*
X136108072Y-62990000D01*
X147005199Y-62990000D01*
X149100001Y-65084804D01*
X149100000Y-66982687D01*
X149086746Y-66983992D01*
X148920150Y-67034528D01*
X148766614Y-67116595D01*
X148632038Y-67227038D01*
X148521595Y-67361614D01*
X148467223Y-67463337D01*
X148415134Y-67399866D01*
X148189014Y-67214294D01*
X147931034Y-67076401D01*
X147651111Y-66991487D01*
X147360000Y-66962815D01*
X147068890Y-66991487D01*
X146788967Y-67076401D01*
X146530987Y-67214294D01*
X146304866Y-67399866D01*
X146119294Y-67625986D01*
X146110000Y-67643374D01*
X146100706Y-67625986D01*
X145915134Y-67399866D01*
X145689014Y-67214294D01*
X145431034Y-67076401D01*
X145151111Y-66991487D01*
X144860000Y-66962815D01*
X144568890Y-66991487D01*
X144288967Y-67076401D01*
X144030987Y-67214294D01*
X143804866Y-67399866D01*
X143619294Y-67625986D01*
X143610000Y-67643374D01*
X143600706Y-67625986D01*
X143415134Y-67399866D01*
X143189014Y-67214294D01*
X142931034Y-67076401D01*
X142651111Y-66991487D01*
X142360000Y-66962815D01*
X142068890Y-66991487D01*
X141788967Y-67076401D01*
X141530987Y-67214294D01*
X141304866Y-67399866D01*
X141119294Y-67625986D01*
X140981401Y-67883966D01*
X140896487Y-68163889D01*
X140875000Y-68382050D01*
X140875000Y-68777949D01*
X140896487Y-68996110D01*
X140981401Y-69276033D01*
X141119294Y-69534013D01*
X141304866Y-69760134D01*
X141530986Y-69945706D01*
X141788966Y-70083599D01*
X142068889Y-70168513D01*
X142360000Y-70197185D01*
X142651110Y-70168513D01*
X142931033Y-70083599D01*
X143189013Y-69945706D01*
X143415134Y-69760134D01*
X143600706Y-69534014D01*
X143610000Y-69516626D01*
X143619294Y-69534013D01*
X143804866Y-69760134D01*
X144030986Y-69945706D01*
X144288966Y-70083599D01*
X144568889Y-70168513D01*
X144860000Y-70197185D01*
X145151110Y-70168513D01*
X145431033Y-70083599D01*
X145689013Y-69945706D01*
X145915134Y-69760134D01*
X146100706Y-69534014D01*
X146110000Y-69516626D01*
X146119294Y-69534013D01*
X146304866Y-69760134D01*
X146530986Y-69945706D01*
X146788966Y-70083599D01*
X147068889Y-70168513D01*
X147360000Y-70197185D01*
X147651110Y-70168513D01*
X147931033Y-70083599D01*
X148189013Y-69945706D01*
X148415134Y-69760134D01*
X148467223Y-69696663D01*
X148521595Y-69798386D01*
X148632038Y-69932962D01*
X148766614Y-70043405D01*
X148920150Y-70125472D01*
X149086746Y-70176008D01*
X149260000Y-70193072D01*
X150460000Y-70193072D01*
X150633254Y-70176008D01*
X150799850Y-70125472D01*
X150953386Y-70043405D01*
X151033147Y-69977948D01*
X156720001Y-75664803D01*
X156720000Y-79682687D01*
X156706746Y-79683992D01*
X156540150Y-79734528D01*
X156386614Y-79816595D01*
X156252038Y-79927038D01*
X156141595Y-80061614D01*
X156059528Y-80215150D01*
X156008992Y-80381746D01*
X155991928Y-80555000D01*
X155991928Y-82005000D01*
X156008992Y-82178254D01*
X156059528Y-82344850D01*
X156141595Y-82498386D01*
X156150708Y-82509490D01*
X155600199Y-83060000D01*
X143000000Y-83060000D01*
X143000000Y-82877313D01*
X143013254Y-82876008D01*
X143179850Y-82825472D01*
X143333386Y-82743405D01*
X143467962Y-82632962D01*
X143578405Y-82498386D01*
X143632777Y-82396663D01*
X143684866Y-82460134D01*
X143910987Y-82645706D01*
X144168967Y-82783599D01*
X144448890Y-82868513D01*
X144740000Y-82897185D01*
X145031111Y-82868513D01*
X145311034Y-82783599D01*
X145569014Y-82645706D01*
X145795134Y-82460134D01*
X145980706Y-82234014D01*
X145990000Y-82216626D01*
X145999294Y-82234014D01*
X146184866Y-82460134D01*
X146410987Y-82645706D01*
X146668967Y-82783599D01*
X146948890Y-82868513D01*
X147240000Y-82897185D01*
X147531111Y-82868513D01*
X147811034Y-82783599D01*
X148069014Y-82645706D01*
X148295134Y-82460134D01*
X148480706Y-82234014D01*
X148490000Y-82216626D01*
X148499294Y-82234014D01*
X148684866Y-82460134D01*
X148910987Y-82645706D01*
X149168967Y-82783599D01*
X149448890Y-82868513D01*
X149740000Y-82897185D01*
X150031111Y-82868513D01*
X150311034Y-82783599D01*
X150569014Y-82645706D01*
X150795134Y-82460134D01*
X150980706Y-82234014D01*
X151118599Y-81976033D01*
X151203513Y-81696110D01*
X151225000Y-81477949D01*
X151225000Y-81082050D01*
X151203513Y-80863889D01*
X151118599Y-80583966D01*
X150980706Y-80325986D01*
X150795134Y-80099866D01*
X150569013Y-79914294D01*
X150311033Y-79776401D01*
X150031110Y-79691487D01*
X149740000Y-79662815D01*
X149448889Y-79691487D01*
X149168966Y-79776401D01*
X148910986Y-79914294D01*
X148684866Y-80099866D01*
X148499294Y-80325987D01*
X148490000Y-80343374D01*
X148480706Y-80325986D01*
X148295134Y-80099866D01*
X148069013Y-79914294D01*
X147811033Y-79776401D01*
X147531110Y-79691487D01*
X147240000Y-79662815D01*
X146948889Y-79691487D01*
X146668966Y-79776401D01*
X146410986Y-79914294D01*
X146184866Y-80099866D01*
X145999294Y-80325987D01*
X145990000Y-80343374D01*
X145980706Y-80325986D01*
X145795134Y-80099866D01*
X145569013Y-79914294D01*
X145311033Y-79776401D01*
X145031110Y-79691487D01*
X144740000Y-79662815D01*
X144448889Y-79691487D01*
X144168966Y-79776401D01*
X143910986Y-79914294D01*
X143684866Y-80099866D01*
X143632777Y-80163337D01*
X143578405Y-80061614D01*
X143467962Y-79927038D01*
X143333386Y-79816595D01*
X143179850Y-79734528D01*
X143013254Y-79683992D01*
X142996421Y-79682334D01*
X142989003Y-79607014D01*
X142945546Y-79463753D01*
X142918051Y-79412314D01*
X142874974Y-79331723D01*
X142803799Y-79244997D01*
X142780001Y-79215999D01*
X142751004Y-79192202D01*
X141984000Y-78425199D01*
X141984000Y-76903711D01*
X142027937Y-76859774D01*
X142141205Y-76690256D01*
X142219226Y-76501898D01*
X142259000Y-76301939D01*
X142259000Y-76098061D01*
X142219226Y-75898102D01*
X142141205Y-75709744D01*
X142027937Y-75540226D01*
X141883774Y-75396063D01*
X141714256Y-75282795D01*
X141525898Y-75204774D01*
X141325939Y-75165000D01*
X141122061Y-75165000D01*
X140922102Y-75204774D01*
X140733744Y-75282795D01*
X140564226Y-75396063D01*
X140420063Y-75540226D01*
X140306795Y-75709744D01*
X140228774Y-75898102D01*
X140189000Y-76098061D01*
X140189000Y-76301939D01*
X140228774Y-76501898D01*
X140288147Y-76645236D01*
X140156574Y-76513663D01*
X139987056Y-76400395D01*
X139798698Y-76322374D01*
X139598739Y-76282600D01*
X139394861Y-76282600D01*
X139194902Y-76322374D01*
X139006544Y-76400395D01*
X138837026Y-76513663D01*
X138719189Y-76631500D01*
X138073845Y-76631500D01*
X137985792Y-76524208D01*
X137900244Y-76454000D01*
X137985792Y-76383792D01*
X138095458Y-76250164D01*
X138176947Y-76097709D01*
X138227128Y-75932285D01*
X138244072Y-75760250D01*
X138244072Y-75272750D01*
X138227128Y-75100715D01*
X138176947Y-74935291D01*
X138095458Y-74782836D01*
X137985792Y-74649208D01*
X137852164Y-74539542D01*
X137699709Y-74458053D01*
X137534285Y-74407872D01*
X137362250Y-74390928D01*
X136449750Y-74390928D01*
X136277715Y-74407872D01*
X136112291Y-74458053D01*
X135959836Y-74539542D01*
X135864876Y-74617474D01*
X133648400Y-72400999D01*
X133648400Y-72211861D01*
X133608626Y-72011902D01*
X133530605Y-71823544D01*
X133417337Y-71654026D01*
X133273174Y-71509863D01*
X133103656Y-71396595D01*
X132915298Y-71318574D01*
X132715339Y-71278800D01*
X132511461Y-71278800D01*
X132311502Y-71318574D01*
X132123144Y-71396595D01*
X131953626Y-71509863D01*
X131809463Y-71654026D01*
X131696195Y-71823544D01*
X131618174Y-72011902D01*
X131578400Y-72211861D01*
X131578400Y-72415739D01*
X131618174Y-72615698D01*
X131696195Y-72804056D01*
X131800526Y-72960200D01*
X131625702Y-72994974D01*
X131437344Y-73072995D01*
X131267826Y-73186263D01*
X131123663Y-73330426D01*
X131010395Y-73499944D01*
X130932374Y-73688302D01*
X130892600Y-73888261D01*
X130892600Y-74092139D01*
X130932374Y-74292098D01*
X131010395Y-74480456D01*
X131123663Y-74649974D01*
X131267826Y-74794137D01*
X131437344Y-74907405D01*
X131574001Y-74964011D01*
X131574000Y-79914992D01*
X131570324Y-79952315D01*
X131574000Y-79989637D01*
X131574000Y-79989647D01*
X131584997Y-80101300D01*
X131628454Y-80244561D01*
X131699026Y-80376591D01*
X131738871Y-80425141D01*
X131793999Y-80492316D01*
X131823003Y-80516119D01*
X137920528Y-86613645D01*
X137866574Y-86743902D01*
X137826800Y-86943861D01*
X137826800Y-87147739D01*
X137866574Y-87347698D01*
X137944595Y-87536056D01*
X138057863Y-87705574D01*
X138202026Y-87849737D01*
X138371544Y-87963005D01*
X138559902Y-88041026D01*
X138759861Y-88080800D01*
X138963739Y-88080800D01*
X139163698Y-88041026D01*
X139352056Y-87963005D01*
X139521574Y-87849737D01*
X139665737Y-87705574D01*
X139779005Y-87536056D01*
X139857026Y-87347698D01*
X139896800Y-87147739D01*
X139896800Y-86943861D01*
X139857026Y-86743902D01*
X139779005Y-86555544D01*
X139665737Y-86386026D01*
X139610787Y-86331076D01*
X139567346Y-86187868D01*
X139496774Y-86055839D01*
X139401801Y-85940114D01*
X139372803Y-85916316D01*
X133094000Y-79637514D01*
X133094000Y-74433922D01*
X133097676Y-74396599D01*
X133094000Y-74359276D01*
X133094000Y-74359267D01*
X133083003Y-74247614D01*
X133039546Y-74104353D01*
X132968974Y-73972324D01*
X132962600Y-73964557D01*
X132962600Y-73888261D01*
X132956775Y-73858976D01*
X135125301Y-76027503D01*
X135149099Y-76056501D01*
X135264824Y-76151474D01*
X135396853Y-76222046D01*
X135540114Y-76265503D01*
X135651767Y-76276500D01*
X135651775Y-76276500D01*
X135689100Y-76280176D01*
X135726425Y-76276500D01*
X135738155Y-76276500D01*
X135826208Y-76383792D01*
X135911756Y-76454000D01*
X135826208Y-76524208D01*
X135716542Y-76657836D01*
X135635053Y-76810291D01*
X135584872Y-76975715D01*
X135567928Y-77147750D01*
X135567928Y-77635250D01*
X135584872Y-77807285D01*
X135635053Y-77972709D01*
X135716542Y-78125164D01*
X135826208Y-78258792D01*
X135959836Y-78368458D01*
X136112291Y-78449947D01*
X136277715Y-78500128D01*
X136449750Y-78517072D01*
X137362250Y-78517072D01*
X137534285Y-78500128D01*
X137699709Y-78449947D01*
X137852164Y-78368458D01*
X137985792Y-78258792D01*
X138073845Y-78151500D01*
X138881869Y-78151500D01*
X139006544Y-78234805D01*
X139194902Y-78312826D01*
X139394861Y-78352600D01*
X139598739Y-78352600D01*
X139798698Y-78312826D01*
X139987056Y-78234805D01*
X140156574Y-78121537D01*
X140300737Y-77977374D01*
X140414005Y-77807856D01*
X140464001Y-77687157D01*
X140464001Y-78702668D01*
X140460324Y-78740000D01*
X140474998Y-78888985D01*
X140518454Y-79032246D01*
X140589026Y-79164276D01*
X140655273Y-79244997D01*
X140684000Y-79280001D01*
X140712998Y-79303799D01*
X141198213Y-79789015D01*
X141146614Y-79816595D01*
X141012038Y-79927038D01*
X140901595Y-80061614D01*
X140819528Y-80215150D01*
X140768992Y-80381746D01*
X140751928Y-80555000D01*
X140751928Y-82005000D01*
X140768992Y-82178254D01*
X140819528Y-82344850D01*
X140901595Y-82498386D01*
X141012038Y-82632962D01*
X141146614Y-82743405D01*
X141300150Y-82825472D01*
X141466746Y-82876008D01*
X141480001Y-82877313D01*
X141480001Y-83782657D01*
X141476323Y-83820000D01*
X141490997Y-83968986D01*
X141534454Y-84112247D01*
X141605026Y-84244276D01*
X141699999Y-84360001D01*
X141815724Y-84454974D01*
X141947753Y-84525546D01*
X142091014Y-84569003D01*
X142202667Y-84580000D01*
X142240000Y-84583677D01*
X142277333Y-84580000D01*
X155877678Y-84580000D01*
X155915000Y-84583676D01*
X155952322Y-84580000D01*
X155952333Y-84580000D01*
X156063986Y-84569003D01*
X156207247Y-84525546D01*
X156339276Y-84454974D01*
X156455001Y-84360001D01*
X156478804Y-84330997D01*
X157916730Y-82893072D01*
X158080000Y-82893072D01*
X158253254Y-82876008D01*
X158419850Y-82825472D01*
X158573386Y-82743405D01*
X158707962Y-82632962D01*
X158818405Y-82498386D01*
X158872777Y-82396663D01*
X158924866Y-82460134D01*
X159150987Y-82645706D01*
X159408967Y-82783599D01*
X159688890Y-82868513D01*
X159980000Y-82897185D01*
X160271111Y-82868513D01*
X160551034Y-82783599D01*
X160809014Y-82645706D01*
X161035134Y-82460134D01*
X161220706Y-82234014D01*
X161230000Y-82216626D01*
X161239294Y-82234014D01*
X161424866Y-82460134D01*
X161650987Y-82645706D01*
X161908967Y-82783599D01*
X162188890Y-82868513D01*
X162480000Y-82897185D01*
X162771111Y-82868513D01*
X163051034Y-82783599D01*
X163309014Y-82645706D01*
X163535134Y-82460134D01*
X163720706Y-82234014D01*
X163730000Y-82216626D01*
X163739294Y-82234014D01*
X163924866Y-82460134D01*
X164150987Y-82645706D01*
X164408967Y-82783599D01*
X164688890Y-82868513D01*
X164980000Y-82897185D01*
X165271111Y-82868513D01*
X165551034Y-82783599D01*
X165809014Y-82645706D01*
X166035134Y-82460134D01*
X166220706Y-82234014D01*
X166358599Y-81976033D01*
X166443513Y-81696110D01*
X166465000Y-81477949D01*
X166465000Y-81082050D01*
X166443513Y-80863889D01*
X166358599Y-80583966D01*
X166220706Y-80325986D01*
X166035134Y-80099866D01*
X165809013Y-79914294D01*
X165551033Y-79776401D01*
X165271110Y-79691487D01*
X164980000Y-79662815D01*
X164688889Y-79691487D01*
X164408966Y-79776401D01*
X164150986Y-79914294D01*
X163924866Y-80099866D01*
X163739294Y-80325987D01*
X163730000Y-80343374D01*
X163720706Y-80325986D01*
X163535134Y-80099866D01*
X163309013Y-79914294D01*
X163051033Y-79776401D01*
X162771110Y-79691487D01*
X162480000Y-79662815D01*
X162188889Y-79691487D01*
X161908966Y-79776401D01*
X161650986Y-79914294D01*
X161424866Y-80099866D01*
X161239294Y-80325987D01*
X161230000Y-80343374D01*
X161220706Y-80325986D01*
X161035134Y-80099866D01*
X160809013Y-79914294D01*
X160551033Y-79776401D01*
X160271110Y-79691487D01*
X159980000Y-79662815D01*
X159688889Y-79691487D01*
X159408966Y-79776401D01*
X159150986Y-79914294D01*
X158924866Y-80099866D01*
X158872777Y-80163337D01*
X158818405Y-80061614D01*
X158707962Y-79927038D01*
X158573386Y-79816595D01*
X158419850Y-79734528D01*
X158253254Y-79683992D01*
X158240000Y-79682687D01*
X158240000Y-75387323D01*
X158243676Y-75350000D01*
X158240000Y-75312677D01*
X158240000Y-75312667D01*
X158229003Y-75201014D01*
X158185546Y-75057753D01*
X158114974Y-74925724D01*
X158020001Y-74809999D01*
X157991003Y-74786201D01*
X151348072Y-68143271D01*
X151348072Y-67855000D01*
X151331008Y-67681746D01*
X151280472Y-67515150D01*
X151198405Y-67361614D01*
X151087962Y-67227038D01*
X150953386Y-67116595D01*
X150799850Y-67034528D01*
X150633254Y-66983992D01*
X150620000Y-66982687D01*
X150620000Y-65530000D01*
X161950199Y-65530000D01*
X163770708Y-67350510D01*
X163761595Y-67361614D01*
X163707223Y-67463337D01*
X163655134Y-67399866D01*
X163429014Y-67214294D01*
X163171034Y-67076401D01*
X162891111Y-66991487D01*
X162600000Y-66962815D01*
X162308890Y-66991487D01*
X162028967Y-67076401D01*
X161770987Y-67214294D01*
X161544866Y-67399866D01*
X161359294Y-67625986D01*
X161350000Y-67643374D01*
X161340706Y-67625986D01*
X161155134Y-67399866D01*
X160929014Y-67214294D01*
X160671034Y-67076401D01*
X160391111Y-66991487D01*
X160100000Y-66962815D01*
X159808890Y-66991487D01*
X159528967Y-67076401D01*
X159270987Y-67214294D01*
X159044866Y-67399866D01*
X158859294Y-67625986D01*
X158850000Y-67643374D01*
X158840706Y-67625986D01*
X158655134Y-67399866D01*
X158429014Y-67214294D01*
X158171034Y-67076401D01*
X157891111Y-66991487D01*
X157600000Y-66962815D01*
X157308890Y-66991487D01*
X157028967Y-67076401D01*
X156770987Y-67214294D01*
X156544866Y-67399866D01*
X156359294Y-67625986D01*
X156221401Y-67883966D01*
X156136487Y-68163889D01*
X156115000Y-68382050D01*
X156115000Y-68777949D01*
X156136487Y-68996110D01*
X156221401Y-69276033D01*
X156359294Y-69534013D01*
X156544866Y-69760134D01*
X156770986Y-69945706D01*
X157028966Y-70083599D01*
X157308889Y-70168513D01*
X157600000Y-70197185D01*
X157891110Y-70168513D01*
X158171033Y-70083599D01*
X158429013Y-69945706D01*
X158655134Y-69760134D01*
X158840706Y-69534014D01*
X158850000Y-69516626D01*
X158859294Y-69534013D01*
X159044866Y-69760134D01*
X159270986Y-69945706D01*
X159528966Y-70083599D01*
X159808889Y-70168513D01*
X160100000Y-70197185D01*
X160391110Y-70168513D01*
X160671033Y-70083599D01*
X160929013Y-69945706D01*
X161155134Y-69760134D01*
X161340706Y-69534014D01*
X161350000Y-69516626D01*
X161359294Y-69534013D01*
X161544866Y-69760134D01*
X161770986Y-69945706D01*
X162028966Y-70083599D01*
X162308889Y-70168513D01*
X162600000Y-70197185D01*
X162891110Y-70168513D01*
X163171033Y-70083599D01*
X163429013Y-69945706D01*
X163655134Y-69760134D01*
X163707223Y-69696663D01*
X163761595Y-69798386D01*
X163872038Y-69932962D01*
X164006614Y-70043405D01*
X164160150Y-70125472D01*
X164326746Y-70176008D01*
X164500000Y-70193072D01*
X165700000Y-70193072D01*
X165873254Y-70176008D01*
X165887101Y-70171808D01*
X165887100Y-73711355D01*
X165779808Y-73799408D01*
X165709600Y-73884956D01*
X165639392Y-73799408D01*
X165505764Y-73689742D01*
X165353309Y-73608253D01*
X165187885Y-73558072D01*
X165015850Y-73541128D01*
X164528350Y-73541128D01*
X164356315Y-73558072D01*
X164190891Y-73608253D01*
X164038436Y-73689742D01*
X163904808Y-73799408D01*
X163795142Y-73933036D01*
X163713653Y-74085491D01*
X163703427Y-74119200D01*
X163670111Y-74119200D01*
X163626174Y-74075263D01*
X163456656Y-73961995D01*
X163268298Y-73883974D01*
X163068339Y-73844200D01*
X162864461Y-73844200D01*
X162664502Y-73883974D01*
X162476144Y-73961995D01*
X162306626Y-74075263D01*
X162162463Y-74219426D01*
X162049195Y-74388944D01*
X161971174Y-74577302D01*
X161931400Y-74777261D01*
X161931400Y-74981139D01*
X161971174Y-75181098D01*
X162049195Y-75369456D01*
X162162463Y-75538974D01*
X162306626Y-75683137D01*
X162476144Y-75796405D01*
X162664502Y-75874426D01*
X162864461Y-75914200D01*
X163068339Y-75914200D01*
X163268298Y-75874426D01*
X163456656Y-75796405D01*
X163626174Y-75683137D01*
X163670111Y-75639200D01*
X163703427Y-75639200D01*
X163713653Y-75672909D01*
X163795142Y-75825364D01*
X163904808Y-75958992D01*
X164038436Y-76068658D01*
X164190891Y-76150147D01*
X164356315Y-76200328D01*
X164528350Y-76217272D01*
X165015850Y-76217272D01*
X165187885Y-76200328D01*
X165353309Y-76150147D01*
X165505764Y-76068658D01*
X165639392Y-75958992D01*
X165709600Y-75873444D01*
X165779808Y-75958992D01*
X165913436Y-76068658D01*
X166065891Y-76150147D01*
X166231315Y-76200328D01*
X166403350Y-76217272D01*
X166890850Y-76217272D01*
X167062885Y-76200328D01*
X167228309Y-76150147D01*
X167310601Y-76106161D01*
X167310601Y-90424800D01*
X118860594Y-90424800D01*
X118891000Y-90271939D01*
X118891000Y-90068061D01*
X118851226Y-89868102D01*
X118773205Y-89679744D01*
X118659937Y-89510226D01*
X118515774Y-89366063D01*
X118346256Y-89252795D01*
X118157898Y-89174774D01*
X117957939Y-89135000D01*
X117754061Y-89135000D01*
X117554102Y-89174774D01*
X117365744Y-89252795D01*
X117196226Y-89366063D01*
X117052063Y-89510226D01*
X116938795Y-89679744D01*
X116860774Y-89868102D01*
X116821000Y-90068061D01*
X116821000Y-90271939D01*
X116851406Y-90424800D01*
X90109437Y-90424800D01*
X90217898Y-90403226D01*
X90406256Y-90325205D01*
X90575774Y-90211937D01*
X90719937Y-90067774D01*
X90833205Y-89898256D01*
X90911226Y-89709898D01*
X90951000Y-89509939D01*
X90951000Y-89306061D01*
X90911226Y-89106102D01*
X90833205Y-88917744D01*
X90719937Y-88748226D01*
X90575774Y-88604063D01*
X90406256Y-88490795D01*
X90217898Y-88412774D01*
X90017939Y-88373000D01*
X89814061Y-88373000D01*
X89614102Y-88412774D01*
X89425744Y-88490795D01*
X89256226Y-88604063D01*
X89112063Y-88748226D01*
X88998795Y-88917744D01*
X88924600Y-89096865D01*
X88924600Y-87483740D01*
X110275000Y-87483740D01*
X110275000Y-87776260D01*
X110332068Y-88063158D01*
X110444010Y-88333411D01*
X110606525Y-88576632D01*
X110813368Y-88783475D01*
X111056589Y-88945990D01*
X111326842Y-89057932D01*
X111613740Y-89115000D01*
X111906260Y-89115000D01*
X112193158Y-89057932D01*
X112463411Y-88945990D01*
X112706632Y-88783475D01*
X112913475Y-88576632D01*
X113030000Y-88402240D01*
X113146525Y-88576632D01*
X113353368Y-88783475D01*
X113596589Y-88945990D01*
X113866842Y-89057932D01*
X114153740Y-89115000D01*
X114446260Y-89115000D01*
X114733158Y-89057932D01*
X115003411Y-88945990D01*
X115246632Y-88783475D01*
X115453475Y-88576632D01*
X115570000Y-88402240D01*
X115686525Y-88576632D01*
X115893368Y-88783475D01*
X116136589Y-88945990D01*
X116406842Y-89057932D01*
X116693740Y-89115000D01*
X116986260Y-89115000D01*
X117273158Y-89057932D01*
X117543411Y-88945990D01*
X117786632Y-88783475D01*
X117993475Y-88576632D01*
X118110000Y-88402240D01*
X118226525Y-88576632D01*
X118433368Y-88783475D01*
X118676589Y-88945990D01*
X118946842Y-89057932D01*
X119233740Y-89115000D01*
X119526260Y-89115000D01*
X119813158Y-89057932D01*
X120083411Y-88945990D01*
X120326632Y-88783475D01*
X120533475Y-88576632D01*
X120650000Y-88402240D01*
X120766525Y-88576632D01*
X120973368Y-88783475D01*
X121216589Y-88945990D01*
X121486842Y-89057932D01*
X121773740Y-89115000D01*
X122066260Y-89115000D01*
X122353158Y-89057932D01*
X122623411Y-88945990D01*
X122866632Y-88783475D01*
X123073475Y-88576632D01*
X123190000Y-88402240D01*
X123306525Y-88576632D01*
X123513368Y-88783475D01*
X123756589Y-88945990D01*
X124026842Y-89057932D01*
X124313740Y-89115000D01*
X124606260Y-89115000D01*
X124893158Y-89057932D01*
X125163411Y-88945990D01*
X125406632Y-88783475D01*
X125613475Y-88576632D01*
X125730000Y-88402240D01*
X125846525Y-88576632D01*
X126053368Y-88783475D01*
X126296589Y-88945990D01*
X126566842Y-89057932D01*
X126853740Y-89115000D01*
X127146260Y-89115000D01*
X127433158Y-89057932D01*
X127703411Y-88945990D01*
X127946632Y-88783475D01*
X128153475Y-88576632D01*
X128270000Y-88402240D01*
X128386525Y-88576632D01*
X128593368Y-88783475D01*
X128836589Y-88945990D01*
X129106842Y-89057932D01*
X129393740Y-89115000D01*
X129686260Y-89115000D01*
X129973158Y-89057932D01*
X130243411Y-88945990D01*
X130486632Y-88783475D01*
X130693475Y-88576632D01*
X130810000Y-88402240D01*
X130926525Y-88576632D01*
X131133368Y-88783475D01*
X131376589Y-88945990D01*
X131646842Y-89057932D01*
X131933740Y-89115000D01*
X132226260Y-89115000D01*
X132513158Y-89057932D01*
X132783411Y-88945990D01*
X133026632Y-88783475D01*
X133158487Y-88651620D01*
X133180498Y-88724180D01*
X133239463Y-88834494D01*
X133318815Y-88931185D01*
X133415506Y-89010537D01*
X133525820Y-89069502D01*
X133645518Y-89105812D01*
X133770000Y-89118072D01*
X135470000Y-89118072D01*
X135594482Y-89105812D01*
X135714180Y-89069502D01*
X135824494Y-89010537D01*
X135921185Y-88931185D01*
X136000537Y-88834494D01*
X136059502Y-88724180D01*
X136095812Y-88604482D01*
X136108072Y-88480000D01*
X136108072Y-86780000D01*
X136095812Y-86655518D01*
X136059502Y-86535820D01*
X136000537Y-86425506D01*
X135921185Y-86328815D01*
X135824494Y-86249463D01*
X135714180Y-86190498D01*
X135594482Y-86154188D01*
X135470000Y-86141928D01*
X133770000Y-86141928D01*
X133645518Y-86154188D01*
X133525820Y-86190498D01*
X133415506Y-86249463D01*
X133318815Y-86328815D01*
X133239463Y-86425506D01*
X133180498Y-86535820D01*
X133158487Y-86608380D01*
X133026632Y-86476525D01*
X132783411Y-86314010D01*
X132513158Y-86202068D01*
X132226260Y-86145000D01*
X131933740Y-86145000D01*
X131646842Y-86202068D01*
X131376589Y-86314010D01*
X131133368Y-86476525D01*
X130926525Y-86683368D01*
X130810000Y-86857760D01*
X130693475Y-86683368D01*
X130486632Y-86476525D01*
X130243411Y-86314010D01*
X129973158Y-86202068D01*
X129686260Y-86145000D01*
X129393740Y-86145000D01*
X129106842Y-86202068D01*
X128836589Y-86314010D01*
X128593368Y-86476525D01*
X128386525Y-86683368D01*
X128270000Y-86857760D01*
X128153475Y-86683368D01*
X127946632Y-86476525D01*
X127703411Y-86314010D01*
X127433158Y-86202068D01*
X127146260Y-86145000D01*
X126853740Y-86145000D01*
X126566842Y-86202068D01*
X126296589Y-86314010D01*
X126053368Y-86476525D01*
X125846525Y-86683368D01*
X125730000Y-86857760D01*
X125613475Y-86683368D01*
X125406632Y-86476525D01*
X125163411Y-86314010D01*
X124893158Y-86202068D01*
X124606260Y-86145000D01*
X124313740Y-86145000D01*
X124026842Y-86202068D01*
X123756589Y-86314010D01*
X123513368Y-86476525D01*
X123306525Y-86683368D01*
X123190000Y-86857760D01*
X123073475Y-86683368D01*
X122866632Y-86476525D01*
X122623411Y-86314010D01*
X122353158Y-86202068D01*
X122066260Y-86145000D01*
X121773740Y-86145000D01*
X121486842Y-86202068D01*
X121216589Y-86314010D01*
X120973368Y-86476525D01*
X120766525Y-86683368D01*
X120650000Y-86857760D01*
X120533475Y-86683368D01*
X120326632Y-86476525D01*
X120083411Y-86314010D01*
X119813158Y-86202068D01*
X119526260Y-86145000D01*
X119233740Y-86145000D01*
X118946842Y-86202068D01*
X118676589Y-86314010D01*
X118433368Y-86476525D01*
X118226525Y-86683368D01*
X118110000Y-86857760D01*
X117993475Y-86683368D01*
X117786632Y-86476525D01*
X117543411Y-86314010D01*
X117273158Y-86202068D01*
X116986260Y-86145000D01*
X116693740Y-86145000D01*
X116406842Y-86202068D01*
X116136589Y-86314010D01*
X115893368Y-86476525D01*
X115686525Y-86683368D01*
X115570000Y-86857760D01*
X115453475Y-86683368D01*
X115246632Y-86476525D01*
X115003411Y-86314010D01*
X114733158Y-86202068D01*
X114446260Y-86145000D01*
X114153740Y-86145000D01*
X113866842Y-86202068D01*
X113596589Y-86314010D01*
X113353368Y-86476525D01*
X113146525Y-86683368D01*
X113030000Y-86857760D01*
X112913475Y-86683368D01*
X112706632Y-86476525D01*
X112463411Y-86314010D01*
X112193158Y-86202068D01*
X111906260Y-86145000D01*
X111613740Y-86145000D01*
X111326842Y-86202068D01*
X111056589Y-86314010D01*
X110813368Y-86476525D01*
X110606525Y-86683368D01*
X110444010Y-86926589D01*
X110332068Y-87196842D01*
X110275000Y-87483740D01*
X88924600Y-87483740D01*
X88924600Y-84480061D01*
X96755000Y-84480061D01*
X96755000Y-84683939D01*
X96794774Y-84883898D01*
X96872795Y-85072256D01*
X96986063Y-85241774D01*
X97130226Y-85385937D01*
X97299744Y-85499205D01*
X97488102Y-85577226D01*
X97688061Y-85617000D01*
X97891939Y-85617000D01*
X98091898Y-85577226D01*
X98280256Y-85499205D01*
X98449774Y-85385937D01*
X98593937Y-85241774D01*
X98707205Y-85072256D01*
X98785226Y-84883898D01*
X98825000Y-84683939D01*
X98825000Y-84480061D01*
X98785226Y-84280102D01*
X98707205Y-84091744D01*
X98593937Y-83922226D01*
X98449774Y-83778063D01*
X98280256Y-83664795D01*
X98091898Y-83586774D01*
X97891939Y-83547000D01*
X97688061Y-83547000D01*
X97488102Y-83586774D01*
X97299744Y-83664795D01*
X97130226Y-83778063D01*
X96986063Y-83922226D01*
X96872795Y-84091744D01*
X96794774Y-84280102D01*
X96755000Y-84480061D01*
X88924600Y-84480061D01*
X88924600Y-82280000D01*
X89951928Y-82280000D01*
X89964188Y-82404482D01*
X90000498Y-82524180D01*
X90059463Y-82634494D01*
X90138815Y-82731185D01*
X90235506Y-82810537D01*
X90345820Y-82869502D01*
X90465518Y-82905812D01*
X90590000Y-82918072D01*
X91154250Y-82915000D01*
X91313000Y-82756250D01*
X91313000Y-81407000D01*
X90113750Y-81407000D01*
X89955000Y-81565750D01*
X89951928Y-82280000D01*
X88924600Y-82280000D01*
X88924600Y-80280000D01*
X89951928Y-80280000D01*
X89955000Y-80994250D01*
X90113750Y-81153000D01*
X91313000Y-81153000D01*
X91313000Y-79803750D01*
X91567000Y-79803750D01*
X91567000Y-81153000D01*
X91587000Y-81153000D01*
X91587000Y-81407000D01*
X91567000Y-81407000D01*
X91567000Y-82756250D01*
X91725750Y-82915000D01*
X92290000Y-82918072D01*
X92414482Y-82905812D01*
X92534180Y-82869502D01*
X92644494Y-82810537D01*
X92741185Y-82731185D01*
X92820537Y-82634494D01*
X92879502Y-82524180D01*
X92890055Y-82489392D01*
X93110987Y-82670706D01*
X93368967Y-82808599D01*
X93648890Y-82893513D01*
X93940000Y-82922185D01*
X94231111Y-82893513D01*
X94511034Y-82808599D01*
X94769014Y-82670706D01*
X94995134Y-82485134D01*
X95163483Y-82280000D01*
X100111928Y-82280000D01*
X100124188Y-82404482D01*
X100160498Y-82524180D01*
X100219463Y-82634494D01*
X100298815Y-82731185D01*
X100395506Y-82810537D01*
X100505820Y-82869502D01*
X100625518Y-82905812D01*
X100750000Y-82918072D01*
X101314250Y-82915000D01*
X101473000Y-82756250D01*
X101473000Y-81407000D01*
X100273750Y-81407000D01*
X100115000Y-81565750D01*
X100111928Y-82280000D01*
X95163483Y-82280000D01*
X95180706Y-82259014D01*
X95318599Y-82001033D01*
X95403513Y-81721110D01*
X95425000Y-81502949D01*
X95425000Y-81057050D01*
X95403513Y-80838889D01*
X95318599Y-80558966D01*
X95180706Y-80300986D01*
X95163484Y-80280000D01*
X100111928Y-80280000D01*
X100115000Y-80994250D01*
X100273750Y-81153000D01*
X101473000Y-81153000D01*
X101473000Y-79803750D01*
X101727000Y-79803750D01*
X101727000Y-81153000D01*
X101747000Y-81153000D01*
X101747000Y-81407000D01*
X101727000Y-81407000D01*
X101727000Y-82756250D01*
X101885750Y-82915000D01*
X102450000Y-82918072D01*
X102574482Y-82905812D01*
X102694180Y-82869502D01*
X102804494Y-82810537D01*
X102901185Y-82731185D01*
X102980537Y-82634494D01*
X103039502Y-82524180D01*
X103050055Y-82489392D01*
X103270987Y-82670706D01*
X103528967Y-82808599D01*
X103808890Y-82893513D01*
X104100000Y-82922185D01*
X104391111Y-82893513D01*
X104671034Y-82808599D01*
X104929014Y-82670706D01*
X105155134Y-82485134D01*
X105340706Y-82259014D01*
X105478599Y-82001033D01*
X105563513Y-81721110D01*
X105585000Y-81502949D01*
X105585000Y-81057050D01*
X105563513Y-80838889D01*
X105478599Y-80558966D01*
X105340706Y-80300986D01*
X105155134Y-80074866D01*
X104929013Y-79889294D01*
X104671033Y-79751401D01*
X104391110Y-79666487D01*
X104100000Y-79637815D01*
X103808889Y-79666487D01*
X103528966Y-79751401D01*
X103270986Y-79889294D01*
X103050055Y-80070608D01*
X103039502Y-80035820D01*
X102980537Y-79925506D01*
X102901185Y-79828815D01*
X102804494Y-79749463D01*
X102694180Y-79690498D01*
X102574482Y-79654188D01*
X102450000Y-79641928D01*
X101885750Y-79645000D01*
X101727000Y-79803750D01*
X101473000Y-79803750D01*
X101314250Y-79645000D01*
X100750000Y-79641928D01*
X100625518Y-79654188D01*
X100505820Y-79690498D01*
X100395506Y-79749463D01*
X100298815Y-79828815D01*
X100219463Y-79925506D01*
X100160498Y-80035820D01*
X100124188Y-80155518D01*
X100111928Y-80280000D01*
X95163484Y-80280000D01*
X94995134Y-80074866D01*
X94769013Y-79889294D01*
X94511033Y-79751401D01*
X94231110Y-79666487D01*
X93940000Y-79637815D01*
X93648889Y-79666487D01*
X93368966Y-79751401D01*
X93110986Y-79889294D01*
X92890055Y-80070608D01*
X92879502Y-80035820D01*
X92820537Y-79925506D01*
X92741185Y-79828815D01*
X92644494Y-79749463D01*
X92534180Y-79690498D01*
X92414482Y-79654188D01*
X92290000Y-79641928D01*
X91725750Y-79645000D01*
X91567000Y-79803750D01*
X91313000Y-79803750D01*
X91154250Y-79645000D01*
X90590000Y-79641928D01*
X90465518Y-79654188D01*
X90345820Y-79690498D01*
X90235506Y-79749463D01*
X90138815Y-79828815D01*
X90059463Y-79925506D01*
X90000498Y-80035820D01*
X89964188Y-80155518D01*
X89951928Y-80280000D01*
X88924600Y-80280000D01*
X88924600Y-75336061D01*
X89897000Y-75336061D01*
X89897000Y-75539939D01*
X89936774Y-75739898D01*
X90014795Y-75928256D01*
X90128063Y-76097774D01*
X90272226Y-76241937D01*
X90441744Y-76355205D01*
X90630102Y-76433226D01*
X90830061Y-76473000D01*
X91033939Y-76473000D01*
X91233898Y-76433226D01*
X91422256Y-76355205D01*
X91591774Y-76241937D01*
X91735937Y-76097774D01*
X91849205Y-75928256D01*
X91927226Y-75739898D01*
X91967000Y-75539939D01*
X91967000Y-75336061D01*
X91927226Y-75136102D01*
X91849205Y-74947744D01*
X91735937Y-74778226D01*
X91591774Y-74634063D01*
X91422256Y-74520795D01*
X91233898Y-74442774D01*
X91033939Y-74403000D01*
X90830061Y-74403000D01*
X90630102Y-74442774D01*
X90441744Y-74520795D01*
X90272226Y-74634063D01*
X90128063Y-74778226D01*
X90014795Y-74947744D01*
X89936774Y-75136102D01*
X89897000Y-75336061D01*
X88924600Y-75336061D01*
X88924600Y-74320061D01*
X98025000Y-74320061D01*
X98025000Y-74523939D01*
X98064774Y-74723898D01*
X98142795Y-74912256D01*
X98256063Y-75081774D01*
X98400226Y-75225937D01*
X98569744Y-75339205D01*
X98758102Y-75417226D01*
X98958061Y-75457000D01*
X99161939Y-75457000D01*
X99361898Y-75417226D01*
X99550256Y-75339205D01*
X99719774Y-75225937D01*
X99863937Y-75081774D01*
X99977205Y-74912256D01*
X100055226Y-74723898D01*
X100095000Y-74523939D01*
X100095000Y-74320061D01*
X100055226Y-74120102D01*
X99977205Y-73931744D01*
X99863937Y-73762226D01*
X99719774Y-73618063D01*
X99550256Y-73504795D01*
X99361898Y-73426774D01*
X99161939Y-73387000D01*
X98958061Y-73387000D01*
X98758102Y-73426774D01*
X98569744Y-73504795D01*
X98400226Y-73618063D01*
X98256063Y-73762226D01*
X98142795Y-73931744D01*
X98064774Y-74120102D01*
X98025000Y-74320061D01*
X88924600Y-74320061D01*
X88924600Y-68357050D01*
X89995000Y-68357050D01*
X89995000Y-68802949D01*
X90016487Y-69021110D01*
X90101401Y-69301033D01*
X90239294Y-69559013D01*
X90424866Y-69785134D01*
X90650986Y-69970706D01*
X90908966Y-70108599D01*
X91188889Y-70193513D01*
X91480000Y-70222185D01*
X91771110Y-70193513D01*
X92051033Y-70108599D01*
X92309013Y-69970706D01*
X92529945Y-69789392D01*
X92540498Y-69824180D01*
X92599463Y-69934494D01*
X92678815Y-70031185D01*
X92775506Y-70110537D01*
X92885820Y-70169502D01*
X93005518Y-70205812D01*
X93130000Y-70218072D01*
X93694250Y-70215000D01*
X93853000Y-70056250D01*
X93853000Y-68707000D01*
X94107000Y-68707000D01*
X94107000Y-70056250D01*
X94265750Y-70215000D01*
X94830000Y-70218072D01*
X94954482Y-70205812D01*
X95074180Y-70169502D01*
X95184494Y-70110537D01*
X95281185Y-70031185D01*
X95360537Y-69934494D01*
X95419502Y-69824180D01*
X95455812Y-69704482D01*
X95468072Y-69580000D01*
X95465000Y-68865750D01*
X95306250Y-68707000D01*
X94107000Y-68707000D01*
X93853000Y-68707000D01*
X93833000Y-68707000D01*
X93833000Y-68453000D01*
X93853000Y-68453000D01*
X93853000Y-67103750D01*
X94107000Y-67103750D01*
X94107000Y-68453000D01*
X95306250Y-68453000D01*
X95402200Y-68357050D01*
X100155000Y-68357050D01*
X100155000Y-68802949D01*
X100176487Y-69021110D01*
X100261401Y-69301033D01*
X100399294Y-69559013D01*
X100584866Y-69785134D01*
X100810986Y-69970706D01*
X101068966Y-70108599D01*
X101348889Y-70193513D01*
X101640000Y-70222185D01*
X101931110Y-70193513D01*
X102211033Y-70108599D01*
X102469013Y-69970706D01*
X102689945Y-69789392D01*
X102700498Y-69824180D01*
X102759463Y-69934494D01*
X102838815Y-70031185D01*
X102935506Y-70110537D01*
X103045820Y-70169502D01*
X103165518Y-70205812D01*
X103290000Y-70218072D01*
X103854250Y-70215000D01*
X104013000Y-70056250D01*
X104013000Y-68707000D01*
X104267000Y-68707000D01*
X104267000Y-70056250D01*
X104425750Y-70215000D01*
X104990000Y-70218072D01*
X105114482Y-70205812D01*
X105234180Y-70169502D01*
X105344494Y-70110537D01*
X105441185Y-70031185D01*
X105520537Y-69934494D01*
X105579502Y-69824180D01*
X105615812Y-69704482D01*
X105628072Y-69580000D01*
X105625000Y-68865750D01*
X105466250Y-68707000D01*
X104267000Y-68707000D01*
X104013000Y-68707000D01*
X103993000Y-68707000D01*
X103993000Y-68453000D01*
X104013000Y-68453000D01*
X104013000Y-67103750D01*
X104267000Y-67103750D01*
X104267000Y-68453000D01*
X105466250Y-68453000D01*
X105625000Y-68294250D01*
X105628072Y-67580000D01*
X105615812Y-67455518D01*
X105579502Y-67335820D01*
X105520537Y-67225506D01*
X105441185Y-67128815D01*
X105344494Y-67049463D01*
X105234180Y-66990498D01*
X105114482Y-66954188D01*
X104990000Y-66941928D01*
X104425750Y-66945000D01*
X104267000Y-67103750D01*
X104013000Y-67103750D01*
X103854250Y-66945000D01*
X103290000Y-66941928D01*
X103165518Y-66954188D01*
X103045820Y-66990498D01*
X102935506Y-67049463D01*
X102838815Y-67128815D01*
X102759463Y-67225506D01*
X102700498Y-67335820D01*
X102689945Y-67370608D01*
X102469014Y-67189294D01*
X102211034Y-67051401D01*
X101931111Y-66966487D01*
X101640000Y-66937815D01*
X101348890Y-66966487D01*
X101068967Y-67051401D01*
X100810987Y-67189294D01*
X100584866Y-67374866D01*
X100399294Y-67600986D01*
X100261401Y-67858966D01*
X100176487Y-68138889D01*
X100155000Y-68357050D01*
X95402200Y-68357050D01*
X95465000Y-68294250D01*
X95468072Y-67580000D01*
X95455812Y-67455518D01*
X95419502Y-67335820D01*
X95360537Y-67225506D01*
X95281185Y-67128815D01*
X95184494Y-67049463D01*
X95074180Y-66990498D01*
X94954482Y-66954188D01*
X94830000Y-66941928D01*
X94265750Y-66945000D01*
X94107000Y-67103750D01*
X93853000Y-67103750D01*
X93694250Y-66945000D01*
X93130000Y-66941928D01*
X93005518Y-66954188D01*
X92885820Y-66990498D01*
X92775506Y-67049463D01*
X92678815Y-67128815D01*
X92599463Y-67225506D01*
X92540498Y-67335820D01*
X92529945Y-67370608D01*
X92309014Y-67189294D01*
X92051034Y-67051401D01*
X91771111Y-66966487D01*
X91480000Y-66937815D01*
X91188890Y-66966487D01*
X90908967Y-67051401D01*
X90650987Y-67189294D01*
X90424866Y-67374866D01*
X90239294Y-67600986D01*
X90101401Y-67858966D01*
X90016487Y-68138889D01*
X89995000Y-68357050D01*
X88924600Y-68357050D01*
X88924600Y-64922061D01*
X107423000Y-64922061D01*
X107423000Y-65125939D01*
X107462774Y-65325898D01*
X107540795Y-65514256D01*
X107654063Y-65683774D01*
X107798226Y-65827937D01*
X107967744Y-65941205D01*
X108156102Y-66019226D01*
X108356061Y-66059000D01*
X108559939Y-66059000D01*
X108759898Y-66019226D01*
X108948256Y-65941205D01*
X109117774Y-65827937D01*
X109261937Y-65683774D01*
X109375205Y-65514256D01*
X109453226Y-65325898D01*
X109493000Y-65125939D01*
X109493000Y-64922061D01*
X109453226Y-64722102D01*
X109375205Y-64533744D01*
X109261937Y-64364226D01*
X109117774Y-64220063D01*
X108948256Y-64106795D01*
X108759898Y-64028774D01*
X108559939Y-63989000D01*
X108356061Y-63989000D01*
X108156102Y-64028774D01*
X107967744Y-64106795D01*
X107798226Y-64220063D01*
X107654063Y-64364226D01*
X107540795Y-64533744D01*
X107462774Y-64722102D01*
X107423000Y-64922061D01*
X88924600Y-64922061D01*
X88924600Y-61620061D01*
X91929000Y-61620061D01*
X91929000Y-61823939D01*
X91968774Y-62023898D01*
X92046795Y-62212256D01*
X92160063Y-62381774D01*
X92304226Y-62525937D01*
X92473744Y-62639205D01*
X92662102Y-62717226D01*
X92862061Y-62757000D01*
X93065939Y-62757000D01*
X93265898Y-62717226D01*
X93454256Y-62639205D01*
X93623774Y-62525937D01*
X93767937Y-62381774D01*
X93881205Y-62212256D01*
X93959226Y-62023898D01*
X93999000Y-61823939D01*
X93999000Y-61620061D01*
X93959226Y-61420102D01*
X93881205Y-61231744D01*
X93767937Y-61062226D01*
X93623774Y-60918063D01*
X93454256Y-60804795D01*
X93265898Y-60726774D01*
X93065939Y-60687000D01*
X92862061Y-60687000D01*
X92662102Y-60726774D01*
X92473744Y-60804795D01*
X92304226Y-60918063D01*
X92160063Y-61062226D01*
X92046795Y-61231744D01*
X91968774Y-61420102D01*
X91929000Y-61620061D01*
X88924600Y-61620061D01*
X88924600Y-59460600D01*
X167310600Y-59460600D01*
X167310600Y-68906192D01*
G37*
X167310600Y-68906192D02*
X167282074Y-68852824D01*
X167187101Y-68737099D01*
X167158102Y-68713301D01*
X166588072Y-68143271D01*
X166588072Y-67855000D01*
X166571008Y-67681746D01*
X166520472Y-67515150D01*
X166438405Y-67361614D01*
X166327962Y-67227038D01*
X166193386Y-67116595D01*
X166039850Y-67034528D01*
X165873254Y-66983992D01*
X165700000Y-66966928D01*
X165536731Y-66966928D01*
X162828804Y-64259003D01*
X162805001Y-64229999D01*
X162689276Y-64135026D01*
X162557247Y-64064454D01*
X162413986Y-64020997D01*
X162302333Y-64010000D01*
X162302322Y-64010000D01*
X162265000Y-64006324D01*
X162227678Y-64010000D01*
X150174803Y-64010000D01*
X147883804Y-61719003D01*
X147860001Y-61689999D01*
X147744276Y-61595026D01*
X147612247Y-61524454D01*
X147468986Y-61480997D01*
X147357333Y-61470000D01*
X147357322Y-61470000D01*
X147320000Y-61466324D01*
X147282678Y-61470000D01*
X136108072Y-61470000D01*
X136108072Y-61380000D01*
X136095812Y-61255518D01*
X136059502Y-61135820D01*
X136000537Y-61025506D01*
X135921185Y-60928815D01*
X135824494Y-60849463D01*
X135714180Y-60790498D01*
X135594482Y-60754188D01*
X135470000Y-60741928D01*
X133770000Y-60741928D01*
X133645518Y-60754188D01*
X133525820Y-60790498D01*
X133415506Y-60849463D01*
X133318815Y-60928815D01*
X133239463Y-61025506D01*
X133180498Y-61135820D01*
X133158487Y-61208380D01*
X133026632Y-61076525D01*
X132783411Y-60914010D01*
X132513158Y-60802068D01*
X132226260Y-60745000D01*
X131933740Y-60745000D01*
X131646842Y-60802068D01*
X131376589Y-60914010D01*
X131133368Y-61076525D01*
X130926525Y-61283368D01*
X130804805Y-61465534D01*
X130735178Y-61348645D01*
X130540269Y-61132412D01*
X130306920Y-60958359D01*
X130044099Y-60833175D01*
X129896890Y-60788524D01*
X129667000Y-60909845D01*
X129667000Y-62103000D01*
X129687000Y-62103000D01*
X129687000Y-62357000D01*
X129667000Y-62357000D01*
X129667000Y-62377000D01*
X129413000Y-62377000D01*
X129413000Y-62357000D01*
X129393000Y-62357000D01*
X129393000Y-62103000D01*
X129413000Y-62103000D01*
X129413000Y-60909845D01*
X129183110Y-60788524D01*
X129035901Y-60833175D01*
X128773080Y-60958359D01*
X128539731Y-61132412D01*
X128344822Y-61348645D01*
X128275195Y-61465534D01*
X128153475Y-61283368D01*
X127946632Y-61076525D01*
X127703411Y-60914010D01*
X127433158Y-60802068D01*
X127146260Y-60745000D01*
X126853740Y-60745000D01*
X126566842Y-60802068D01*
X126296589Y-60914010D01*
X126053368Y-61076525D01*
X125846525Y-61283368D01*
X125730000Y-61457760D01*
X125613475Y-61283368D01*
X125406632Y-61076525D01*
X125163411Y-60914010D01*
X124893158Y-60802068D01*
X124606260Y-60745000D01*
X124313740Y-60745000D01*
X124026842Y-60802068D01*
X123756589Y-60914010D01*
X123513368Y-61076525D01*
X123306525Y-61283368D01*
X123190000Y-61457760D01*
X123073475Y-61283368D01*
X122866632Y-61076525D01*
X122623411Y-60914010D01*
X122353158Y-60802068D01*
X122066260Y-60745000D01*
X121773740Y-60745000D01*
X121486842Y-60802068D01*
X121216589Y-60914010D01*
X120973368Y-61076525D01*
X120766525Y-61283368D01*
X120650000Y-61457760D01*
X120533475Y-61283368D01*
X120326632Y-61076525D01*
X120083411Y-60914010D01*
X119813158Y-60802068D01*
X119526260Y-60745000D01*
X119233740Y-60745000D01*
X118946842Y-60802068D01*
X118676589Y-60914010D01*
X118433368Y-61076525D01*
X118226525Y-61283368D01*
X118110000Y-61457760D01*
X117993475Y-61283368D01*
X117786632Y-61076525D01*
X117543411Y-60914010D01*
X117273158Y-60802068D01*
X116986260Y-60745000D01*
X116693740Y-60745000D01*
X116406842Y-60802068D01*
X116136589Y-60914010D01*
X115893368Y-61076525D01*
X115686525Y-61283368D01*
X115570000Y-61457760D01*
X115453475Y-61283368D01*
X115246632Y-61076525D01*
X115003411Y-60914010D01*
X114733158Y-60802068D01*
X114446260Y-60745000D01*
X114153740Y-60745000D01*
X113866842Y-60802068D01*
X113596589Y-60914010D01*
X113353368Y-61076525D01*
X113146525Y-61283368D01*
X113030000Y-61457760D01*
X112913475Y-61283368D01*
X112706632Y-61076525D01*
X112463411Y-60914010D01*
X112193158Y-60802068D01*
X111906260Y-60745000D01*
X111613740Y-60745000D01*
X111326842Y-60802068D01*
X111056589Y-60914010D01*
X110813368Y-61076525D01*
X110606525Y-61283368D01*
X110444010Y-61526589D01*
X110332068Y-61796842D01*
X110275000Y-62083740D01*
X110275000Y-62376260D01*
X110332068Y-62663158D01*
X110444010Y-62933411D01*
X110606525Y-63176632D01*
X110813368Y-63383475D01*
X111000001Y-63508179D01*
X111000000Y-65049827D01*
X110966291Y-65060053D01*
X110813836Y-65141542D01*
X110680208Y-65251208D01*
X110570542Y-65384836D01*
X110489053Y-65537291D01*
X110438872Y-65702715D01*
X110421928Y-65874750D01*
X110421928Y-66362250D01*
X110438872Y-66534285D01*
X110489053Y-66699709D01*
X110570542Y-66852164D01*
X110680208Y-66985792D01*
X110765756Y-67056000D01*
X110680208Y-67126208D01*
X110570542Y-67259836D01*
X110489053Y-67412291D01*
X110438872Y-67577715D01*
X110421928Y-67749750D01*
X110421928Y-68237250D01*
X110438872Y-68409285D01*
X110489053Y-68574709D01*
X110570542Y-68727164D01*
X110680208Y-68860792D01*
X110813836Y-68970458D01*
X110966291Y-69051947D01*
X111131715Y-69102128D01*
X111303750Y-69119072D01*
X111574001Y-69119072D01*
X111574000Y-69651981D01*
X111482815Y-69726815D01*
X111403463Y-69823506D01*
X111344498Y-69933820D01*
X111308188Y-70053518D01*
X111295928Y-70178000D01*
X111295928Y-71078000D01*
X111308188Y-71202482D01*
X111344498Y-71322180D01*
X111403463Y-71432494D01*
X111482815Y-71529185D01*
X111579506Y-71608537D01*
X111689820Y-71667502D01*
X111809518Y-71703812D01*
X111934000Y-71716072D01*
X112445905Y-71716072D01*
X112432815Y-71726815D01*
X112353463Y-71823506D01*
X112294498Y-71933820D01*
X112258188Y-72053518D01*
X112245928Y-72178000D01*
X112245928Y-73078000D01*
X112258188Y-73202482D01*
X112294498Y-73322180D01*
X112353463Y-73432494D01*
X112432815Y-73529185D01*
X112524000Y-73604019D01*
X112524001Y-74560168D01*
X112520324Y-74597500D01*
X112524001Y-74634833D01*
X112534998Y-74746486D01*
X112548180Y-74789942D01*
X112578454Y-74889746D01*
X112649026Y-75021776D01*
X112714984Y-75102145D01*
X112744000Y-75137501D01*
X112772998Y-75161299D01*
X113252928Y-75641229D01*
X113252928Y-76148250D01*
X113269872Y-76320285D01*
X113320053Y-76485709D01*
X113401542Y-76638164D01*
X113511208Y-76771792D01*
X113618501Y-76859845D01*
X113618501Y-77765168D01*
X113614824Y-77802500D01*
X113618501Y-77839833D01*
X113629498Y-77951486D01*
X113637351Y-77977374D01*
X113672954Y-78094746D01*
X113743526Y-78226776D01*
X113814146Y-78312826D01*
X113838500Y-78342501D01*
X113867498Y-78366299D01*
X116313000Y-80811802D01*
X116313000Y-80873939D01*
X116352774Y-81073898D01*
X116430795Y-81262256D01*
X116544063Y-81431774D01*
X116688226Y-81575937D01*
X116857744Y-81689205D01*
X117046102Y-81767226D01*
X117246061Y-81807000D01*
X117449939Y-81807000D01*
X117649898Y-81767226D01*
X117838256Y-81689205D01*
X118007774Y-81575937D01*
X118151937Y-81431774D01*
X118265205Y-81262256D01*
X118343226Y-81073898D01*
X118383000Y-80873939D01*
X118383000Y-80670061D01*
X118343226Y-80470102D01*
X118265205Y-80281744D01*
X118151937Y-80112226D01*
X118007774Y-79968063D01*
X117838256Y-79854795D01*
X117649898Y-79776774D01*
X117449939Y-79737000D01*
X117387802Y-79737000D01*
X115138500Y-77487699D01*
X115138500Y-76859845D01*
X115245792Y-76771792D01*
X115316000Y-76686244D01*
X115386208Y-76771792D01*
X115519836Y-76881458D01*
X115672291Y-76962947D01*
X115837715Y-77013128D01*
X116009750Y-77030072D01*
X116497250Y-77030072D01*
X116669285Y-77013128D01*
X116834709Y-76962947D01*
X116987164Y-76881458D01*
X117120792Y-76771792D01*
X117230458Y-76638164D01*
X117311947Y-76485709D01*
X117322173Y-76452000D01*
X117541199Y-76452000D01*
X118345000Y-77255802D01*
X118345000Y-77317939D01*
X118384774Y-77517898D01*
X118462795Y-77706256D01*
X118576063Y-77875774D01*
X118720226Y-78019937D01*
X118889744Y-78133205D01*
X119078102Y-78211226D01*
X119278061Y-78251000D01*
X119481939Y-78251000D01*
X119681898Y-78211226D01*
X119870256Y-78133205D01*
X120039774Y-78019937D01*
X120183937Y-77875774D01*
X120297205Y-77706256D01*
X120375226Y-77517898D01*
X120415000Y-77317939D01*
X120415000Y-77114061D01*
X120375226Y-76914102D01*
X120297205Y-76725744D01*
X120183937Y-76556226D01*
X120039774Y-76412063D01*
X119870256Y-76298795D01*
X119681898Y-76220774D01*
X119481939Y-76181000D01*
X119419802Y-76181000D01*
X118419803Y-75181002D01*
X118396001Y-75151999D01*
X118280276Y-75057026D01*
X118148247Y-74986454D01*
X118004986Y-74942997D01*
X117893333Y-74932000D01*
X117893322Y-74932000D01*
X117856000Y-74928324D01*
X117818678Y-74932000D01*
X117322173Y-74932000D01*
X117311947Y-74898291D01*
X117230458Y-74745836D01*
X117120792Y-74612208D01*
X116987164Y-74502542D01*
X116834709Y-74421053D01*
X116669285Y-74370872D01*
X116497250Y-74353928D01*
X116009750Y-74353928D01*
X115837715Y-74370872D01*
X115672291Y-74421053D01*
X115519836Y-74502542D01*
X115386208Y-74612208D01*
X115316000Y-74697756D01*
X115245792Y-74612208D01*
X115112164Y-74502542D01*
X114959709Y-74421053D01*
X114794285Y-74370872D01*
X114622250Y-74353928D01*
X114134750Y-74353928D01*
X114116980Y-74355678D01*
X114044000Y-74282699D01*
X114044000Y-73604018D01*
X114135185Y-73529185D01*
X114214537Y-73432494D01*
X114273502Y-73322180D01*
X114309812Y-73202482D01*
X114322072Y-73078000D01*
X114322072Y-72178000D01*
X114309812Y-72053518D01*
X114273502Y-71933820D01*
X114214537Y-71823506D01*
X114135185Y-71726815D01*
X114122095Y-71716072D01*
X114634000Y-71716072D01*
X114758482Y-71703812D01*
X114878180Y-71667502D01*
X114988494Y-71608537D01*
X115085185Y-71529185D01*
X115164537Y-71432494D01*
X115188320Y-71388000D01*
X115692178Y-71388000D01*
X115729500Y-71391676D01*
X115766822Y-71388000D01*
X115766833Y-71388000D01*
X115878486Y-71377003D01*
X116021747Y-71333546D01*
X116153776Y-71262974D01*
X116269501Y-71168001D01*
X116293304Y-71138998D01*
X116789229Y-70643072D01*
X117296250Y-70643072D01*
X117468285Y-70626128D01*
X117633709Y-70575947D01*
X117786164Y-70494458D01*
X117919792Y-70384792D01*
X118029458Y-70251164D01*
X118110947Y-70098709D01*
X118144630Y-69987671D01*
X123618302Y-64514000D01*
X130518678Y-64514000D01*
X130556000Y-64517676D01*
X130593322Y-64514000D01*
X130593333Y-64514000D01*
X130704986Y-64503003D01*
X130848247Y-64459546D01*
X130980276Y-64388974D01*
X131096001Y-64294001D01*
X131119803Y-64264998D01*
X131713592Y-63671210D01*
X131933740Y-63715000D01*
X132226260Y-63715000D01*
X132513158Y-63657932D01*
X132783411Y-63545990D01*
X133026632Y-63383475D01*
X133158487Y-63251620D01*
X133180498Y-63324180D01*
X133239463Y-63434494D01*
X133318815Y-63531185D01*
X133415506Y-63610537D01*
X133525820Y-63669502D01*
X133645518Y-63705812D01*
X133770000Y-63718072D01*
X135470000Y-63718072D01*
X135594482Y-63705812D01*
X135714180Y-63669502D01*
X135824494Y-63610537D01*
X135921185Y-63531185D01*
X136000537Y-63434494D01*
X136059502Y-63324180D01*
X136095812Y-63204482D01*
X136108072Y-63080000D01*
X136108072Y-62990000D01*
X147005199Y-62990000D01*
X149100001Y-65084804D01*
X149100000Y-66982687D01*
X149086746Y-66983992D01*
X148920150Y-67034528D01*
X148766614Y-67116595D01*
X148632038Y-67227038D01*
X148521595Y-67361614D01*
X148467223Y-67463337D01*
X148415134Y-67399866D01*
X148189014Y-67214294D01*
X147931034Y-67076401D01*
X147651111Y-66991487D01*
X147360000Y-66962815D01*
X147068890Y-66991487D01*
X146788967Y-67076401D01*
X146530987Y-67214294D01*
X146304866Y-67399866D01*
X146119294Y-67625986D01*
X146110000Y-67643374D01*
X146100706Y-67625986D01*
X145915134Y-67399866D01*
X145689014Y-67214294D01*
X145431034Y-67076401D01*
X145151111Y-66991487D01*
X144860000Y-66962815D01*
X144568890Y-66991487D01*
X144288967Y-67076401D01*
X144030987Y-67214294D01*
X143804866Y-67399866D01*
X143619294Y-67625986D01*
X143610000Y-67643374D01*
X143600706Y-67625986D01*
X143415134Y-67399866D01*
X143189014Y-67214294D01*
X142931034Y-67076401D01*
X142651111Y-66991487D01*
X142360000Y-66962815D01*
X142068890Y-66991487D01*
X141788967Y-67076401D01*
X141530987Y-67214294D01*
X141304866Y-67399866D01*
X141119294Y-67625986D01*
X140981401Y-67883966D01*
X140896487Y-68163889D01*
X140875000Y-68382050D01*
X140875000Y-68777949D01*
X140896487Y-68996110D01*
X140981401Y-69276033D01*
X141119294Y-69534013D01*
X141304866Y-69760134D01*
X141530986Y-69945706D01*
X141788966Y-70083599D01*
X142068889Y-70168513D01*
X142360000Y-70197185D01*
X142651110Y-70168513D01*
X142931033Y-70083599D01*
X143189013Y-69945706D01*
X143415134Y-69760134D01*
X143600706Y-69534014D01*
X143610000Y-69516626D01*
X143619294Y-69534013D01*
X143804866Y-69760134D01*
X144030986Y-69945706D01*
X144288966Y-70083599D01*
X144568889Y-70168513D01*
X144860000Y-70197185D01*
X145151110Y-70168513D01*
X145431033Y-70083599D01*
X145689013Y-69945706D01*
X145915134Y-69760134D01*
X146100706Y-69534014D01*
X146110000Y-69516626D01*
X146119294Y-69534013D01*
X146304866Y-69760134D01*
X146530986Y-69945706D01*
X146788966Y-70083599D01*
X147068889Y-70168513D01*
X147360000Y-70197185D01*
X147651110Y-70168513D01*
X147931033Y-70083599D01*
X148189013Y-69945706D01*
X148415134Y-69760134D01*
X148467223Y-69696663D01*
X148521595Y-69798386D01*
X148632038Y-69932962D01*
X148766614Y-70043405D01*
X148920150Y-70125472D01*
X149086746Y-70176008D01*
X149260000Y-70193072D01*
X150460000Y-70193072D01*
X150633254Y-70176008D01*
X150799850Y-70125472D01*
X150953386Y-70043405D01*
X151033147Y-69977948D01*
X156720001Y-75664803D01*
X156720000Y-79682687D01*
X156706746Y-79683992D01*
X156540150Y-79734528D01*
X156386614Y-79816595D01*
X156252038Y-79927038D01*
X156141595Y-80061614D01*
X156059528Y-80215150D01*
X156008992Y-80381746D01*
X155991928Y-80555000D01*
X155991928Y-82005000D01*
X156008992Y-82178254D01*
X156059528Y-82344850D01*
X156141595Y-82498386D01*
X156150708Y-82509490D01*
X155600199Y-83060000D01*
X143000000Y-83060000D01*
X143000000Y-82877313D01*
X143013254Y-82876008D01*
X143179850Y-82825472D01*
X143333386Y-82743405D01*
X143467962Y-82632962D01*
X143578405Y-82498386D01*
X143632777Y-82396663D01*
X143684866Y-82460134D01*
X143910987Y-82645706D01*
X144168967Y-82783599D01*
X144448890Y-82868513D01*
X144740000Y-82897185D01*
X145031111Y-82868513D01*
X145311034Y-82783599D01*
X145569014Y-82645706D01*
X145795134Y-82460134D01*
X145980706Y-82234014D01*
X145990000Y-82216626D01*
X145999294Y-82234014D01*
X146184866Y-82460134D01*
X146410987Y-82645706D01*
X146668967Y-82783599D01*
X146948890Y-82868513D01*
X147240000Y-82897185D01*
X147531111Y-82868513D01*
X147811034Y-82783599D01*
X148069014Y-82645706D01*
X148295134Y-82460134D01*
X148480706Y-82234014D01*
X148490000Y-82216626D01*
X148499294Y-82234014D01*
X148684866Y-82460134D01*
X148910987Y-82645706D01*
X149168967Y-82783599D01*
X149448890Y-82868513D01*
X149740000Y-82897185D01*
X150031111Y-82868513D01*
X150311034Y-82783599D01*
X150569014Y-82645706D01*
X150795134Y-82460134D01*
X150980706Y-82234014D01*
X151118599Y-81976033D01*
X151203513Y-81696110D01*
X151225000Y-81477949D01*
X151225000Y-81082050D01*
X151203513Y-80863889D01*
X151118599Y-80583966D01*
X150980706Y-80325986D01*
X150795134Y-80099866D01*
X150569013Y-79914294D01*
X150311033Y-79776401D01*
X150031110Y-79691487D01*
X149740000Y-79662815D01*
X149448889Y-79691487D01*
X149168966Y-79776401D01*
X148910986Y-79914294D01*
X148684866Y-80099866D01*
X148499294Y-80325987D01*
X148490000Y-80343374D01*
X148480706Y-80325986D01*
X148295134Y-80099866D01*
X148069013Y-79914294D01*
X147811033Y-79776401D01*
X147531110Y-79691487D01*
X147240000Y-79662815D01*
X146948889Y-79691487D01*
X146668966Y-79776401D01*
X146410986Y-79914294D01*
X146184866Y-80099866D01*
X145999294Y-80325987D01*
X145990000Y-80343374D01*
X145980706Y-80325986D01*
X145795134Y-80099866D01*
X145569013Y-79914294D01*
X145311033Y-79776401D01*
X145031110Y-79691487D01*
X144740000Y-79662815D01*
X144448889Y-79691487D01*
X144168966Y-79776401D01*
X143910986Y-79914294D01*
X143684866Y-80099866D01*
X143632777Y-80163337D01*
X143578405Y-80061614D01*
X143467962Y-79927038D01*
X143333386Y-79816595D01*
X143179850Y-79734528D01*
X143013254Y-79683992D01*
X142996421Y-79682334D01*
X142989003Y-79607014D01*
X142945546Y-79463753D01*
X142918051Y-79412314D01*
X142874974Y-79331723D01*
X142803799Y-79244997D01*
X142780001Y-79215999D01*
X142751004Y-79192202D01*
X141984000Y-78425199D01*
X141984000Y-76903711D01*
X142027937Y-76859774D01*
X142141205Y-76690256D01*
X142219226Y-76501898D01*
X142259000Y-76301939D01*
X142259000Y-76098061D01*
X142219226Y-75898102D01*
X142141205Y-75709744D01*
X142027937Y-75540226D01*
X141883774Y-75396063D01*
X141714256Y-75282795D01*
X141525898Y-75204774D01*
X141325939Y-75165000D01*
X141122061Y-75165000D01*
X140922102Y-75204774D01*
X140733744Y-75282795D01*
X140564226Y-75396063D01*
X140420063Y-75540226D01*
X140306795Y-75709744D01*
X140228774Y-75898102D01*
X140189000Y-76098061D01*
X140189000Y-76301939D01*
X140228774Y-76501898D01*
X140288147Y-76645236D01*
X140156574Y-76513663D01*
X139987056Y-76400395D01*
X139798698Y-76322374D01*
X139598739Y-76282600D01*
X139394861Y-76282600D01*
X139194902Y-76322374D01*
X139006544Y-76400395D01*
X138837026Y-76513663D01*
X138719189Y-76631500D01*
X138073845Y-76631500D01*
X137985792Y-76524208D01*
X137900244Y-76454000D01*
X137985792Y-76383792D01*
X138095458Y-76250164D01*
X138176947Y-76097709D01*
X138227128Y-75932285D01*
X138244072Y-75760250D01*
X138244072Y-75272750D01*
X138227128Y-75100715D01*
X138176947Y-74935291D01*
X138095458Y-74782836D01*
X137985792Y-74649208D01*
X137852164Y-74539542D01*
X137699709Y-74458053D01*
X137534285Y-74407872D01*
X137362250Y-74390928D01*
X136449750Y-74390928D01*
X136277715Y-74407872D01*
X136112291Y-74458053D01*
X135959836Y-74539542D01*
X135864876Y-74617474D01*
X133648400Y-72400999D01*
X133648400Y-72211861D01*
X133608626Y-72011902D01*
X133530605Y-71823544D01*
X133417337Y-71654026D01*
X133273174Y-71509863D01*
X133103656Y-71396595D01*
X132915298Y-71318574D01*
X132715339Y-71278800D01*
X132511461Y-71278800D01*
X132311502Y-71318574D01*
X132123144Y-71396595D01*
X131953626Y-71509863D01*
X131809463Y-71654026D01*
X131696195Y-71823544D01*
X131618174Y-72011902D01*
X131578400Y-72211861D01*
X131578400Y-72415739D01*
X131618174Y-72615698D01*
X131696195Y-72804056D01*
X131800526Y-72960200D01*
X131625702Y-72994974D01*
X131437344Y-73072995D01*
X131267826Y-73186263D01*
X131123663Y-73330426D01*
X131010395Y-73499944D01*
X130932374Y-73688302D01*
X130892600Y-73888261D01*
X130892600Y-74092139D01*
X130932374Y-74292098D01*
X131010395Y-74480456D01*
X131123663Y-74649974D01*
X131267826Y-74794137D01*
X131437344Y-74907405D01*
X131574001Y-74964011D01*
X131574000Y-79914992D01*
X131570324Y-79952315D01*
X131574000Y-79989637D01*
X131574000Y-79989647D01*
X131584997Y-80101300D01*
X131628454Y-80244561D01*
X131699026Y-80376591D01*
X131738871Y-80425141D01*
X131793999Y-80492316D01*
X131823003Y-80516119D01*
X137920528Y-86613645D01*
X137866574Y-86743902D01*
X137826800Y-86943861D01*
X137826800Y-87147739D01*
X137866574Y-87347698D01*
X137944595Y-87536056D01*
X138057863Y-87705574D01*
X138202026Y-87849737D01*
X138371544Y-87963005D01*
X138559902Y-88041026D01*
X138759861Y-88080800D01*
X138963739Y-88080800D01*
X139163698Y-88041026D01*
X139352056Y-87963005D01*
X139521574Y-87849737D01*
X139665737Y-87705574D01*
X139779005Y-87536056D01*
X139857026Y-87347698D01*
X139896800Y-87147739D01*
X139896800Y-86943861D01*
X139857026Y-86743902D01*
X139779005Y-86555544D01*
X139665737Y-86386026D01*
X139610787Y-86331076D01*
X139567346Y-86187868D01*
X139496774Y-86055839D01*
X139401801Y-85940114D01*
X139372803Y-85916316D01*
X133094000Y-79637514D01*
X133094000Y-74433922D01*
X133097676Y-74396599D01*
X133094000Y-74359276D01*
X133094000Y-74359267D01*
X133083003Y-74247614D01*
X133039546Y-74104353D01*
X132968974Y-73972324D01*
X132962600Y-73964557D01*
X132962600Y-73888261D01*
X132956775Y-73858976D01*
X135125301Y-76027503D01*
X135149099Y-76056501D01*
X135264824Y-76151474D01*
X135396853Y-76222046D01*
X135540114Y-76265503D01*
X135651767Y-76276500D01*
X135651775Y-76276500D01*
X135689100Y-76280176D01*
X135726425Y-76276500D01*
X135738155Y-76276500D01*
X135826208Y-76383792D01*
X135911756Y-76454000D01*
X135826208Y-76524208D01*
X135716542Y-76657836D01*
X135635053Y-76810291D01*
X135584872Y-76975715D01*
X135567928Y-77147750D01*
X135567928Y-77635250D01*
X135584872Y-77807285D01*
X135635053Y-77972709D01*
X135716542Y-78125164D01*
X135826208Y-78258792D01*
X135959836Y-78368458D01*
X136112291Y-78449947D01*
X136277715Y-78500128D01*
X136449750Y-78517072D01*
X137362250Y-78517072D01*
X137534285Y-78500128D01*
X137699709Y-78449947D01*
X137852164Y-78368458D01*
X137985792Y-78258792D01*
X138073845Y-78151500D01*
X138881869Y-78151500D01*
X139006544Y-78234805D01*
X139194902Y-78312826D01*
X139394861Y-78352600D01*
X139598739Y-78352600D01*
X139798698Y-78312826D01*
X139987056Y-78234805D01*
X140156574Y-78121537D01*
X140300737Y-77977374D01*
X140414005Y-77807856D01*
X140464001Y-77687157D01*
X140464001Y-78702668D01*
X140460324Y-78740000D01*
X140474998Y-78888985D01*
X140518454Y-79032246D01*
X140589026Y-79164276D01*
X140655273Y-79244997D01*
X140684000Y-79280001D01*
X140712998Y-79303799D01*
X141198213Y-79789015D01*
X141146614Y-79816595D01*
X141012038Y-79927038D01*
X140901595Y-80061614D01*
X140819528Y-80215150D01*
X140768992Y-80381746D01*
X140751928Y-80555000D01*
X140751928Y-82005000D01*
X140768992Y-82178254D01*
X140819528Y-82344850D01*
X140901595Y-82498386D01*
X141012038Y-82632962D01*
X141146614Y-82743405D01*
X141300150Y-82825472D01*
X141466746Y-82876008D01*
X141480001Y-82877313D01*
X141480001Y-83782657D01*
X141476323Y-83820000D01*
X141490997Y-83968986D01*
X141534454Y-84112247D01*
X141605026Y-84244276D01*
X141699999Y-84360001D01*
X141815724Y-84454974D01*
X141947753Y-84525546D01*
X142091014Y-84569003D01*
X142202667Y-84580000D01*
X142240000Y-84583677D01*
X142277333Y-84580000D01*
X155877678Y-84580000D01*
X155915000Y-84583676D01*
X155952322Y-84580000D01*
X155952333Y-84580000D01*
X156063986Y-84569003D01*
X156207247Y-84525546D01*
X156339276Y-84454974D01*
X156455001Y-84360001D01*
X156478804Y-84330997D01*
X157916730Y-82893072D01*
X158080000Y-82893072D01*
X158253254Y-82876008D01*
X158419850Y-82825472D01*
X158573386Y-82743405D01*
X158707962Y-82632962D01*
X158818405Y-82498386D01*
X158872777Y-82396663D01*
X158924866Y-82460134D01*
X159150987Y-82645706D01*
X159408967Y-82783599D01*
X159688890Y-82868513D01*
X159980000Y-82897185D01*
X160271111Y-82868513D01*
X160551034Y-82783599D01*
X160809014Y-82645706D01*
X161035134Y-82460134D01*
X161220706Y-82234014D01*
X161230000Y-82216626D01*
X161239294Y-82234014D01*
X161424866Y-82460134D01*
X161650987Y-82645706D01*
X161908967Y-82783599D01*
X162188890Y-82868513D01*
X162480000Y-82897185D01*
X162771111Y-82868513D01*
X163051034Y-82783599D01*
X163309014Y-82645706D01*
X163535134Y-82460134D01*
X163720706Y-82234014D01*
X163730000Y-82216626D01*
X163739294Y-82234014D01*
X163924866Y-82460134D01*
X164150987Y-82645706D01*
X164408967Y-82783599D01*
X164688890Y-82868513D01*
X164980000Y-82897185D01*
X165271111Y-82868513D01*
X165551034Y-82783599D01*
X165809014Y-82645706D01*
X166035134Y-82460134D01*
X166220706Y-82234014D01*
X166358599Y-81976033D01*
X166443513Y-81696110D01*
X166465000Y-81477949D01*
X166465000Y-81082050D01*
X166443513Y-80863889D01*
X166358599Y-80583966D01*
X166220706Y-80325986D01*
X166035134Y-80099866D01*
X165809013Y-79914294D01*
X165551033Y-79776401D01*
X165271110Y-79691487D01*
X164980000Y-79662815D01*
X164688889Y-79691487D01*
X164408966Y-79776401D01*
X164150986Y-79914294D01*
X163924866Y-80099866D01*
X163739294Y-80325987D01*
X163730000Y-80343374D01*
X163720706Y-80325986D01*
X163535134Y-80099866D01*
X163309013Y-79914294D01*
X163051033Y-79776401D01*
X162771110Y-79691487D01*
X162480000Y-79662815D01*
X162188889Y-79691487D01*
X161908966Y-79776401D01*
X161650986Y-79914294D01*
X161424866Y-80099866D01*
X161239294Y-80325987D01*
X161230000Y-80343374D01*
X161220706Y-80325986D01*
X161035134Y-80099866D01*
X160809013Y-79914294D01*
X160551033Y-79776401D01*
X160271110Y-79691487D01*
X159980000Y-79662815D01*
X159688889Y-79691487D01*
X159408966Y-79776401D01*
X159150986Y-79914294D01*
X158924866Y-80099866D01*
X158872777Y-80163337D01*
X158818405Y-80061614D01*
X158707962Y-79927038D01*
X158573386Y-79816595D01*
X158419850Y-79734528D01*
X158253254Y-79683992D01*
X158240000Y-79682687D01*
X158240000Y-75387323D01*
X158243676Y-75350000D01*
X158240000Y-75312677D01*
X158240000Y-75312667D01*
X158229003Y-75201014D01*
X158185546Y-75057753D01*
X158114974Y-74925724D01*
X158020001Y-74809999D01*
X157991003Y-74786201D01*
X151348072Y-68143271D01*
X151348072Y-67855000D01*
X151331008Y-67681746D01*
X151280472Y-67515150D01*
X151198405Y-67361614D01*
X151087962Y-67227038D01*
X150953386Y-67116595D01*
X150799850Y-67034528D01*
X150633254Y-66983992D01*
X150620000Y-66982687D01*
X150620000Y-65530000D01*
X161950199Y-65530000D01*
X163770708Y-67350510D01*
X163761595Y-67361614D01*
X163707223Y-67463337D01*
X163655134Y-67399866D01*
X163429014Y-67214294D01*
X163171034Y-67076401D01*
X162891111Y-66991487D01*
X162600000Y-66962815D01*
X162308890Y-66991487D01*
X162028967Y-67076401D01*
X161770987Y-67214294D01*
X161544866Y-67399866D01*
X161359294Y-67625986D01*
X161350000Y-67643374D01*
X161340706Y-67625986D01*
X161155134Y-67399866D01*
X160929014Y-67214294D01*
X160671034Y-67076401D01*
X160391111Y-66991487D01*
X160100000Y-66962815D01*
X159808890Y-66991487D01*
X159528967Y-67076401D01*
X159270987Y-67214294D01*
X159044866Y-67399866D01*
X158859294Y-67625986D01*
X158850000Y-67643374D01*
X158840706Y-67625986D01*
X158655134Y-67399866D01*
X158429014Y-67214294D01*
X158171034Y-67076401D01*
X157891111Y-66991487D01*
X157600000Y-66962815D01*
X157308890Y-66991487D01*
X157028967Y-67076401D01*
X156770987Y-67214294D01*
X156544866Y-67399866D01*
X156359294Y-67625986D01*
X156221401Y-67883966D01*
X156136487Y-68163889D01*
X156115000Y-68382050D01*
X156115000Y-68777949D01*
X156136487Y-68996110D01*
X156221401Y-69276033D01*
X156359294Y-69534013D01*
X156544866Y-69760134D01*
X156770986Y-69945706D01*
X157028966Y-70083599D01*
X157308889Y-70168513D01*
X157600000Y-70197185D01*
X157891110Y-70168513D01*
X158171033Y-70083599D01*
X158429013Y-69945706D01*
X158655134Y-69760134D01*
X158840706Y-69534014D01*
X158850000Y-69516626D01*
X158859294Y-69534013D01*
X159044866Y-69760134D01*
X159270986Y-69945706D01*
X159528966Y-70083599D01*
X159808889Y-70168513D01*
X160100000Y-70197185D01*
X160391110Y-70168513D01*
X160671033Y-70083599D01*
X160929013Y-69945706D01*
X161155134Y-69760134D01*
X161340706Y-69534014D01*
X161350000Y-69516626D01*
X161359294Y-69534013D01*
X161544866Y-69760134D01*
X161770986Y-69945706D01*
X162028966Y-70083599D01*
X162308889Y-70168513D01*
X162600000Y-70197185D01*
X162891110Y-70168513D01*
X163171033Y-70083599D01*
X163429013Y-69945706D01*
X163655134Y-69760134D01*
X163707223Y-69696663D01*
X163761595Y-69798386D01*
X163872038Y-69932962D01*
X164006614Y-70043405D01*
X164160150Y-70125472D01*
X164326746Y-70176008D01*
X164500000Y-70193072D01*
X165700000Y-70193072D01*
X165873254Y-70176008D01*
X165887101Y-70171808D01*
X165887100Y-73711355D01*
X165779808Y-73799408D01*
X165709600Y-73884956D01*
X165639392Y-73799408D01*
X165505764Y-73689742D01*
X165353309Y-73608253D01*
X165187885Y-73558072D01*
X165015850Y-73541128D01*
X164528350Y-73541128D01*
X164356315Y-73558072D01*
X164190891Y-73608253D01*
X164038436Y-73689742D01*
X163904808Y-73799408D01*
X163795142Y-73933036D01*
X163713653Y-74085491D01*
X163703427Y-74119200D01*
X163670111Y-74119200D01*
X163626174Y-74075263D01*
X163456656Y-73961995D01*
X163268298Y-73883974D01*
X163068339Y-73844200D01*
X162864461Y-73844200D01*
X162664502Y-73883974D01*
X162476144Y-73961995D01*
X162306626Y-74075263D01*
X162162463Y-74219426D01*
X162049195Y-74388944D01*
X161971174Y-74577302D01*
X161931400Y-74777261D01*
X161931400Y-74981139D01*
X161971174Y-75181098D01*
X162049195Y-75369456D01*
X162162463Y-75538974D01*
X162306626Y-75683137D01*
X162476144Y-75796405D01*
X162664502Y-75874426D01*
X162864461Y-75914200D01*
X163068339Y-75914200D01*
X163268298Y-75874426D01*
X163456656Y-75796405D01*
X163626174Y-75683137D01*
X163670111Y-75639200D01*
X163703427Y-75639200D01*
X163713653Y-75672909D01*
X163795142Y-75825364D01*
X163904808Y-75958992D01*
X164038436Y-76068658D01*
X164190891Y-76150147D01*
X164356315Y-76200328D01*
X164528350Y-76217272D01*
X165015850Y-76217272D01*
X165187885Y-76200328D01*
X165353309Y-76150147D01*
X165505764Y-76068658D01*
X165639392Y-75958992D01*
X165709600Y-75873444D01*
X165779808Y-75958992D01*
X165913436Y-76068658D01*
X166065891Y-76150147D01*
X166231315Y-76200328D01*
X166403350Y-76217272D01*
X166890850Y-76217272D01*
X167062885Y-76200328D01*
X167228309Y-76150147D01*
X167310601Y-76106161D01*
X167310601Y-90424800D01*
X118860594Y-90424800D01*
X118891000Y-90271939D01*
X118891000Y-90068061D01*
X118851226Y-89868102D01*
X118773205Y-89679744D01*
X118659937Y-89510226D01*
X118515774Y-89366063D01*
X118346256Y-89252795D01*
X118157898Y-89174774D01*
X117957939Y-89135000D01*
X117754061Y-89135000D01*
X117554102Y-89174774D01*
X117365744Y-89252795D01*
X117196226Y-89366063D01*
X117052063Y-89510226D01*
X116938795Y-89679744D01*
X116860774Y-89868102D01*
X116821000Y-90068061D01*
X116821000Y-90271939D01*
X116851406Y-90424800D01*
X90109437Y-90424800D01*
X90217898Y-90403226D01*
X90406256Y-90325205D01*
X90575774Y-90211937D01*
X90719937Y-90067774D01*
X90833205Y-89898256D01*
X90911226Y-89709898D01*
X90951000Y-89509939D01*
X90951000Y-89306061D01*
X90911226Y-89106102D01*
X90833205Y-88917744D01*
X90719937Y-88748226D01*
X90575774Y-88604063D01*
X90406256Y-88490795D01*
X90217898Y-88412774D01*
X90017939Y-88373000D01*
X89814061Y-88373000D01*
X89614102Y-88412774D01*
X89425744Y-88490795D01*
X89256226Y-88604063D01*
X89112063Y-88748226D01*
X88998795Y-88917744D01*
X88924600Y-89096865D01*
X88924600Y-87483740D01*
X110275000Y-87483740D01*
X110275000Y-87776260D01*
X110332068Y-88063158D01*
X110444010Y-88333411D01*
X110606525Y-88576632D01*
X110813368Y-88783475D01*
X111056589Y-88945990D01*
X111326842Y-89057932D01*
X111613740Y-89115000D01*
X111906260Y-89115000D01*
X112193158Y-89057932D01*
X112463411Y-88945990D01*
X112706632Y-88783475D01*
X112913475Y-88576632D01*
X113030000Y-88402240D01*
X113146525Y-88576632D01*
X113353368Y-88783475D01*
X113596589Y-88945990D01*
X113866842Y-89057932D01*
X114153740Y-89115000D01*
X114446260Y-89115000D01*
X114733158Y-89057932D01*
X115003411Y-88945990D01*
X115246632Y-88783475D01*
X115453475Y-88576632D01*
X115570000Y-88402240D01*
X115686525Y-88576632D01*
X115893368Y-88783475D01*
X116136589Y-88945990D01*
X116406842Y-89057932D01*
X116693740Y-89115000D01*
X116986260Y-89115000D01*
X117273158Y-89057932D01*
X117543411Y-88945990D01*
X117786632Y-88783475D01*
X117993475Y-88576632D01*
X118110000Y-88402240D01*
X118226525Y-88576632D01*
X118433368Y-88783475D01*
X118676589Y-88945990D01*
X118946842Y-89057932D01*
X119233740Y-89115000D01*
X119526260Y-89115000D01*
X119813158Y-89057932D01*
X120083411Y-88945990D01*
X120326632Y-88783475D01*
X120533475Y-88576632D01*
X120650000Y-88402240D01*
X120766525Y-88576632D01*
X120973368Y-88783475D01*
X121216589Y-88945990D01*
X121486842Y-89057932D01*
X121773740Y-89115000D01*
X122066260Y-89115000D01*
X122353158Y-89057932D01*
X122623411Y-88945990D01*
X122866632Y-88783475D01*
X123073475Y-88576632D01*
X123190000Y-88402240D01*
X123306525Y-88576632D01*
X123513368Y-88783475D01*
X123756589Y-88945990D01*
X124026842Y-89057932D01*
X124313740Y-89115000D01*
X124606260Y-89115000D01*
X124893158Y-89057932D01*
X125163411Y-88945990D01*
X125406632Y-88783475D01*
X125613475Y-88576632D01*
X125730000Y-88402240D01*
X125846525Y-88576632D01*
X126053368Y-88783475D01*
X126296589Y-88945990D01*
X126566842Y-89057932D01*
X126853740Y-89115000D01*
X127146260Y-89115000D01*
X127433158Y-89057932D01*
X127703411Y-88945990D01*
X127946632Y-88783475D01*
X128153475Y-88576632D01*
X128270000Y-88402240D01*
X128386525Y-88576632D01*
X128593368Y-88783475D01*
X128836589Y-88945990D01*
X129106842Y-89057932D01*
X129393740Y-89115000D01*
X129686260Y-89115000D01*
X129973158Y-89057932D01*
X130243411Y-88945990D01*
X130486632Y-88783475D01*
X130693475Y-88576632D01*
X130810000Y-88402240D01*
X130926525Y-88576632D01*
X131133368Y-88783475D01*
X131376589Y-88945990D01*
X131646842Y-89057932D01*
X131933740Y-89115000D01*
X132226260Y-89115000D01*
X132513158Y-89057932D01*
X132783411Y-88945990D01*
X133026632Y-88783475D01*
X133158487Y-88651620D01*
X133180498Y-88724180D01*
X133239463Y-88834494D01*
X133318815Y-88931185D01*
X133415506Y-89010537D01*
X133525820Y-89069502D01*
X133645518Y-89105812D01*
X133770000Y-89118072D01*
X135470000Y-89118072D01*
X135594482Y-89105812D01*
X135714180Y-89069502D01*
X135824494Y-89010537D01*
X135921185Y-88931185D01*
X136000537Y-88834494D01*
X136059502Y-88724180D01*
X136095812Y-88604482D01*
X136108072Y-88480000D01*
X136108072Y-86780000D01*
X136095812Y-86655518D01*
X136059502Y-86535820D01*
X136000537Y-86425506D01*
X135921185Y-86328815D01*
X135824494Y-86249463D01*
X135714180Y-86190498D01*
X135594482Y-86154188D01*
X135470000Y-86141928D01*
X133770000Y-86141928D01*
X133645518Y-86154188D01*
X133525820Y-86190498D01*
X133415506Y-86249463D01*
X133318815Y-86328815D01*
X133239463Y-86425506D01*
X133180498Y-86535820D01*
X133158487Y-86608380D01*
X133026632Y-86476525D01*
X132783411Y-86314010D01*
X132513158Y-86202068D01*
X132226260Y-86145000D01*
X131933740Y-86145000D01*
X131646842Y-86202068D01*
X131376589Y-86314010D01*
X131133368Y-86476525D01*
X130926525Y-86683368D01*
X130810000Y-86857760D01*
X130693475Y-86683368D01*
X130486632Y-86476525D01*
X130243411Y-86314010D01*
X129973158Y-86202068D01*
X129686260Y-86145000D01*
X129393740Y-86145000D01*
X129106842Y-86202068D01*
X128836589Y-86314010D01*
X128593368Y-86476525D01*
X128386525Y-86683368D01*
X128270000Y-86857760D01*
X128153475Y-86683368D01*
X127946632Y-86476525D01*
X127703411Y-86314010D01*
X127433158Y-86202068D01*
X127146260Y-86145000D01*
X126853740Y-86145000D01*
X126566842Y-86202068D01*
X126296589Y-86314010D01*
X126053368Y-86476525D01*
X125846525Y-86683368D01*
X125730000Y-86857760D01*
X125613475Y-86683368D01*
X125406632Y-86476525D01*
X125163411Y-86314010D01*
X124893158Y-86202068D01*
X124606260Y-86145000D01*
X124313740Y-86145000D01*
X124026842Y-86202068D01*
X123756589Y-86314010D01*
X123513368Y-86476525D01*
X123306525Y-86683368D01*
X123190000Y-86857760D01*
X123073475Y-86683368D01*
X122866632Y-86476525D01*
X122623411Y-86314010D01*
X122353158Y-86202068D01*
X122066260Y-86145000D01*
X121773740Y-86145000D01*
X121486842Y-86202068D01*
X121216589Y-86314010D01*
X120973368Y-86476525D01*
X120766525Y-86683368D01*
X120650000Y-86857760D01*
X120533475Y-86683368D01*
X120326632Y-86476525D01*
X120083411Y-86314010D01*
X119813158Y-86202068D01*
X119526260Y-86145000D01*
X119233740Y-86145000D01*
X118946842Y-86202068D01*
X118676589Y-86314010D01*
X118433368Y-86476525D01*
X118226525Y-86683368D01*
X118110000Y-86857760D01*
X117993475Y-86683368D01*
X117786632Y-86476525D01*
X117543411Y-86314010D01*
X117273158Y-86202068D01*
X116986260Y-86145000D01*
X116693740Y-86145000D01*
X116406842Y-86202068D01*
X116136589Y-86314010D01*
X115893368Y-86476525D01*
X115686525Y-86683368D01*
X115570000Y-86857760D01*
X115453475Y-86683368D01*
X115246632Y-86476525D01*
X115003411Y-86314010D01*
X114733158Y-86202068D01*
X114446260Y-86145000D01*
X114153740Y-86145000D01*
X113866842Y-86202068D01*
X113596589Y-86314010D01*
X113353368Y-86476525D01*
X113146525Y-86683368D01*
X113030000Y-86857760D01*
X112913475Y-86683368D01*
X112706632Y-86476525D01*
X112463411Y-86314010D01*
X112193158Y-86202068D01*
X111906260Y-86145000D01*
X111613740Y-86145000D01*
X111326842Y-86202068D01*
X111056589Y-86314010D01*
X110813368Y-86476525D01*
X110606525Y-86683368D01*
X110444010Y-86926589D01*
X110332068Y-87196842D01*
X110275000Y-87483740D01*
X88924600Y-87483740D01*
X88924600Y-84480061D01*
X96755000Y-84480061D01*
X96755000Y-84683939D01*
X96794774Y-84883898D01*
X96872795Y-85072256D01*
X96986063Y-85241774D01*
X97130226Y-85385937D01*
X97299744Y-85499205D01*
X97488102Y-85577226D01*
X97688061Y-85617000D01*
X97891939Y-85617000D01*
X98091898Y-85577226D01*
X98280256Y-85499205D01*
X98449774Y-85385937D01*
X98593937Y-85241774D01*
X98707205Y-85072256D01*
X98785226Y-84883898D01*
X98825000Y-84683939D01*
X98825000Y-84480061D01*
X98785226Y-84280102D01*
X98707205Y-84091744D01*
X98593937Y-83922226D01*
X98449774Y-83778063D01*
X98280256Y-83664795D01*
X98091898Y-83586774D01*
X97891939Y-83547000D01*
X97688061Y-83547000D01*
X97488102Y-83586774D01*
X97299744Y-83664795D01*
X97130226Y-83778063D01*
X96986063Y-83922226D01*
X96872795Y-84091744D01*
X96794774Y-84280102D01*
X96755000Y-84480061D01*
X88924600Y-84480061D01*
X88924600Y-82280000D01*
X89951928Y-82280000D01*
X89964188Y-82404482D01*
X90000498Y-82524180D01*
X90059463Y-82634494D01*
X90138815Y-82731185D01*
X90235506Y-82810537D01*
X90345820Y-82869502D01*
X90465518Y-82905812D01*
X90590000Y-82918072D01*
X91154250Y-82915000D01*
X91313000Y-82756250D01*
X91313000Y-81407000D01*
X90113750Y-81407000D01*
X89955000Y-81565750D01*
X89951928Y-82280000D01*
X88924600Y-82280000D01*
X88924600Y-80280000D01*
X89951928Y-80280000D01*
X89955000Y-80994250D01*
X90113750Y-81153000D01*
X91313000Y-81153000D01*
X91313000Y-79803750D01*
X91567000Y-79803750D01*
X91567000Y-81153000D01*
X91587000Y-81153000D01*
X91587000Y-81407000D01*
X91567000Y-81407000D01*
X91567000Y-82756250D01*
X91725750Y-82915000D01*
X92290000Y-82918072D01*
X92414482Y-82905812D01*
X92534180Y-82869502D01*
X92644494Y-82810537D01*
X92741185Y-82731185D01*
X92820537Y-82634494D01*
X92879502Y-82524180D01*
X92890055Y-82489392D01*
X93110987Y-82670706D01*
X93368967Y-82808599D01*
X93648890Y-82893513D01*
X93940000Y-82922185D01*
X94231111Y-82893513D01*
X94511034Y-82808599D01*
X94769014Y-82670706D01*
X94995134Y-82485134D01*
X95163483Y-82280000D01*
X100111928Y-82280000D01*
X100124188Y-82404482D01*
X100160498Y-82524180D01*
X100219463Y-82634494D01*
X100298815Y-82731185D01*
X100395506Y-82810537D01*
X100505820Y-82869502D01*
X100625518Y-82905812D01*
X100750000Y-82918072D01*
X101314250Y-82915000D01*
X101473000Y-82756250D01*
X101473000Y-81407000D01*
X100273750Y-81407000D01*
X100115000Y-81565750D01*
X100111928Y-82280000D01*
X95163483Y-82280000D01*
X95180706Y-82259014D01*
X95318599Y-82001033D01*
X95403513Y-81721110D01*
X95425000Y-81502949D01*
X95425000Y-81057050D01*
X95403513Y-80838889D01*
X95318599Y-80558966D01*
X95180706Y-80300986D01*
X95163484Y-80280000D01*
X100111928Y-80280000D01*
X100115000Y-80994250D01*
X100273750Y-81153000D01*
X101473000Y-81153000D01*
X101473000Y-79803750D01*
X101727000Y-79803750D01*
X101727000Y-81153000D01*
X101747000Y-81153000D01*
X101747000Y-81407000D01*
X101727000Y-81407000D01*
X101727000Y-82756250D01*
X101885750Y-82915000D01*
X102450000Y-82918072D01*
X102574482Y-82905812D01*
X102694180Y-82869502D01*
X102804494Y-82810537D01*
X102901185Y-82731185D01*
X102980537Y-82634494D01*
X103039502Y-82524180D01*
X103050055Y-82489392D01*
X103270987Y-82670706D01*
X103528967Y-82808599D01*
X103808890Y-82893513D01*
X104100000Y-82922185D01*
X104391111Y-82893513D01*
X104671034Y-82808599D01*
X104929014Y-82670706D01*
X105155134Y-82485134D01*
X105340706Y-82259014D01*
X105478599Y-82001033D01*
X105563513Y-81721110D01*
X105585000Y-81502949D01*
X105585000Y-81057050D01*
X105563513Y-80838889D01*
X105478599Y-80558966D01*
X105340706Y-80300986D01*
X105155134Y-80074866D01*
X104929013Y-79889294D01*
X104671033Y-79751401D01*
X104391110Y-79666487D01*
X104100000Y-79637815D01*
X103808889Y-79666487D01*
X103528966Y-79751401D01*
X103270986Y-79889294D01*
X103050055Y-80070608D01*
X103039502Y-80035820D01*
X102980537Y-79925506D01*
X102901185Y-79828815D01*
X102804494Y-79749463D01*
X102694180Y-79690498D01*
X102574482Y-79654188D01*
X102450000Y-79641928D01*
X101885750Y-79645000D01*
X101727000Y-79803750D01*
X101473000Y-79803750D01*
X101314250Y-79645000D01*
X100750000Y-79641928D01*
X100625518Y-79654188D01*
X100505820Y-79690498D01*
X100395506Y-79749463D01*
X100298815Y-79828815D01*
X100219463Y-79925506D01*
X100160498Y-80035820D01*
X100124188Y-80155518D01*
X100111928Y-80280000D01*
X95163484Y-80280000D01*
X94995134Y-80074866D01*
X94769013Y-79889294D01*
X94511033Y-79751401D01*
X94231110Y-79666487D01*
X93940000Y-79637815D01*
X93648889Y-79666487D01*
X93368966Y-79751401D01*
X93110986Y-79889294D01*
X92890055Y-80070608D01*
X92879502Y-80035820D01*
X92820537Y-79925506D01*
X92741185Y-79828815D01*
X92644494Y-79749463D01*
X92534180Y-79690498D01*
X92414482Y-79654188D01*
X92290000Y-79641928D01*
X91725750Y-79645000D01*
X91567000Y-79803750D01*
X91313000Y-79803750D01*
X91154250Y-79645000D01*
X90590000Y-79641928D01*
X90465518Y-79654188D01*
X90345820Y-79690498D01*
X90235506Y-79749463D01*
X90138815Y-79828815D01*
X90059463Y-79925506D01*
X90000498Y-80035820D01*
X89964188Y-80155518D01*
X89951928Y-80280000D01*
X88924600Y-80280000D01*
X88924600Y-75336061D01*
X89897000Y-75336061D01*
X89897000Y-75539939D01*
X89936774Y-75739898D01*
X90014795Y-75928256D01*
X90128063Y-76097774D01*
X90272226Y-76241937D01*
X90441744Y-76355205D01*
X90630102Y-76433226D01*
X90830061Y-76473000D01*
X91033939Y-76473000D01*
X91233898Y-76433226D01*
X91422256Y-76355205D01*
X91591774Y-76241937D01*
X91735937Y-76097774D01*
X91849205Y-75928256D01*
X91927226Y-75739898D01*
X91967000Y-75539939D01*
X91967000Y-75336061D01*
X91927226Y-75136102D01*
X91849205Y-74947744D01*
X91735937Y-74778226D01*
X91591774Y-74634063D01*
X91422256Y-74520795D01*
X91233898Y-74442774D01*
X91033939Y-74403000D01*
X90830061Y-74403000D01*
X90630102Y-74442774D01*
X90441744Y-74520795D01*
X90272226Y-74634063D01*
X90128063Y-74778226D01*
X90014795Y-74947744D01*
X89936774Y-75136102D01*
X89897000Y-75336061D01*
X88924600Y-75336061D01*
X88924600Y-74320061D01*
X98025000Y-74320061D01*
X98025000Y-74523939D01*
X98064774Y-74723898D01*
X98142795Y-74912256D01*
X98256063Y-75081774D01*
X98400226Y-75225937D01*
X98569744Y-75339205D01*
X98758102Y-75417226D01*
X98958061Y-75457000D01*
X99161939Y-75457000D01*
X99361898Y-75417226D01*
X99550256Y-75339205D01*
X99719774Y-75225937D01*
X99863937Y-75081774D01*
X99977205Y-74912256D01*
X100055226Y-74723898D01*
X100095000Y-74523939D01*
X100095000Y-74320061D01*
X100055226Y-74120102D01*
X99977205Y-73931744D01*
X99863937Y-73762226D01*
X99719774Y-73618063D01*
X99550256Y-73504795D01*
X99361898Y-73426774D01*
X99161939Y-73387000D01*
X98958061Y-73387000D01*
X98758102Y-73426774D01*
X98569744Y-73504795D01*
X98400226Y-73618063D01*
X98256063Y-73762226D01*
X98142795Y-73931744D01*
X98064774Y-74120102D01*
X98025000Y-74320061D01*
X88924600Y-74320061D01*
X88924600Y-68357050D01*
X89995000Y-68357050D01*
X89995000Y-68802949D01*
X90016487Y-69021110D01*
X90101401Y-69301033D01*
X90239294Y-69559013D01*
X90424866Y-69785134D01*
X90650986Y-69970706D01*
X90908966Y-70108599D01*
X91188889Y-70193513D01*
X91480000Y-70222185D01*
X91771110Y-70193513D01*
X92051033Y-70108599D01*
X92309013Y-69970706D01*
X92529945Y-69789392D01*
X92540498Y-69824180D01*
X92599463Y-69934494D01*
X92678815Y-70031185D01*
X92775506Y-70110537D01*
X92885820Y-70169502D01*
X93005518Y-70205812D01*
X93130000Y-70218072D01*
X93694250Y-70215000D01*
X93853000Y-70056250D01*
X93853000Y-68707000D01*
X94107000Y-68707000D01*
X94107000Y-70056250D01*
X94265750Y-70215000D01*
X94830000Y-70218072D01*
X94954482Y-70205812D01*
X95074180Y-70169502D01*
X95184494Y-70110537D01*
X95281185Y-70031185D01*
X95360537Y-69934494D01*
X95419502Y-69824180D01*
X95455812Y-69704482D01*
X95468072Y-69580000D01*
X95465000Y-68865750D01*
X95306250Y-68707000D01*
X94107000Y-68707000D01*
X93853000Y-68707000D01*
X93833000Y-68707000D01*
X93833000Y-68453000D01*
X93853000Y-68453000D01*
X93853000Y-67103750D01*
X94107000Y-67103750D01*
X94107000Y-68453000D01*
X95306250Y-68453000D01*
X95402200Y-68357050D01*
X100155000Y-68357050D01*
X100155000Y-68802949D01*
X100176487Y-69021110D01*
X100261401Y-69301033D01*
X100399294Y-69559013D01*
X100584866Y-69785134D01*
X100810986Y-69970706D01*
X101068966Y-70108599D01*
X101348889Y-70193513D01*
X101640000Y-70222185D01*
X101931110Y-70193513D01*
X102211033Y-70108599D01*
X102469013Y-69970706D01*
X102689945Y-69789392D01*
X102700498Y-69824180D01*
X102759463Y-69934494D01*
X102838815Y-70031185D01*
X102935506Y-70110537D01*
X103045820Y-70169502D01*
X103165518Y-70205812D01*
X103290000Y-70218072D01*
X103854250Y-70215000D01*
X104013000Y-70056250D01*
X104013000Y-68707000D01*
X104267000Y-68707000D01*
X104267000Y-70056250D01*
X104425750Y-70215000D01*
X104990000Y-70218072D01*
X105114482Y-70205812D01*
X105234180Y-70169502D01*
X105344494Y-70110537D01*
X105441185Y-70031185D01*
X105520537Y-69934494D01*
X105579502Y-69824180D01*
X105615812Y-69704482D01*
X105628072Y-69580000D01*
X105625000Y-68865750D01*
X105466250Y-68707000D01*
X104267000Y-68707000D01*
X104013000Y-68707000D01*
X103993000Y-68707000D01*
X103993000Y-68453000D01*
X104013000Y-68453000D01*
X104013000Y-67103750D01*
X104267000Y-67103750D01*
X104267000Y-68453000D01*
X105466250Y-68453000D01*
X105625000Y-68294250D01*
X105628072Y-67580000D01*
X105615812Y-67455518D01*
X105579502Y-67335820D01*
X105520537Y-67225506D01*
X105441185Y-67128815D01*
X105344494Y-67049463D01*
X105234180Y-66990498D01*
X105114482Y-66954188D01*
X104990000Y-66941928D01*
X104425750Y-66945000D01*
X104267000Y-67103750D01*
X104013000Y-67103750D01*
X103854250Y-66945000D01*
X103290000Y-66941928D01*
X103165518Y-66954188D01*
X103045820Y-66990498D01*
X102935506Y-67049463D01*
X102838815Y-67128815D01*
X102759463Y-67225506D01*
X102700498Y-67335820D01*
X102689945Y-67370608D01*
X102469014Y-67189294D01*
X102211034Y-67051401D01*
X101931111Y-66966487D01*
X101640000Y-66937815D01*
X101348890Y-66966487D01*
X101068967Y-67051401D01*
X100810987Y-67189294D01*
X100584866Y-67374866D01*
X100399294Y-67600986D01*
X100261401Y-67858966D01*
X100176487Y-68138889D01*
X100155000Y-68357050D01*
X95402200Y-68357050D01*
X95465000Y-68294250D01*
X95468072Y-67580000D01*
X95455812Y-67455518D01*
X95419502Y-67335820D01*
X95360537Y-67225506D01*
X95281185Y-67128815D01*
X95184494Y-67049463D01*
X95074180Y-66990498D01*
X94954482Y-66954188D01*
X94830000Y-66941928D01*
X94265750Y-66945000D01*
X94107000Y-67103750D01*
X93853000Y-67103750D01*
X93694250Y-66945000D01*
X93130000Y-66941928D01*
X93005518Y-66954188D01*
X92885820Y-66990498D01*
X92775506Y-67049463D01*
X92678815Y-67128815D01*
X92599463Y-67225506D01*
X92540498Y-67335820D01*
X92529945Y-67370608D01*
X92309014Y-67189294D01*
X92051034Y-67051401D01*
X91771111Y-66966487D01*
X91480000Y-66937815D01*
X91188890Y-66966487D01*
X90908967Y-67051401D01*
X90650987Y-67189294D01*
X90424866Y-67374866D01*
X90239294Y-67600986D01*
X90101401Y-67858966D01*
X90016487Y-68138889D01*
X89995000Y-68357050D01*
X88924600Y-68357050D01*
X88924600Y-64922061D01*
X107423000Y-64922061D01*
X107423000Y-65125939D01*
X107462774Y-65325898D01*
X107540795Y-65514256D01*
X107654063Y-65683774D01*
X107798226Y-65827937D01*
X107967744Y-65941205D01*
X108156102Y-66019226D01*
X108356061Y-66059000D01*
X108559939Y-66059000D01*
X108759898Y-66019226D01*
X108948256Y-65941205D01*
X109117774Y-65827937D01*
X109261937Y-65683774D01*
X109375205Y-65514256D01*
X109453226Y-65325898D01*
X109493000Y-65125939D01*
X109493000Y-64922061D01*
X109453226Y-64722102D01*
X109375205Y-64533744D01*
X109261937Y-64364226D01*
X109117774Y-64220063D01*
X108948256Y-64106795D01*
X108759898Y-64028774D01*
X108559939Y-63989000D01*
X108356061Y-63989000D01*
X108156102Y-64028774D01*
X107967744Y-64106795D01*
X107798226Y-64220063D01*
X107654063Y-64364226D01*
X107540795Y-64533744D01*
X107462774Y-64722102D01*
X107423000Y-64922061D01*
X88924600Y-64922061D01*
X88924600Y-61620061D01*
X91929000Y-61620061D01*
X91929000Y-61823939D01*
X91968774Y-62023898D01*
X92046795Y-62212256D01*
X92160063Y-62381774D01*
X92304226Y-62525937D01*
X92473744Y-62639205D01*
X92662102Y-62717226D01*
X92862061Y-62757000D01*
X93065939Y-62757000D01*
X93265898Y-62717226D01*
X93454256Y-62639205D01*
X93623774Y-62525937D01*
X93767937Y-62381774D01*
X93881205Y-62212256D01*
X93959226Y-62023898D01*
X93999000Y-61823939D01*
X93999000Y-61620061D01*
X93959226Y-61420102D01*
X93881205Y-61231744D01*
X93767937Y-61062226D01*
X93623774Y-60918063D01*
X93454256Y-60804795D01*
X93265898Y-60726774D01*
X93065939Y-60687000D01*
X92862061Y-60687000D01*
X92662102Y-60726774D01*
X92473744Y-60804795D01*
X92304226Y-60918063D01*
X92160063Y-61062226D01*
X92046795Y-61231744D01*
X91968774Y-61420102D01*
X91929000Y-61620061D01*
X88924600Y-61620061D01*
X88924600Y-59460600D01*
X167310600Y-59460600D01*
X167310600Y-68906192D01*
G04 #@! TD*
M02*
