M48
; DRILL file {KiCad (5.1.5)-3} date 22.02.2020 21:25:18
; FORMAT={-:-/ absolute / inch / decimal}
; #@! TF.CreationDate,2020-02-22T21:25:18+01:00
; #@! TF.GenerationSoftware,Kicad,Pcbnew,(5.1.5)-3
; #@! TF.FileFunction,Plated,1,2,PTH
FMAT,2
INCH
T1C0.0157
T2C0.0374
T3C0.0394
%
G90
G05
T1
X3.54Y-3.52
X3.58Y-2.97
X3.66Y-2.43
X3.85Y-3.33
X3.9Y-2.93
X4.27Y-2.56
X4.62Y-3.18
X4.64Y-3.55
X4.7Y-3.04
X4.887Y-2.57
X5.194Y-2.913
X5.221Y-2.847
X5.354Y-2.879
X5.467Y-3.427
X5.492Y-3.044
X5.56Y-3.0
X5.594Y-2.379
X6.038Y-3.025
X6.416Y-2.948
T2
X5.6Y-3.2
X5.6984Y-3.2
X5.7969Y-3.2
X5.8953Y-3.2
X6.2047Y-2.7
X6.3031Y-2.7
X6.4016Y-2.7
X6.5Y-2.7
X6.2Y-3.2
X6.2984Y-3.2
X6.3969Y-3.2
X6.4953Y-3.2
X5.6047Y-2.7
X5.7031Y-2.7
X5.8016Y-2.7
X5.9Y-2.7
T3
X4.0Y-3.2
X4.0984Y-3.2
X3.6016Y-2.7
X3.7Y-2.7
X4.0016Y-2.7
X4.1Y-2.7
X4.4Y-3.45
X4.5Y-3.45
X4.6Y-3.45
X4.7Y-3.45
X4.8Y-3.45
X4.9Y-3.45
X5.0Y-3.45
X5.1Y-3.45
X5.2Y-3.45
X5.3Y-3.45
X4.4Y-2.45
X4.5Y-2.45
X4.6Y-2.45
X4.7Y-2.45
X4.8Y-2.45
X4.9Y-2.45
X5.0Y-2.45
X5.1Y-2.45
X5.2Y-2.45
X5.3Y-2.45
X3.6Y-3.2
X3.6984Y-3.2
T0
M30
