G04 #@! TF.GenerationSoftware,KiCad,Pcbnew,(5.1.5)-3*
G04 #@! TF.CreationDate,2020-02-22T21:26:02+01:00*
G04 #@! TF.ProjectId,SchluesselbrettV2,5363686c-7565-4737-9365-6c6272657474,rev?*
G04 #@! TF.SameCoordinates,Original*
G04 #@! TF.FileFunction,Soldermask,Top*
G04 #@! TF.FilePolarity,Negative*
%FSLAX46Y46*%
G04 Gerber Fmt 4.6, Leading zero omitted, Abs format (unit mm)*
G04 Created by KiCad (PCBNEW (5.1.5)-3) date 2020-02-22 21:26:02*
%MOMM*%
%LPD*%
G04 APERTURE LIST*
%ADD10C,0.100000*%
G04 APERTURE END LIST*
D10*
G36*
X135521000Y-88531000D02*
G01*
X133719000Y-88531000D01*
X133719000Y-86729000D01*
X135521000Y-86729000D01*
X135521000Y-88531000D01*
G37*
G36*
X127113512Y-86733927D02*
G01*
X127262812Y-86763624D01*
X127426784Y-86831544D01*
X127574354Y-86930147D01*
X127699853Y-87055646D01*
X127798456Y-87203216D01*
X127866376Y-87367188D01*
X127901000Y-87541259D01*
X127901000Y-87718741D01*
X127866376Y-87892812D01*
X127798456Y-88056784D01*
X127699853Y-88204354D01*
X127574354Y-88329853D01*
X127426784Y-88428456D01*
X127262812Y-88496376D01*
X127113512Y-88526073D01*
X127088742Y-88531000D01*
X126911258Y-88531000D01*
X126886488Y-88526073D01*
X126737188Y-88496376D01*
X126573216Y-88428456D01*
X126425646Y-88329853D01*
X126300147Y-88204354D01*
X126201544Y-88056784D01*
X126133624Y-87892812D01*
X126099000Y-87718741D01*
X126099000Y-87541259D01*
X126133624Y-87367188D01*
X126201544Y-87203216D01*
X126300147Y-87055646D01*
X126425646Y-86930147D01*
X126573216Y-86831544D01*
X126737188Y-86763624D01*
X126886488Y-86733927D01*
X126911258Y-86729000D01*
X127088742Y-86729000D01*
X127113512Y-86733927D01*
G37*
G36*
X132193512Y-86733927D02*
G01*
X132342812Y-86763624D01*
X132506784Y-86831544D01*
X132654354Y-86930147D01*
X132779853Y-87055646D01*
X132878456Y-87203216D01*
X132946376Y-87367188D01*
X132981000Y-87541259D01*
X132981000Y-87718741D01*
X132946376Y-87892812D01*
X132878456Y-88056784D01*
X132779853Y-88204354D01*
X132654354Y-88329853D01*
X132506784Y-88428456D01*
X132342812Y-88496376D01*
X132193512Y-88526073D01*
X132168742Y-88531000D01*
X131991258Y-88531000D01*
X131966488Y-88526073D01*
X131817188Y-88496376D01*
X131653216Y-88428456D01*
X131505646Y-88329853D01*
X131380147Y-88204354D01*
X131281544Y-88056784D01*
X131213624Y-87892812D01*
X131179000Y-87718741D01*
X131179000Y-87541259D01*
X131213624Y-87367188D01*
X131281544Y-87203216D01*
X131380147Y-87055646D01*
X131505646Y-86930147D01*
X131653216Y-86831544D01*
X131817188Y-86763624D01*
X131966488Y-86733927D01*
X131991258Y-86729000D01*
X132168742Y-86729000D01*
X132193512Y-86733927D01*
G37*
G36*
X129653512Y-86733927D02*
G01*
X129802812Y-86763624D01*
X129966784Y-86831544D01*
X130114354Y-86930147D01*
X130239853Y-87055646D01*
X130338456Y-87203216D01*
X130406376Y-87367188D01*
X130441000Y-87541259D01*
X130441000Y-87718741D01*
X130406376Y-87892812D01*
X130338456Y-88056784D01*
X130239853Y-88204354D01*
X130114354Y-88329853D01*
X129966784Y-88428456D01*
X129802812Y-88496376D01*
X129653512Y-88526073D01*
X129628742Y-88531000D01*
X129451258Y-88531000D01*
X129426488Y-88526073D01*
X129277188Y-88496376D01*
X129113216Y-88428456D01*
X128965646Y-88329853D01*
X128840147Y-88204354D01*
X128741544Y-88056784D01*
X128673624Y-87892812D01*
X128639000Y-87718741D01*
X128639000Y-87541259D01*
X128673624Y-87367188D01*
X128741544Y-87203216D01*
X128840147Y-87055646D01*
X128965646Y-86930147D01*
X129113216Y-86831544D01*
X129277188Y-86763624D01*
X129426488Y-86733927D01*
X129451258Y-86729000D01*
X129628742Y-86729000D01*
X129653512Y-86733927D01*
G37*
G36*
X124573512Y-86733927D02*
G01*
X124722812Y-86763624D01*
X124886784Y-86831544D01*
X125034354Y-86930147D01*
X125159853Y-87055646D01*
X125258456Y-87203216D01*
X125326376Y-87367188D01*
X125361000Y-87541259D01*
X125361000Y-87718741D01*
X125326376Y-87892812D01*
X125258456Y-88056784D01*
X125159853Y-88204354D01*
X125034354Y-88329853D01*
X124886784Y-88428456D01*
X124722812Y-88496376D01*
X124573512Y-88526073D01*
X124548742Y-88531000D01*
X124371258Y-88531000D01*
X124346488Y-88526073D01*
X124197188Y-88496376D01*
X124033216Y-88428456D01*
X123885646Y-88329853D01*
X123760147Y-88204354D01*
X123661544Y-88056784D01*
X123593624Y-87892812D01*
X123559000Y-87718741D01*
X123559000Y-87541259D01*
X123593624Y-87367188D01*
X123661544Y-87203216D01*
X123760147Y-87055646D01*
X123885646Y-86930147D01*
X124033216Y-86831544D01*
X124197188Y-86763624D01*
X124346488Y-86733927D01*
X124371258Y-86729000D01*
X124548742Y-86729000D01*
X124573512Y-86733927D01*
G37*
G36*
X122033512Y-86733927D02*
G01*
X122182812Y-86763624D01*
X122346784Y-86831544D01*
X122494354Y-86930147D01*
X122619853Y-87055646D01*
X122718456Y-87203216D01*
X122786376Y-87367188D01*
X122821000Y-87541259D01*
X122821000Y-87718741D01*
X122786376Y-87892812D01*
X122718456Y-88056784D01*
X122619853Y-88204354D01*
X122494354Y-88329853D01*
X122346784Y-88428456D01*
X122182812Y-88496376D01*
X122033512Y-88526073D01*
X122008742Y-88531000D01*
X121831258Y-88531000D01*
X121806488Y-88526073D01*
X121657188Y-88496376D01*
X121493216Y-88428456D01*
X121345646Y-88329853D01*
X121220147Y-88204354D01*
X121121544Y-88056784D01*
X121053624Y-87892812D01*
X121019000Y-87718741D01*
X121019000Y-87541259D01*
X121053624Y-87367188D01*
X121121544Y-87203216D01*
X121220147Y-87055646D01*
X121345646Y-86930147D01*
X121493216Y-86831544D01*
X121657188Y-86763624D01*
X121806488Y-86733927D01*
X121831258Y-86729000D01*
X122008742Y-86729000D01*
X122033512Y-86733927D01*
G37*
G36*
X116953512Y-86733927D02*
G01*
X117102812Y-86763624D01*
X117266784Y-86831544D01*
X117414354Y-86930147D01*
X117539853Y-87055646D01*
X117638456Y-87203216D01*
X117706376Y-87367188D01*
X117741000Y-87541259D01*
X117741000Y-87718741D01*
X117706376Y-87892812D01*
X117638456Y-88056784D01*
X117539853Y-88204354D01*
X117414354Y-88329853D01*
X117266784Y-88428456D01*
X117102812Y-88496376D01*
X116953512Y-88526073D01*
X116928742Y-88531000D01*
X116751258Y-88531000D01*
X116726488Y-88526073D01*
X116577188Y-88496376D01*
X116413216Y-88428456D01*
X116265646Y-88329853D01*
X116140147Y-88204354D01*
X116041544Y-88056784D01*
X115973624Y-87892812D01*
X115939000Y-87718741D01*
X115939000Y-87541259D01*
X115973624Y-87367188D01*
X116041544Y-87203216D01*
X116140147Y-87055646D01*
X116265646Y-86930147D01*
X116413216Y-86831544D01*
X116577188Y-86763624D01*
X116726488Y-86733927D01*
X116751258Y-86729000D01*
X116928742Y-86729000D01*
X116953512Y-86733927D01*
G37*
G36*
X114413512Y-86733927D02*
G01*
X114562812Y-86763624D01*
X114726784Y-86831544D01*
X114874354Y-86930147D01*
X114999853Y-87055646D01*
X115098456Y-87203216D01*
X115166376Y-87367188D01*
X115201000Y-87541259D01*
X115201000Y-87718741D01*
X115166376Y-87892812D01*
X115098456Y-88056784D01*
X114999853Y-88204354D01*
X114874354Y-88329853D01*
X114726784Y-88428456D01*
X114562812Y-88496376D01*
X114413512Y-88526073D01*
X114388742Y-88531000D01*
X114211258Y-88531000D01*
X114186488Y-88526073D01*
X114037188Y-88496376D01*
X113873216Y-88428456D01*
X113725646Y-88329853D01*
X113600147Y-88204354D01*
X113501544Y-88056784D01*
X113433624Y-87892812D01*
X113399000Y-87718741D01*
X113399000Y-87541259D01*
X113433624Y-87367188D01*
X113501544Y-87203216D01*
X113600147Y-87055646D01*
X113725646Y-86930147D01*
X113873216Y-86831544D01*
X114037188Y-86763624D01*
X114186488Y-86733927D01*
X114211258Y-86729000D01*
X114388742Y-86729000D01*
X114413512Y-86733927D01*
G37*
G36*
X111873512Y-86733927D02*
G01*
X112022812Y-86763624D01*
X112186784Y-86831544D01*
X112334354Y-86930147D01*
X112459853Y-87055646D01*
X112558456Y-87203216D01*
X112626376Y-87367188D01*
X112661000Y-87541259D01*
X112661000Y-87718741D01*
X112626376Y-87892812D01*
X112558456Y-88056784D01*
X112459853Y-88204354D01*
X112334354Y-88329853D01*
X112186784Y-88428456D01*
X112022812Y-88496376D01*
X111873512Y-88526073D01*
X111848742Y-88531000D01*
X111671258Y-88531000D01*
X111646488Y-88526073D01*
X111497188Y-88496376D01*
X111333216Y-88428456D01*
X111185646Y-88329853D01*
X111060147Y-88204354D01*
X110961544Y-88056784D01*
X110893624Y-87892812D01*
X110859000Y-87718741D01*
X110859000Y-87541259D01*
X110893624Y-87367188D01*
X110961544Y-87203216D01*
X111060147Y-87055646D01*
X111185646Y-86930147D01*
X111333216Y-86831544D01*
X111497188Y-86763624D01*
X111646488Y-86733927D01*
X111671258Y-86729000D01*
X111848742Y-86729000D01*
X111873512Y-86733927D01*
G37*
G36*
X119493512Y-86733927D02*
G01*
X119642812Y-86763624D01*
X119806784Y-86831544D01*
X119954354Y-86930147D01*
X120079853Y-87055646D01*
X120178456Y-87203216D01*
X120246376Y-87367188D01*
X120281000Y-87541259D01*
X120281000Y-87718741D01*
X120246376Y-87892812D01*
X120178456Y-88056784D01*
X120079853Y-88204354D01*
X119954354Y-88329853D01*
X119806784Y-88428456D01*
X119642812Y-88496376D01*
X119493512Y-88526073D01*
X119468742Y-88531000D01*
X119291258Y-88531000D01*
X119266488Y-88526073D01*
X119117188Y-88496376D01*
X118953216Y-88428456D01*
X118805646Y-88329853D01*
X118680147Y-88204354D01*
X118581544Y-88056784D01*
X118513624Y-87892812D01*
X118479000Y-87718741D01*
X118479000Y-87541259D01*
X118513624Y-87367188D01*
X118581544Y-87203216D01*
X118680147Y-87055646D01*
X118805646Y-86930147D01*
X118953216Y-86831544D01*
X119117188Y-86763624D01*
X119266488Y-86733927D01*
X119291258Y-86729000D01*
X119468742Y-86729000D01*
X119493512Y-86733927D01*
G37*
G36*
X94116626Y-80242037D02*
G01*
X94286465Y-80293557D01*
X94286467Y-80293558D01*
X94442989Y-80377221D01*
X94580186Y-80489814D01*
X94663448Y-80591271D01*
X94692778Y-80627009D01*
X94776443Y-80783534D01*
X94827963Y-80953373D01*
X94841000Y-81085742D01*
X94841000Y-81474257D01*
X94827963Y-81606626D01*
X94776443Y-81776466D01*
X94692778Y-81932991D01*
X94663448Y-81968729D01*
X94580186Y-82070186D01*
X94492178Y-82142411D01*
X94442991Y-82182778D01*
X94286466Y-82266443D01*
X94116627Y-82317963D01*
X93940000Y-82335359D01*
X93763374Y-82317963D01*
X93593535Y-82266443D01*
X93437010Y-82182778D01*
X93299815Y-82070185D01*
X93187222Y-81932991D01*
X93103557Y-81776466D01*
X93052037Y-81606627D01*
X93039000Y-81474258D01*
X93039000Y-81085743D01*
X93052037Y-80953374D01*
X93103557Y-80783535D01*
X93103559Y-80783532D01*
X93187221Y-80627011D01*
X93299814Y-80489814D01*
X93413641Y-80396400D01*
X93437009Y-80377222D01*
X93593534Y-80293557D01*
X93763373Y-80242037D01*
X93940000Y-80224641D01*
X94116626Y-80242037D01*
G37*
G36*
X104276626Y-80242037D02*
G01*
X104446465Y-80293557D01*
X104446467Y-80293558D01*
X104602989Y-80377221D01*
X104740186Y-80489814D01*
X104823448Y-80591271D01*
X104852778Y-80627009D01*
X104936443Y-80783534D01*
X104987963Y-80953373D01*
X105001000Y-81085742D01*
X105001000Y-81474257D01*
X104987963Y-81606626D01*
X104936443Y-81776466D01*
X104852778Y-81932991D01*
X104823448Y-81968729D01*
X104740186Y-82070186D01*
X104652178Y-82142411D01*
X104602991Y-82182778D01*
X104446466Y-82266443D01*
X104276627Y-82317963D01*
X104100000Y-82335359D01*
X103923374Y-82317963D01*
X103753535Y-82266443D01*
X103597010Y-82182778D01*
X103459815Y-82070185D01*
X103347222Y-81932991D01*
X103263557Y-81776466D01*
X103212037Y-81606627D01*
X103199000Y-81474258D01*
X103199000Y-81085743D01*
X103212037Y-80953374D01*
X103263557Y-80783535D01*
X103263559Y-80783532D01*
X103347221Y-80627011D01*
X103459814Y-80489814D01*
X103573641Y-80396400D01*
X103597009Y-80377222D01*
X103753534Y-80293557D01*
X103923373Y-80242037D01*
X104100000Y-80224641D01*
X104276626Y-80242037D01*
G37*
G36*
X92198600Y-80232989D02*
G01*
X92231652Y-80243015D01*
X92262103Y-80259292D01*
X92288799Y-80281201D01*
X92310708Y-80307897D01*
X92326985Y-80338348D01*
X92337011Y-80371400D01*
X92341000Y-80411903D01*
X92341000Y-82148097D01*
X92337011Y-82188600D01*
X92326985Y-82221652D01*
X92310708Y-82252103D01*
X92288799Y-82278799D01*
X92262103Y-82300708D01*
X92231652Y-82316985D01*
X92198600Y-82327011D01*
X92158097Y-82331000D01*
X90721903Y-82331000D01*
X90681400Y-82327011D01*
X90648348Y-82316985D01*
X90617897Y-82300708D01*
X90591201Y-82278799D01*
X90569292Y-82252103D01*
X90553015Y-82221652D01*
X90542989Y-82188600D01*
X90539000Y-82148097D01*
X90539000Y-80411903D01*
X90542989Y-80371400D01*
X90553015Y-80338348D01*
X90569292Y-80307897D01*
X90591201Y-80281201D01*
X90617897Y-80259292D01*
X90648348Y-80243015D01*
X90681400Y-80232989D01*
X90721903Y-80229000D01*
X92158097Y-80229000D01*
X92198600Y-80232989D01*
G37*
G36*
X102358600Y-80232989D02*
G01*
X102391652Y-80243015D01*
X102422103Y-80259292D01*
X102448799Y-80281201D01*
X102470708Y-80307897D01*
X102486985Y-80338348D01*
X102497011Y-80371400D01*
X102501000Y-80411903D01*
X102501000Y-82148097D01*
X102497011Y-82188600D01*
X102486985Y-82221652D01*
X102470708Y-82252103D01*
X102448799Y-82278799D01*
X102422103Y-82300708D01*
X102391652Y-82316985D01*
X102358600Y-82327011D01*
X102318097Y-82331000D01*
X100881903Y-82331000D01*
X100841400Y-82327011D01*
X100808348Y-82316985D01*
X100777897Y-82300708D01*
X100751201Y-82278799D01*
X100729292Y-82252103D01*
X100713015Y-82221652D01*
X100702989Y-82188600D01*
X100699000Y-82148097D01*
X100699000Y-80411903D01*
X100702989Y-80371400D01*
X100713015Y-80338348D01*
X100729292Y-80307897D01*
X100751201Y-80281201D01*
X100777897Y-80259292D01*
X100808348Y-80243015D01*
X100841400Y-80232989D01*
X100881903Y-80229000D01*
X102318097Y-80229000D01*
X102358600Y-80232989D01*
G37*
G36*
X165156626Y-80267037D02*
G01*
X165326465Y-80318557D01*
X165326467Y-80318558D01*
X165482989Y-80402221D01*
X165620186Y-80514814D01*
X165703448Y-80616271D01*
X165732778Y-80652009D01*
X165816443Y-80808534D01*
X165867963Y-80978373D01*
X165867963Y-80978375D01*
X165881000Y-81110740D01*
X165881000Y-81449259D01*
X165874481Y-81515442D01*
X165867963Y-81581626D01*
X165816443Y-81751466D01*
X165732778Y-81907991D01*
X165712261Y-81932991D01*
X165620186Y-82045186D01*
X165531827Y-82117699D01*
X165482991Y-82157778D01*
X165326466Y-82241443D01*
X165156627Y-82292963D01*
X164980000Y-82310359D01*
X164803374Y-82292963D01*
X164633535Y-82241443D01*
X164477010Y-82157778D01*
X164339815Y-82045185D01*
X164227222Y-81907991D01*
X164143557Y-81751466D01*
X164092037Y-81581627D01*
X164079000Y-81449258D01*
X164079000Y-81110743D01*
X164081463Y-81085740D01*
X164092037Y-80978376D01*
X164092037Y-80978374D01*
X164143557Y-80808535D01*
X164227222Y-80652010D01*
X164247738Y-80627011D01*
X164339814Y-80514814D01*
X164441271Y-80431552D01*
X164477009Y-80402222D01*
X164633534Y-80318557D01*
X164803373Y-80267037D01*
X164980000Y-80249641D01*
X165156626Y-80267037D01*
G37*
G36*
X147416626Y-80267037D02*
G01*
X147586465Y-80318557D01*
X147586467Y-80318558D01*
X147742989Y-80402221D01*
X147880186Y-80514814D01*
X147963448Y-80616271D01*
X147992778Y-80652009D01*
X148076443Y-80808534D01*
X148127963Y-80978373D01*
X148127963Y-80978375D01*
X148141000Y-81110740D01*
X148141000Y-81449259D01*
X148134481Y-81515442D01*
X148127963Y-81581626D01*
X148076443Y-81751466D01*
X147992778Y-81907991D01*
X147972261Y-81932991D01*
X147880186Y-82045186D01*
X147791827Y-82117699D01*
X147742991Y-82157778D01*
X147586466Y-82241443D01*
X147416627Y-82292963D01*
X147240000Y-82310359D01*
X147063374Y-82292963D01*
X146893535Y-82241443D01*
X146737010Y-82157778D01*
X146599815Y-82045185D01*
X146487222Y-81907991D01*
X146403557Y-81751466D01*
X146352037Y-81581627D01*
X146339000Y-81449258D01*
X146339000Y-81110743D01*
X146341463Y-81085740D01*
X146352037Y-80978376D01*
X146352037Y-80978374D01*
X146403557Y-80808535D01*
X146487222Y-80652010D01*
X146507738Y-80627011D01*
X146599814Y-80514814D01*
X146701271Y-80431552D01*
X146737009Y-80402222D01*
X146893534Y-80318557D01*
X147063373Y-80267037D01*
X147240000Y-80249641D01*
X147416626Y-80267037D01*
G37*
G36*
X144916626Y-80267037D02*
G01*
X145086465Y-80318557D01*
X145086467Y-80318558D01*
X145242989Y-80402221D01*
X145380186Y-80514814D01*
X145463448Y-80616271D01*
X145492778Y-80652009D01*
X145576443Y-80808534D01*
X145627963Y-80978373D01*
X145627963Y-80978375D01*
X145641000Y-81110740D01*
X145641000Y-81449259D01*
X145634481Y-81515442D01*
X145627963Y-81581626D01*
X145576443Y-81751466D01*
X145492778Y-81907991D01*
X145472261Y-81932991D01*
X145380186Y-82045186D01*
X145291827Y-82117699D01*
X145242991Y-82157778D01*
X145086466Y-82241443D01*
X144916627Y-82292963D01*
X144740000Y-82310359D01*
X144563374Y-82292963D01*
X144393535Y-82241443D01*
X144237010Y-82157778D01*
X144099815Y-82045185D01*
X143987222Y-81907991D01*
X143903557Y-81751466D01*
X143852037Y-81581627D01*
X143839000Y-81449258D01*
X143839000Y-81110743D01*
X143841463Y-81085740D01*
X143852037Y-80978376D01*
X143852037Y-80978374D01*
X143903557Y-80808535D01*
X143987222Y-80652010D01*
X144007738Y-80627011D01*
X144099814Y-80514814D01*
X144201271Y-80431552D01*
X144237009Y-80402222D01*
X144393534Y-80318557D01*
X144563373Y-80267037D01*
X144740000Y-80249641D01*
X144916626Y-80267037D01*
G37*
G36*
X162656626Y-80267037D02*
G01*
X162826465Y-80318557D01*
X162826467Y-80318558D01*
X162982989Y-80402221D01*
X163120186Y-80514814D01*
X163203448Y-80616271D01*
X163232778Y-80652009D01*
X163316443Y-80808534D01*
X163367963Y-80978373D01*
X163367963Y-80978375D01*
X163381000Y-81110740D01*
X163381000Y-81449259D01*
X163374481Y-81515442D01*
X163367963Y-81581626D01*
X163316443Y-81751466D01*
X163232778Y-81907991D01*
X163212261Y-81932991D01*
X163120186Y-82045186D01*
X163031827Y-82117699D01*
X162982991Y-82157778D01*
X162826466Y-82241443D01*
X162656627Y-82292963D01*
X162480000Y-82310359D01*
X162303374Y-82292963D01*
X162133535Y-82241443D01*
X161977010Y-82157778D01*
X161839815Y-82045185D01*
X161727222Y-81907991D01*
X161643557Y-81751466D01*
X161592037Y-81581627D01*
X161579000Y-81449258D01*
X161579000Y-81110743D01*
X161581463Y-81085740D01*
X161592037Y-80978376D01*
X161592037Y-80978374D01*
X161643557Y-80808535D01*
X161727222Y-80652010D01*
X161747738Y-80627011D01*
X161839814Y-80514814D01*
X161941271Y-80431552D01*
X161977009Y-80402222D01*
X162133534Y-80318557D01*
X162303373Y-80267037D01*
X162480000Y-80249641D01*
X162656626Y-80267037D01*
G37*
G36*
X160156626Y-80267037D02*
G01*
X160326465Y-80318557D01*
X160326467Y-80318558D01*
X160482989Y-80402221D01*
X160620186Y-80514814D01*
X160703448Y-80616271D01*
X160732778Y-80652009D01*
X160816443Y-80808534D01*
X160867963Y-80978373D01*
X160867963Y-80978375D01*
X160881000Y-81110740D01*
X160881000Y-81449259D01*
X160874481Y-81515442D01*
X160867963Y-81581626D01*
X160816443Y-81751466D01*
X160732778Y-81907991D01*
X160712261Y-81932991D01*
X160620186Y-82045186D01*
X160531827Y-82117699D01*
X160482991Y-82157778D01*
X160326466Y-82241443D01*
X160156627Y-82292963D01*
X159980000Y-82310359D01*
X159803374Y-82292963D01*
X159633535Y-82241443D01*
X159477010Y-82157778D01*
X159339815Y-82045185D01*
X159227222Y-81907991D01*
X159143557Y-81751466D01*
X159092037Y-81581627D01*
X159079000Y-81449258D01*
X159079000Y-81110743D01*
X159081463Y-81085740D01*
X159092037Y-80978376D01*
X159092037Y-80978374D01*
X159143557Y-80808535D01*
X159227222Y-80652010D01*
X159247738Y-80627011D01*
X159339814Y-80514814D01*
X159441271Y-80431552D01*
X159477009Y-80402222D01*
X159633534Y-80318557D01*
X159803373Y-80267037D01*
X159980000Y-80249641D01*
X160156626Y-80267037D01*
G37*
G36*
X149916626Y-80267037D02*
G01*
X150086465Y-80318557D01*
X150086467Y-80318558D01*
X150242989Y-80402221D01*
X150380186Y-80514814D01*
X150463448Y-80616271D01*
X150492778Y-80652009D01*
X150576443Y-80808534D01*
X150627963Y-80978373D01*
X150627963Y-80978375D01*
X150641000Y-81110740D01*
X150641000Y-81449259D01*
X150634481Y-81515442D01*
X150627963Y-81581626D01*
X150576443Y-81751466D01*
X150492778Y-81907991D01*
X150472261Y-81932991D01*
X150380186Y-82045186D01*
X150291827Y-82117699D01*
X150242991Y-82157778D01*
X150086466Y-82241443D01*
X149916627Y-82292963D01*
X149740000Y-82310359D01*
X149563374Y-82292963D01*
X149393535Y-82241443D01*
X149237010Y-82157778D01*
X149099815Y-82045185D01*
X148987222Y-81907991D01*
X148903557Y-81751466D01*
X148852037Y-81581627D01*
X148839000Y-81449258D01*
X148839000Y-81110743D01*
X148841463Y-81085740D01*
X148852037Y-80978376D01*
X148852037Y-80978374D01*
X148903557Y-80808535D01*
X148987222Y-80652010D01*
X149007738Y-80627011D01*
X149099814Y-80514814D01*
X149201271Y-80431552D01*
X149237009Y-80402222D01*
X149393534Y-80318557D01*
X149563373Y-80267037D01*
X149740000Y-80249641D01*
X149916626Y-80267037D01*
G37*
G36*
X142998600Y-80257989D02*
G01*
X143031652Y-80268015D01*
X143062103Y-80284292D01*
X143088799Y-80306201D01*
X143110708Y-80332897D01*
X143126985Y-80363348D01*
X143137011Y-80396400D01*
X143141000Y-80436903D01*
X143141000Y-82123097D01*
X143137011Y-82163600D01*
X143126985Y-82196652D01*
X143110708Y-82227103D01*
X143088799Y-82253799D01*
X143062103Y-82275708D01*
X143031652Y-82291985D01*
X142998600Y-82302011D01*
X142958097Y-82306000D01*
X141521903Y-82306000D01*
X141481400Y-82302011D01*
X141448348Y-82291985D01*
X141417897Y-82275708D01*
X141391201Y-82253799D01*
X141369292Y-82227103D01*
X141353015Y-82196652D01*
X141342989Y-82163600D01*
X141339000Y-82123097D01*
X141339000Y-80436903D01*
X141342989Y-80396400D01*
X141353015Y-80363348D01*
X141369292Y-80332897D01*
X141391201Y-80306201D01*
X141417897Y-80284292D01*
X141448348Y-80268015D01*
X141481400Y-80257989D01*
X141521903Y-80254000D01*
X142958097Y-80254000D01*
X142998600Y-80257989D01*
G37*
G36*
X158238600Y-80257989D02*
G01*
X158271652Y-80268015D01*
X158302103Y-80284292D01*
X158328799Y-80306201D01*
X158350708Y-80332897D01*
X158366985Y-80363348D01*
X158377011Y-80396400D01*
X158381000Y-80436903D01*
X158381000Y-82123097D01*
X158377011Y-82163600D01*
X158366985Y-82196652D01*
X158350708Y-82227103D01*
X158328799Y-82253799D01*
X158302103Y-82275708D01*
X158271652Y-82291985D01*
X158238600Y-82302011D01*
X158198097Y-82306000D01*
X156761903Y-82306000D01*
X156721400Y-82302011D01*
X156688348Y-82291985D01*
X156657897Y-82275708D01*
X156631201Y-82253799D01*
X156609292Y-82227103D01*
X156593015Y-82196652D01*
X156582989Y-82163600D01*
X156579000Y-82123097D01*
X156579000Y-80436903D01*
X156582989Y-80396400D01*
X156593015Y-80363348D01*
X156609292Y-80332897D01*
X156631201Y-80306201D01*
X156657897Y-80284292D01*
X156688348Y-80268015D01*
X156721400Y-80257989D01*
X156761903Y-80254000D01*
X158198097Y-80254000D01*
X158238600Y-80257989D01*
G37*
G36*
X137490468Y-76857565D02*
G01*
X137529138Y-76869296D01*
X137564777Y-76888346D01*
X137596017Y-76913983D01*
X137621654Y-76945223D01*
X137640704Y-76980862D01*
X137652435Y-77019532D01*
X137657000Y-77065888D01*
X137657000Y-77717112D01*
X137652435Y-77763468D01*
X137640704Y-77802138D01*
X137621654Y-77837777D01*
X137596017Y-77869017D01*
X137564777Y-77894654D01*
X137529138Y-77913704D01*
X137490468Y-77925435D01*
X137444112Y-77930000D01*
X136367888Y-77930000D01*
X136321532Y-77925435D01*
X136282862Y-77913704D01*
X136247223Y-77894654D01*
X136215983Y-77869017D01*
X136190346Y-77837777D01*
X136171296Y-77802138D01*
X136159565Y-77763468D01*
X136155000Y-77717112D01*
X136155000Y-77065888D01*
X136159565Y-77019532D01*
X136171296Y-76980862D01*
X136190346Y-76945223D01*
X136215983Y-76913983D01*
X136247223Y-76888346D01*
X136282862Y-76869296D01*
X136321532Y-76857565D01*
X136367888Y-76853000D01*
X137444112Y-76853000D01*
X137490468Y-76857565D01*
G37*
G36*
X116625468Y-74945565D02*
G01*
X116664138Y-74957296D01*
X116699777Y-74976346D01*
X116731017Y-75001983D01*
X116756654Y-75033223D01*
X116775704Y-75068862D01*
X116787435Y-75107532D01*
X116792000Y-75153888D01*
X116792000Y-76230112D01*
X116787435Y-76276468D01*
X116775704Y-76315138D01*
X116756654Y-76350777D01*
X116731017Y-76382017D01*
X116699777Y-76407654D01*
X116664138Y-76426704D01*
X116625468Y-76438435D01*
X116579112Y-76443000D01*
X115927888Y-76443000D01*
X115881532Y-76438435D01*
X115842862Y-76426704D01*
X115807223Y-76407654D01*
X115775983Y-76382017D01*
X115750346Y-76350777D01*
X115731296Y-76315138D01*
X115719565Y-76276468D01*
X115715000Y-76230112D01*
X115715000Y-75153888D01*
X115719565Y-75107532D01*
X115731296Y-75068862D01*
X115750346Y-75033223D01*
X115775983Y-75001983D01*
X115807223Y-74976346D01*
X115842862Y-74957296D01*
X115881532Y-74945565D01*
X115927888Y-74941000D01*
X116579112Y-74941000D01*
X116625468Y-74945565D01*
G37*
G36*
X114750468Y-74945565D02*
G01*
X114789138Y-74957296D01*
X114824777Y-74976346D01*
X114856017Y-75001983D01*
X114881654Y-75033223D01*
X114900704Y-75068862D01*
X114912435Y-75107532D01*
X114917000Y-75153888D01*
X114917000Y-76230112D01*
X114912435Y-76276468D01*
X114900704Y-76315138D01*
X114881654Y-76350777D01*
X114856017Y-76382017D01*
X114824777Y-76407654D01*
X114789138Y-76426704D01*
X114750468Y-76438435D01*
X114704112Y-76443000D01*
X114052888Y-76443000D01*
X114006532Y-76438435D01*
X113967862Y-76426704D01*
X113932223Y-76407654D01*
X113900983Y-76382017D01*
X113875346Y-76350777D01*
X113856296Y-76315138D01*
X113844565Y-76276468D01*
X113840000Y-76230112D01*
X113840000Y-75153888D01*
X113844565Y-75107532D01*
X113856296Y-75068862D01*
X113875346Y-75033223D01*
X113900983Y-75001983D01*
X113932223Y-74976346D01*
X113967862Y-74957296D01*
X114006532Y-74945565D01*
X114052888Y-74941000D01*
X114704112Y-74941000D01*
X114750468Y-74945565D01*
G37*
G36*
X137490468Y-74982565D02*
G01*
X137529138Y-74994296D01*
X137564777Y-75013346D01*
X137596017Y-75038983D01*
X137621654Y-75070223D01*
X137640704Y-75105862D01*
X137652435Y-75144532D01*
X137657000Y-75190888D01*
X137657000Y-75842112D01*
X137652435Y-75888468D01*
X137640704Y-75927138D01*
X137621654Y-75962777D01*
X137596017Y-75994017D01*
X137564777Y-76019654D01*
X137529138Y-76038704D01*
X137490468Y-76050435D01*
X137444112Y-76055000D01*
X136367888Y-76055000D01*
X136321532Y-76050435D01*
X136282862Y-76038704D01*
X136247223Y-76019654D01*
X136215983Y-75994017D01*
X136190346Y-75962777D01*
X136171296Y-75927138D01*
X136159565Y-75888468D01*
X136155000Y-75842112D01*
X136155000Y-75190888D01*
X136159565Y-75144532D01*
X136171296Y-75105862D01*
X136190346Y-75070223D01*
X136215983Y-75038983D01*
X136247223Y-75013346D01*
X136282862Y-74994296D01*
X136321532Y-74982565D01*
X136367888Y-74978000D01*
X137444112Y-74978000D01*
X137490468Y-74982565D01*
G37*
G36*
X167019068Y-74132765D02*
G01*
X167057738Y-74144496D01*
X167093377Y-74163546D01*
X167124617Y-74189183D01*
X167150254Y-74220423D01*
X167169304Y-74256062D01*
X167181035Y-74294732D01*
X167185600Y-74341088D01*
X167185600Y-75417312D01*
X167181035Y-75463668D01*
X167169304Y-75502338D01*
X167150254Y-75537977D01*
X167124617Y-75569217D01*
X167093377Y-75594854D01*
X167057738Y-75613904D01*
X167019068Y-75625635D01*
X166972712Y-75630200D01*
X166321488Y-75630200D01*
X166275132Y-75625635D01*
X166236462Y-75613904D01*
X166200823Y-75594854D01*
X166169583Y-75569217D01*
X166143946Y-75537977D01*
X166124896Y-75502338D01*
X166113165Y-75463668D01*
X166108600Y-75417312D01*
X166108600Y-74341088D01*
X166113165Y-74294732D01*
X166124896Y-74256062D01*
X166143946Y-74220423D01*
X166169583Y-74189183D01*
X166200823Y-74163546D01*
X166236462Y-74144496D01*
X166275132Y-74132765D01*
X166321488Y-74128200D01*
X166972712Y-74128200D01*
X167019068Y-74132765D01*
G37*
G36*
X165144068Y-74132765D02*
G01*
X165182738Y-74144496D01*
X165218377Y-74163546D01*
X165249617Y-74189183D01*
X165275254Y-74220423D01*
X165294304Y-74256062D01*
X165306035Y-74294732D01*
X165310600Y-74341088D01*
X165310600Y-75417312D01*
X165306035Y-75463668D01*
X165294304Y-75502338D01*
X165275254Y-75537977D01*
X165249617Y-75569217D01*
X165218377Y-75594854D01*
X165182738Y-75613904D01*
X165144068Y-75625635D01*
X165097712Y-75630200D01*
X164446488Y-75630200D01*
X164400132Y-75625635D01*
X164361462Y-75613904D01*
X164325823Y-75594854D01*
X164294583Y-75569217D01*
X164268946Y-75537977D01*
X164249896Y-75502338D01*
X164238165Y-75463668D01*
X164233600Y-75417312D01*
X164233600Y-74341088D01*
X164238165Y-74294732D01*
X164249896Y-74256062D01*
X164268946Y-74220423D01*
X164294583Y-74189183D01*
X164325823Y-74163546D01*
X164361462Y-74144496D01*
X164400132Y-74132765D01*
X164446488Y-74128200D01*
X165097712Y-74128200D01*
X165144068Y-74132765D01*
G37*
G36*
X113735000Y-73129000D02*
G01*
X112833000Y-73129000D01*
X112833000Y-72127000D01*
X113735000Y-72127000D01*
X113735000Y-73129000D01*
G37*
G36*
X112785000Y-71129000D02*
G01*
X111883000Y-71129000D01*
X111883000Y-70127000D01*
X112785000Y-70127000D01*
X112785000Y-71129000D01*
G37*
G36*
X114685000Y-71129000D02*
G01*
X113783000Y-71129000D01*
X113783000Y-70127000D01*
X114685000Y-70127000D01*
X114685000Y-71129000D01*
G37*
G36*
X117424468Y-68983565D02*
G01*
X117463138Y-68995296D01*
X117498777Y-69014346D01*
X117530017Y-69039983D01*
X117555654Y-69071223D01*
X117574704Y-69106862D01*
X117586435Y-69145532D01*
X117591000Y-69191888D01*
X117591000Y-69843112D01*
X117586435Y-69889468D01*
X117574704Y-69928138D01*
X117555654Y-69963777D01*
X117530017Y-69995017D01*
X117498777Y-70020654D01*
X117463138Y-70039704D01*
X117424468Y-70051435D01*
X117378112Y-70056000D01*
X116301888Y-70056000D01*
X116255532Y-70051435D01*
X116216862Y-70039704D01*
X116181223Y-70020654D01*
X116149983Y-69995017D01*
X116124346Y-69963777D01*
X116105296Y-69928138D01*
X116093565Y-69889468D01*
X116089000Y-69843112D01*
X116089000Y-69191888D01*
X116093565Y-69145532D01*
X116105296Y-69106862D01*
X116124346Y-69071223D01*
X116149983Y-69039983D01*
X116181223Y-69014346D01*
X116216862Y-68995296D01*
X116255532Y-68983565D01*
X116301888Y-68979000D01*
X117378112Y-68979000D01*
X117424468Y-68983565D01*
G37*
G36*
X91656627Y-67542037D02*
G01*
X91826466Y-67593557D01*
X91826468Y-67593558D01*
X91878803Y-67621532D01*
X91982991Y-67677222D01*
X92006359Y-67696400D01*
X92120186Y-67789814D01*
X92203448Y-67891271D01*
X92232778Y-67927009D01*
X92316443Y-68083534D01*
X92367963Y-68253374D01*
X92381000Y-68385743D01*
X92381000Y-68774258D01*
X92367963Y-68906627D01*
X92316443Y-69076466D01*
X92232778Y-69232991D01*
X92220255Y-69248250D01*
X92120186Y-69370186D01*
X91982989Y-69482779D01*
X91850120Y-69553799D01*
X91826465Y-69566443D01*
X91656626Y-69617963D01*
X91480000Y-69635359D01*
X91303373Y-69617963D01*
X91133534Y-69566443D01*
X90977009Y-69482778D01*
X90927822Y-69442411D01*
X90839814Y-69370186D01*
X90727221Y-69232989D01*
X90643558Y-69076467D01*
X90637914Y-69057861D01*
X90592037Y-68906626D01*
X90579000Y-68774257D01*
X90579000Y-68385742D01*
X90592037Y-68253373D01*
X90643557Y-68083534D01*
X90727222Y-67927009D01*
X90839815Y-67789815D01*
X90977010Y-67677222D01*
X91081198Y-67621532D01*
X91133533Y-67593558D01*
X91133535Y-67593557D01*
X91303374Y-67542037D01*
X91480000Y-67524641D01*
X91656627Y-67542037D01*
G37*
G36*
X101816627Y-67542037D02*
G01*
X101986466Y-67593557D01*
X101986468Y-67593558D01*
X102038803Y-67621532D01*
X102142991Y-67677222D01*
X102166359Y-67696400D01*
X102280186Y-67789814D01*
X102363448Y-67891271D01*
X102392778Y-67927009D01*
X102476443Y-68083534D01*
X102527963Y-68253374D01*
X102541000Y-68385743D01*
X102541000Y-68774258D01*
X102527963Y-68906627D01*
X102476443Y-69076466D01*
X102392778Y-69232991D01*
X102380255Y-69248250D01*
X102280186Y-69370186D01*
X102142989Y-69482779D01*
X102010120Y-69553799D01*
X101986465Y-69566443D01*
X101816626Y-69617963D01*
X101640000Y-69635359D01*
X101463373Y-69617963D01*
X101293534Y-69566443D01*
X101137009Y-69482778D01*
X101087822Y-69442411D01*
X100999814Y-69370186D01*
X100887221Y-69232989D01*
X100803558Y-69076467D01*
X100797914Y-69057861D01*
X100752037Y-68906626D01*
X100739000Y-68774257D01*
X100739000Y-68385742D01*
X100752037Y-68253373D01*
X100803557Y-68083534D01*
X100887222Y-67927009D01*
X100999815Y-67789815D01*
X101137010Y-67677222D01*
X101241198Y-67621532D01*
X101293533Y-67593558D01*
X101293535Y-67593557D01*
X101463374Y-67542037D01*
X101640000Y-67524641D01*
X101816627Y-67542037D01*
G37*
G36*
X94738600Y-67532989D02*
G01*
X94771652Y-67543015D01*
X94802103Y-67559292D01*
X94828799Y-67581201D01*
X94850708Y-67607897D01*
X94866985Y-67638348D01*
X94877011Y-67671400D01*
X94881000Y-67711903D01*
X94881000Y-69448097D01*
X94877011Y-69488600D01*
X94866985Y-69521652D01*
X94850708Y-69552103D01*
X94828799Y-69578799D01*
X94802103Y-69600708D01*
X94771652Y-69616985D01*
X94738600Y-69627011D01*
X94698097Y-69631000D01*
X93261903Y-69631000D01*
X93221400Y-69627011D01*
X93188348Y-69616985D01*
X93157897Y-69600708D01*
X93131201Y-69578799D01*
X93109292Y-69552103D01*
X93093015Y-69521652D01*
X93082989Y-69488600D01*
X93079000Y-69448097D01*
X93079000Y-67711903D01*
X93082989Y-67671400D01*
X93093015Y-67638348D01*
X93109292Y-67607897D01*
X93131201Y-67581201D01*
X93157897Y-67559292D01*
X93188348Y-67543015D01*
X93221400Y-67532989D01*
X93261903Y-67529000D01*
X94698097Y-67529000D01*
X94738600Y-67532989D01*
G37*
G36*
X104898600Y-67532989D02*
G01*
X104931652Y-67543015D01*
X104962103Y-67559292D01*
X104988799Y-67581201D01*
X105010708Y-67607897D01*
X105026985Y-67638348D01*
X105037011Y-67671400D01*
X105041000Y-67711903D01*
X105041000Y-69448097D01*
X105037011Y-69488600D01*
X105026985Y-69521652D01*
X105010708Y-69552103D01*
X104988799Y-69578799D01*
X104962103Y-69600708D01*
X104931652Y-69616985D01*
X104898600Y-69627011D01*
X104858097Y-69631000D01*
X103421903Y-69631000D01*
X103381400Y-69627011D01*
X103348348Y-69616985D01*
X103317897Y-69600708D01*
X103291201Y-69578799D01*
X103269292Y-69552103D01*
X103253015Y-69521652D01*
X103242989Y-69488600D01*
X103239000Y-69448097D01*
X103239000Y-67711903D01*
X103242989Y-67671400D01*
X103253015Y-67638348D01*
X103269292Y-67607897D01*
X103291201Y-67581201D01*
X103317897Y-67559292D01*
X103348348Y-67543015D01*
X103381400Y-67532989D01*
X103421903Y-67529000D01*
X104858097Y-67529000D01*
X104898600Y-67532989D01*
G37*
G36*
X162776627Y-67567037D02*
G01*
X162946466Y-67618557D01*
X163102991Y-67702222D01*
X163129832Y-67724250D01*
X163240186Y-67814814D01*
X163319738Y-67911750D01*
X163352778Y-67952009D01*
X163436443Y-68108534D01*
X163487963Y-68278374D01*
X163487963Y-68278376D01*
X163500350Y-68404138D01*
X163501000Y-68410743D01*
X163501000Y-68749258D01*
X163487963Y-68881627D01*
X163452208Y-68999495D01*
X163436442Y-69051468D01*
X163406833Y-69106862D01*
X163352778Y-69207991D01*
X163332262Y-69232990D01*
X163240186Y-69345186D01*
X163102989Y-69457779D01*
X162946467Y-69541442D01*
X162946465Y-69541443D01*
X162776626Y-69592963D01*
X162600000Y-69610359D01*
X162423373Y-69592963D01*
X162253534Y-69541443D01*
X162097009Y-69457778D01*
X162048173Y-69417699D01*
X161959814Y-69345186D01*
X161847221Y-69207989D01*
X161763558Y-69051467D01*
X161755340Y-69024377D01*
X161712037Y-68881626D01*
X161705518Y-68815441D01*
X161699000Y-68749259D01*
X161699000Y-68410740D01*
X161712037Y-68278375D01*
X161712037Y-68278373D01*
X161763557Y-68108534D01*
X161788785Y-68061337D01*
X161847221Y-67952011D01*
X161847222Y-67952009D01*
X161959815Y-67814815D01*
X162097010Y-67702222D01*
X162253535Y-67618557D01*
X162423374Y-67567037D01*
X162600000Y-67549641D01*
X162776627Y-67567037D01*
G37*
G36*
X142536627Y-67567037D02*
G01*
X142706466Y-67618557D01*
X142862991Y-67702222D01*
X142889832Y-67724250D01*
X143000186Y-67814814D01*
X143079738Y-67911750D01*
X143112778Y-67952009D01*
X143196443Y-68108534D01*
X143247963Y-68278374D01*
X143247963Y-68278376D01*
X143260350Y-68404138D01*
X143261000Y-68410743D01*
X143261000Y-68749258D01*
X143247963Y-68881627D01*
X143212208Y-68999495D01*
X143196442Y-69051468D01*
X143166833Y-69106862D01*
X143112778Y-69207991D01*
X143092262Y-69232990D01*
X143000186Y-69345186D01*
X142862989Y-69457779D01*
X142706467Y-69541442D01*
X142706465Y-69541443D01*
X142536626Y-69592963D01*
X142360000Y-69610359D01*
X142183373Y-69592963D01*
X142013534Y-69541443D01*
X141857009Y-69457778D01*
X141808173Y-69417699D01*
X141719814Y-69345186D01*
X141607221Y-69207989D01*
X141523558Y-69051467D01*
X141515340Y-69024377D01*
X141472037Y-68881626D01*
X141465518Y-68815441D01*
X141459000Y-68749259D01*
X141459000Y-68410740D01*
X141472037Y-68278375D01*
X141472037Y-68278373D01*
X141523557Y-68108534D01*
X141548785Y-68061337D01*
X141607221Y-67952011D01*
X141607222Y-67952009D01*
X141719815Y-67814815D01*
X141857010Y-67702222D01*
X142013535Y-67618557D01*
X142183374Y-67567037D01*
X142360000Y-67549641D01*
X142536627Y-67567037D01*
G37*
G36*
X145036627Y-67567037D02*
G01*
X145206466Y-67618557D01*
X145362991Y-67702222D01*
X145389832Y-67724250D01*
X145500186Y-67814814D01*
X145579738Y-67911750D01*
X145612778Y-67952009D01*
X145696443Y-68108534D01*
X145747963Y-68278374D01*
X145747963Y-68278376D01*
X145760350Y-68404138D01*
X145761000Y-68410743D01*
X145761000Y-68749258D01*
X145747963Y-68881627D01*
X145712208Y-68999495D01*
X145696442Y-69051468D01*
X145666833Y-69106862D01*
X145612778Y-69207991D01*
X145592262Y-69232990D01*
X145500186Y-69345186D01*
X145362989Y-69457779D01*
X145206467Y-69541442D01*
X145206465Y-69541443D01*
X145036626Y-69592963D01*
X144860000Y-69610359D01*
X144683373Y-69592963D01*
X144513534Y-69541443D01*
X144357009Y-69457778D01*
X144308173Y-69417699D01*
X144219814Y-69345186D01*
X144107221Y-69207989D01*
X144023558Y-69051467D01*
X144015340Y-69024377D01*
X143972037Y-68881626D01*
X143965518Y-68815441D01*
X143959000Y-68749259D01*
X143959000Y-68410740D01*
X143972037Y-68278375D01*
X143972037Y-68278373D01*
X144023557Y-68108534D01*
X144048785Y-68061337D01*
X144107221Y-67952011D01*
X144107222Y-67952009D01*
X144219815Y-67814815D01*
X144357010Y-67702222D01*
X144513535Y-67618557D01*
X144683374Y-67567037D01*
X144860000Y-67549641D01*
X145036627Y-67567037D01*
G37*
G36*
X147536627Y-67567037D02*
G01*
X147706466Y-67618557D01*
X147862991Y-67702222D01*
X147889832Y-67724250D01*
X148000186Y-67814814D01*
X148079738Y-67911750D01*
X148112778Y-67952009D01*
X148196443Y-68108534D01*
X148247963Y-68278374D01*
X148247963Y-68278376D01*
X148260350Y-68404138D01*
X148261000Y-68410743D01*
X148261000Y-68749258D01*
X148247963Y-68881627D01*
X148212208Y-68999495D01*
X148196442Y-69051468D01*
X148166833Y-69106862D01*
X148112778Y-69207991D01*
X148092262Y-69232990D01*
X148000186Y-69345186D01*
X147862989Y-69457779D01*
X147706467Y-69541442D01*
X147706465Y-69541443D01*
X147536626Y-69592963D01*
X147360000Y-69610359D01*
X147183373Y-69592963D01*
X147013534Y-69541443D01*
X146857009Y-69457778D01*
X146808173Y-69417699D01*
X146719814Y-69345186D01*
X146607221Y-69207989D01*
X146523558Y-69051467D01*
X146515340Y-69024377D01*
X146472037Y-68881626D01*
X146465518Y-68815441D01*
X146459000Y-68749259D01*
X146459000Y-68410740D01*
X146472037Y-68278375D01*
X146472037Y-68278373D01*
X146523557Y-68108534D01*
X146548785Y-68061337D01*
X146607221Y-67952011D01*
X146607222Y-67952009D01*
X146719815Y-67814815D01*
X146857010Y-67702222D01*
X147013535Y-67618557D01*
X147183374Y-67567037D01*
X147360000Y-67549641D01*
X147536627Y-67567037D01*
G37*
G36*
X157776627Y-67567037D02*
G01*
X157946466Y-67618557D01*
X158102991Y-67702222D01*
X158129832Y-67724250D01*
X158240186Y-67814814D01*
X158319738Y-67911750D01*
X158352778Y-67952009D01*
X158436443Y-68108534D01*
X158487963Y-68278374D01*
X158487963Y-68278376D01*
X158500350Y-68404138D01*
X158501000Y-68410743D01*
X158501000Y-68749258D01*
X158487963Y-68881627D01*
X158452208Y-68999495D01*
X158436442Y-69051468D01*
X158406833Y-69106862D01*
X158352778Y-69207991D01*
X158332262Y-69232990D01*
X158240186Y-69345186D01*
X158102989Y-69457779D01*
X157946467Y-69541442D01*
X157946465Y-69541443D01*
X157776626Y-69592963D01*
X157600000Y-69610359D01*
X157423373Y-69592963D01*
X157253534Y-69541443D01*
X157097009Y-69457778D01*
X157048173Y-69417699D01*
X156959814Y-69345186D01*
X156847221Y-69207989D01*
X156763558Y-69051467D01*
X156755340Y-69024377D01*
X156712037Y-68881626D01*
X156705518Y-68815441D01*
X156699000Y-68749259D01*
X156699000Y-68410740D01*
X156712037Y-68278375D01*
X156712037Y-68278373D01*
X156763557Y-68108534D01*
X156788785Y-68061337D01*
X156847221Y-67952011D01*
X156847222Y-67952009D01*
X156959815Y-67814815D01*
X157097010Y-67702222D01*
X157253535Y-67618557D01*
X157423374Y-67567037D01*
X157600000Y-67549641D01*
X157776627Y-67567037D01*
G37*
G36*
X160276627Y-67567037D02*
G01*
X160446466Y-67618557D01*
X160602991Y-67702222D01*
X160629832Y-67724250D01*
X160740186Y-67814814D01*
X160819738Y-67911750D01*
X160852778Y-67952009D01*
X160936443Y-68108534D01*
X160987963Y-68278374D01*
X160987963Y-68278376D01*
X161000350Y-68404138D01*
X161001000Y-68410743D01*
X161001000Y-68749258D01*
X160987963Y-68881627D01*
X160952208Y-68999495D01*
X160936442Y-69051468D01*
X160906833Y-69106862D01*
X160852778Y-69207991D01*
X160832262Y-69232990D01*
X160740186Y-69345186D01*
X160602989Y-69457779D01*
X160446467Y-69541442D01*
X160446465Y-69541443D01*
X160276626Y-69592963D01*
X160100000Y-69610359D01*
X159923373Y-69592963D01*
X159753534Y-69541443D01*
X159597009Y-69457778D01*
X159548173Y-69417699D01*
X159459814Y-69345186D01*
X159347221Y-69207989D01*
X159263558Y-69051467D01*
X159255340Y-69024377D01*
X159212037Y-68881626D01*
X159205518Y-68815441D01*
X159199000Y-68749259D01*
X159199000Y-68410740D01*
X159212037Y-68278375D01*
X159212037Y-68278373D01*
X159263557Y-68108534D01*
X159288785Y-68061337D01*
X159347221Y-67952011D01*
X159347222Y-67952009D01*
X159459815Y-67814815D01*
X159597010Y-67702222D01*
X159753535Y-67618557D01*
X159923374Y-67567037D01*
X160100000Y-67549641D01*
X160276627Y-67567037D01*
G37*
G36*
X165858600Y-67557989D02*
G01*
X165891652Y-67568015D01*
X165922103Y-67584292D01*
X165948799Y-67606201D01*
X165970708Y-67632897D01*
X165986985Y-67663348D01*
X165997011Y-67696400D01*
X166001000Y-67736903D01*
X166001000Y-69423097D01*
X165997011Y-69463600D01*
X165986985Y-69496652D01*
X165970708Y-69527103D01*
X165948799Y-69553799D01*
X165922103Y-69575708D01*
X165891652Y-69591985D01*
X165858600Y-69602011D01*
X165818097Y-69606000D01*
X164381903Y-69606000D01*
X164341400Y-69602011D01*
X164308348Y-69591985D01*
X164277897Y-69575708D01*
X164251201Y-69553799D01*
X164229292Y-69527103D01*
X164213015Y-69496652D01*
X164202989Y-69463600D01*
X164199000Y-69423097D01*
X164199000Y-67736903D01*
X164202989Y-67696400D01*
X164213015Y-67663348D01*
X164229292Y-67632897D01*
X164251201Y-67606201D01*
X164277897Y-67584292D01*
X164308348Y-67568015D01*
X164341400Y-67557989D01*
X164381903Y-67554000D01*
X165818097Y-67554000D01*
X165858600Y-67557989D01*
G37*
G36*
X150618600Y-67557989D02*
G01*
X150651652Y-67568015D01*
X150682103Y-67584292D01*
X150708799Y-67606201D01*
X150730708Y-67632897D01*
X150746985Y-67663348D01*
X150757011Y-67696400D01*
X150761000Y-67736903D01*
X150761000Y-69423097D01*
X150757011Y-69463600D01*
X150746985Y-69496652D01*
X150730708Y-69527103D01*
X150708799Y-69553799D01*
X150682103Y-69575708D01*
X150651652Y-69591985D01*
X150618600Y-69602011D01*
X150578097Y-69606000D01*
X149141903Y-69606000D01*
X149101400Y-69602011D01*
X149068348Y-69591985D01*
X149037897Y-69575708D01*
X149011201Y-69553799D01*
X148989292Y-69527103D01*
X148973015Y-69496652D01*
X148962989Y-69463600D01*
X148959000Y-69423097D01*
X148959000Y-67736903D01*
X148962989Y-67696400D01*
X148973015Y-67663348D01*
X148989292Y-67632897D01*
X149011201Y-67606201D01*
X149037897Y-67584292D01*
X149068348Y-67568015D01*
X149101400Y-67557989D01*
X149141903Y-67554000D01*
X150578097Y-67554000D01*
X150618600Y-67557989D01*
G37*
G36*
X112344468Y-67459565D02*
G01*
X112383138Y-67471296D01*
X112418777Y-67490346D01*
X112450017Y-67515983D01*
X112475654Y-67547223D01*
X112494704Y-67582862D01*
X112506435Y-67621532D01*
X112511000Y-67667888D01*
X112511000Y-68319112D01*
X112506435Y-68365468D01*
X112494704Y-68404138D01*
X112475654Y-68439777D01*
X112450017Y-68471017D01*
X112418777Y-68496654D01*
X112383138Y-68515704D01*
X112344468Y-68527435D01*
X112298112Y-68532000D01*
X111221888Y-68532000D01*
X111175532Y-68527435D01*
X111136862Y-68515704D01*
X111101223Y-68496654D01*
X111069983Y-68471017D01*
X111044346Y-68439777D01*
X111025296Y-68404138D01*
X111013565Y-68365468D01*
X111009000Y-68319112D01*
X111009000Y-67667888D01*
X111013565Y-67621532D01*
X111025296Y-67582862D01*
X111044346Y-67547223D01*
X111069983Y-67515983D01*
X111101223Y-67490346D01*
X111136862Y-67471296D01*
X111175532Y-67459565D01*
X111221888Y-67455000D01*
X112298112Y-67455000D01*
X112344468Y-67459565D01*
G37*
G36*
X117424468Y-67108565D02*
G01*
X117463138Y-67120296D01*
X117498777Y-67139346D01*
X117530017Y-67164983D01*
X117555654Y-67196223D01*
X117574704Y-67231862D01*
X117586435Y-67270532D01*
X117591000Y-67316888D01*
X117591000Y-67968112D01*
X117586435Y-68014468D01*
X117574704Y-68053138D01*
X117555654Y-68088777D01*
X117530017Y-68120017D01*
X117498777Y-68145654D01*
X117463138Y-68164704D01*
X117424468Y-68176435D01*
X117378112Y-68181000D01*
X116301888Y-68181000D01*
X116255532Y-68176435D01*
X116216862Y-68164704D01*
X116181223Y-68145654D01*
X116149983Y-68120017D01*
X116124346Y-68088777D01*
X116105296Y-68053138D01*
X116093565Y-68014468D01*
X116089000Y-67968112D01*
X116089000Y-67316888D01*
X116093565Y-67270532D01*
X116105296Y-67231862D01*
X116124346Y-67196223D01*
X116149983Y-67164983D01*
X116181223Y-67139346D01*
X116216862Y-67120296D01*
X116255532Y-67108565D01*
X116301888Y-67104000D01*
X117378112Y-67104000D01*
X117424468Y-67108565D01*
G37*
G36*
X112344468Y-65584565D02*
G01*
X112383138Y-65596296D01*
X112418777Y-65615346D01*
X112450017Y-65640983D01*
X112475654Y-65672223D01*
X112494704Y-65707862D01*
X112506435Y-65746532D01*
X112511000Y-65792888D01*
X112511000Y-66444112D01*
X112506435Y-66490468D01*
X112494704Y-66529138D01*
X112475654Y-66564777D01*
X112450017Y-66596017D01*
X112418777Y-66621654D01*
X112383138Y-66640704D01*
X112344468Y-66652435D01*
X112298112Y-66657000D01*
X111221888Y-66657000D01*
X111175532Y-66652435D01*
X111136862Y-66640704D01*
X111101223Y-66621654D01*
X111069983Y-66596017D01*
X111044346Y-66564777D01*
X111025296Y-66529138D01*
X111013565Y-66490468D01*
X111009000Y-66444112D01*
X111009000Y-65792888D01*
X111013565Y-65746532D01*
X111025296Y-65707862D01*
X111044346Y-65672223D01*
X111069983Y-65640983D01*
X111101223Y-65615346D01*
X111136862Y-65596296D01*
X111175532Y-65584565D01*
X111221888Y-65580000D01*
X112298112Y-65580000D01*
X112344468Y-65584565D01*
G37*
G36*
X111873512Y-61333927D02*
G01*
X112022812Y-61363624D01*
X112186784Y-61431544D01*
X112334354Y-61530147D01*
X112459853Y-61655646D01*
X112558456Y-61803216D01*
X112626376Y-61967188D01*
X112661000Y-62141259D01*
X112661000Y-62318741D01*
X112626376Y-62492812D01*
X112558456Y-62656784D01*
X112459853Y-62804354D01*
X112334354Y-62929853D01*
X112186784Y-63028456D01*
X112022812Y-63096376D01*
X111873512Y-63126073D01*
X111848742Y-63131000D01*
X111671258Y-63131000D01*
X111646488Y-63126073D01*
X111497188Y-63096376D01*
X111333216Y-63028456D01*
X111185646Y-62929853D01*
X111060147Y-62804354D01*
X110961544Y-62656784D01*
X110893624Y-62492812D01*
X110859000Y-62318741D01*
X110859000Y-62141259D01*
X110893624Y-61967188D01*
X110961544Y-61803216D01*
X111060147Y-61655646D01*
X111185646Y-61530147D01*
X111333216Y-61431544D01*
X111497188Y-61363624D01*
X111646488Y-61333927D01*
X111671258Y-61329000D01*
X111848742Y-61329000D01*
X111873512Y-61333927D01*
G37*
G36*
X135521000Y-63131000D02*
G01*
X133719000Y-63131000D01*
X133719000Y-61329000D01*
X135521000Y-61329000D01*
X135521000Y-63131000D01*
G37*
G36*
X132193512Y-61333927D02*
G01*
X132342812Y-61363624D01*
X132506784Y-61431544D01*
X132654354Y-61530147D01*
X132779853Y-61655646D01*
X132878456Y-61803216D01*
X132946376Y-61967188D01*
X132981000Y-62141259D01*
X132981000Y-62318741D01*
X132946376Y-62492812D01*
X132878456Y-62656784D01*
X132779853Y-62804354D01*
X132654354Y-62929853D01*
X132506784Y-63028456D01*
X132342812Y-63096376D01*
X132193512Y-63126073D01*
X132168742Y-63131000D01*
X131991258Y-63131000D01*
X131966488Y-63126073D01*
X131817188Y-63096376D01*
X131653216Y-63028456D01*
X131505646Y-62929853D01*
X131380147Y-62804354D01*
X131281544Y-62656784D01*
X131213624Y-62492812D01*
X131179000Y-62318741D01*
X131179000Y-62141259D01*
X131213624Y-61967188D01*
X131281544Y-61803216D01*
X131380147Y-61655646D01*
X131505646Y-61530147D01*
X131653216Y-61431544D01*
X131817188Y-61363624D01*
X131966488Y-61333927D01*
X131991258Y-61329000D01*
X132168742Y-61329000D01*
X132193512Y-61333927D01*
G37*
G36*
X129653512Y-61333927D02*
G01*
X129802812Y-61363624D01*
X129966784Y-61431544D01*
X130114354Y-61530147D01*
X130239853Y-61655646D01*
X130338456Y-61803216D01*
X130406376Y-61967188D01*
X130441000Y-62141259D01*
X130441000Y-62318741D01*
X130406376Y-62492812D01*
X130338456Y-62656784D01*
X130239853Y-62804354D01*
X130114354Y-62929853D01*
X129966784Y-63028456D01*
X129802812Y-63096376D01*
X129653512Y-63126073D01*
X129628742Y-63131000D01*
X129451258Y-63131000D01*
X129426488Y-63126073D01*
X129277188Y-63096376D01*
X129113216Y-63028456D01*
X128965646Y-62929853D01*
X128840147Y-62804354D01*
X128741544Y-62656784D01*
X128673624Y-62492812D01*
X128639000Y-62318741D01*
X128639000Y-62141259D01*
X128673624Y-61967188D01*
X128741544Y-61803216D01*
X128840147Y-61655646D01*
X128965646Y-61530147D01*
X129113216Y-61431544D01*
X129277188Y-61363624D01*
X129426488Y-61333927D01*
X129451258Y-61329000D01*
X129628742Y-61329000D01*
X129653512Y-61333927D01*
G37*
G36*
X127113512Y-61333927D02*
G01*
X127262812Y-61363624D01*
X127426784Y-61431544D01*
X127574354Y-61530147D01*
X127699853Y-61655646D01*
X127798456Y-61803216D01*
X127866376Y-61967188D01*
X127901000Y-62141259D01*
X127901000Y-62318741D01*
X127866376Y-62492812D01*
X127798456Y-62656784D01*
X127699853Y-62804354D01*
X127574354Y-62929853D01*
X127426784Y-63028456D01*
X127262812Y-63096376D01*
X127113512Y-63126073D01*
X127088742Y-63131000D01*
X126911258Y-63131000D01*
X126886488Y-63126073D01*
X126737188Y-63096376D01*
X126573216Y-63028456D01*
X126425646Y-62929853D01*
X126300147Y-62804354D01*
X126201544Y-62656784D01*
X126133624Y-62492812D01*
X126099000Y-62318741D01*
X126099000Y-62141259D01*
X126133624Y-61967188D01*
X126201544Y-61803216D01*
X126300147Y-61655646D01*
X126425646Y-61530147D01*
X126573216Y-61431544D01*
X126737188Y-61363624D01*
X126886488Y-61333927D01*
X126911258Y-61329000D01*
X127088742Y-61329000D01*
X127113512Y-61333927D01*
G37*
G36*
X124573512Y-61333927D02*
G01*
X124722812Y-61363624D01*
X124886784Y-61431544D01*
X125034354Y-61530147D01*
X125159853Y-61655646D01*
X125258456Y-61803216D01*
X125326376Y-61967188D01*
X125361000Y-62141259D01*
X125361000Y-62318741D01*
X125326376Y-62492812D01*
X125258456Y-62656784D01*
X125159853Y-62804354D01*
X125034354Y-62929853D01*
X124886784Y-63028456D01*
X124722812Y-63096376D01*
X124573512Y-63126073D01*
X124548742Y-63131000D01*
X124371258Y-63131000D01*
X124346488Y-63126073D01*
X124197188Y-63096376D01*
X124033216Y-63028456D01*
X123885646Y-62929853D01*
X123760147Y-62804354D01*
X123661544Y-62656784D01*
X123593624Y-62492812D01*
X123559000Y-62318741D01*
X123559000Y-62141259D01*
X123593624Y-61967188D01*
X123661544Y-61803216D01*
X123760147Y-61655646D01*
X123885646Y-61530147D01*
X124033216Y-61431544D01*
X124197188Y-61363624D01*
X124346488Y-61333927D01*
X124371258Y-61329000D01*
X124548742Y-61329000D01*
X124573512Y-61333927D01*
G37*
G36*
X122033512Y-61333927D02*
G01*
X122182812Y-61363624D01*
X122346784Y-61431544D01*
X122494354Y-61530147D01*
X122619853Y-61655646D01*
X122718456Y-61803216D01*
X122786376Y-61967188D01*
X122821000Y-62141259D01*
X122821000Y-62318741D01*
X122786376Y-62492812D01*
X122718456Y-62656784D01*
X122619853Y-62804354D01*
X122494354Y-62929853D01*
X122346784Y-63028456D01*
X122182812Y-63096376D01*
X122033512Y-63126073D01*
X122008742Y-63131000D01*
X121831258Y-63131000D01*
X121806488Y-63126073D01*
X121657188Y-63096376D01*
X121493216Y-63028456D01*
X121345646Y-62929853D01*
X121220147Y-62804354D01*
X121121544Y-62656784D01*
X121053624Y-62492812D01*
X121019000Y-62318741D01*
X121019000Y-62141259D01*
X121053624Y-61967188D01*
X121121544Y-61803216D01*
X121220147Y-61655646D01*
X121345646Y-61530147D01*
X121493216Y-61431544D01*
X121657188Y-61363624D01*
X121806488Y-61333927D01*
X121831258Y-61329000D01*
X122008742Y-61329000D01*
X122033512Y-61333927D01*
G37*
G36*
X119493512Y-61333927D02*
G01*
X119642812Y-61363624D01*
X119806784Y-61431544D01*
X119954354Y-61530147D01*
X120079853Y-61655646D01*
X120178456Y-61803216D01*
X120246376Y-61967188D01*
X120281000Y-62141259D01*
X120281000Y-62318741D01*
X120246376Y-62492812D01*
X120178456Y-62656784D01*
X120079853Y-62804354D01*
X119954354Y-62929853D01*
X119806784Y-63028456D01*
X119642812Y-63096376D01*
X119493512Y-63126073D01*
X119468742Y-63131000D01*
X119291258Y-63131000D01*
X119266488Y-63126073D01*
X119117188Y-63096376D01*
X118953216Y-63028456D01*
X118805646Y-62929853D01*
X118680147Y-62804354D01*
X118581544Y-62656784D01*
X118513624Y-62492812D01*
X118479000Y-62318741D01*
X118479000Y-62141259D01*
X118513624Y-61967188D01*
X118581544Y-61803216D01*
X118680147Y-61655646D01*
X118805646Y-61530147D01*
X118953216Y-61431544D01*
X119117188Y-61363624D01*
X119266488Y-61333927D01*
X119291258Y-61329000D01*
X119468742Y-61329000D01*
X119493512Y-61333927D01*
G37*
G36*
X116953512Y-61333927D02*
G01*
X117102812Y-61363624D01*
X117266784Y-61431544D01*
X117414354Y-61530147D01*
X117539853Y-61655646D01*
X117638456Y-61803216D01*
X117706376Y-61967188D01*
X117741000Y-62141259D01*
X117741000Y-62318741D01*
X117706376Y-62492812D01*
X117638456Y-62656784D01*
X117539853Y-62804354D01*
X117414354Y-62929853D01*
X117266784Y-63028456D01*
X117102812Y-63096376D01*
X116953512Y-63126073D01*
X116928742Y-63131000D01*
X116751258Y-63131000D01*
X116726488Y-63126073D01*
X116577188Y-63096376D01*
X116413216Y-63028456D01*
X116265646Y-62929853D01*
X116140147Y-62804354D01*
X116041544Y-62656784D01*
X115973624Y-62492812D01*
X115939000Y-62318741D01*
X115939000Y-62141259D01*
X115973624Y-61967188D01*
X116041544Y-61803216D01*
X116140147Y-61655646D01*
X116265646Y-61530147D01*
X116413216Y-61431544D01*
X116577188Y-61363624D01*
X116726488Y-61333927D01*
X116751258Y-61329000D01*
X116928742Y-61329000D01*
X116953512Y-61333927D01*
G37*
G36*
X114413512Y-61333927D02*
G01*
X114562812Y-61363624D01*
X114726784Y-61431544D01*
X114874354Y-61530147D01*
X114999853Y-61655646D01*
X115098456Y-61803216D01*
X115166376Y-61967188D01*
X115201000Y-62141259D01*
X115201000Y-62318741D01*
X115166376Y-62492812D01*
X115098456Y-62656784D01*
X114999853Y-62804354D01*
X114874354Y-62929853D01*
X114726784Y-63028456D01*
X114562812Y-63096376D01*
X114413512Y-63126073D01*
X114388742Y-63131000D01*
X114211258Y-63131000D01*
X114186488Y-63126073D01*
X114037188Y-63096376D01*
X113873216Y-63028456D01*
X113725646Y-62929853D01*
X113600147Y-62804354D01*
X113501544Y-62656784D01*
X113433624Y-62492812D01*
X113399000Y-62318741D01*
X113399000Y-62141259D01*
X113433624Y-61967188D01*
X113501544Y-61803216D01*
X113600147Y-61655646D01*
X113725646Y-61530147D01*
X113873216Y-61431544D01*
X114037188Y-61363624D01*
X114186488Y-61333927D01*
X114211258Y-61329000D01*
X114388742Y-61329000D01*
X114413512Y-61333927D01*
G37*
M02*
